<?xml version="1.0" encoding="utf-8"?>
<!-- Generator: Adobe Illustrator 22.1.0, SVG Export Plug-In . SVG Version: 6.00 Build 0)  -->
<svg version="1.1" id="Layer_1" xmlns="http://www.w3.org/2000/svg" xmlns:xlink="http://www.w3.org/1999/xlink" x="0px" y="0px"
	 viewBox="0 0 391.7 83" style="enable-background:new 0 0 391.7 83;" xml:space="preserve">
<style type="text/css">
	.st0{fill:#0808AF;stroke:#000000;stroke-miterlimit:10;}
	.st1{fill:#FFFFFF;stroke:#EC1C24;stroke-width:6;stroke-miterlimit:10;}
	.st2{fill:#231F20;}
	.st3{fill:#FFFFFF;}
	.st4{clip-path:url(#SVGID_2_);fill:#0808AF;}
	.st5{clip-path:url(#SVGID_2_);fill:#FFFFFF;}
	.st6{clip-path:url(#SVGID_4_);fill:#0808AF;}
	.st7{clip-path:url(#SVGID_6_);fill:#FFFFFF;}
	.st8{clip-path:url(#SVGID_8_);fill:#EC1C24;}
	.st9{clip-path:url(#SVGID_10_);fill:#FFFFFF;}
	.st10{clip-path:url(#SVGID_12_);fill:#EC1C24;}
	.st11{clip-path:url(#SVGID_14_);fill:#FFFFFF;}
	.st12{clip-path:url(#SVGID_16_);fill:#EC1C24;}
	.st13{clip-path:url(#SVGID_18_);fill:#FFFFFF;}
	.st14{clip-path:url(#SVGID_20_);fill:#EC1C24;}
	.st15{clip-path:url(#SVGID_22_);fill:#FFFFFF;}
	.st16{clip-path:url(#SVGID_24_);fill:#EC1C24;}
	.st17{clip-path:url(#SVGID_26_);fill:#FFFFFF;}
	.st18{clip-path:url(#SVGID_28_);fill:#EC1C24;}
	.st19{clip-path:url(#SVGID_30_);fill:#FFFFFF;}
	.st20{clip-path:url(#SVGID_32_);fill:#EC1C24;}
	.st21{clip-path:url(#SVGID_34_);fill:#FFFFFF;}
	.st22{clip-path:url(#SVGID_36_);fill:#EC1C24;}
	.st23{clip-path:url(#SVGID_38_);fill:#FFFFFF;}
	.st24{clip-path:url(#SVGID_40_);fill:#EC1C24;}
	.st25{clip-path:url(#SVGID_42_);fill:#FFFFFF;}
	.st26{clip-path:url(#SVGID_44_);fill:#EC1C24;}
	.st27{clip-path:url(#SVGID_46_);fill:#FFFFFF;}
	.st28{clip-path:url(#SVGID_48_);fill:#EC1C24;}
	.st29{clip-path:url(#SVGID_50_);fill:#FFFFFF;}
	.st30{clip-path:url(#SVGID_52_);fill:#EC1C24;}
	.st31{clip-path:url(#SVGID_54_);fill:#FFFFFF;}
	.st32{clip-path:url(#SVGID_56_);fill:#EC1C24;}
	.st33{clip-path:url(#SVGID_58_);fill:#FFFFFF;}
	.st34{clip-path:url(#SVGID_60_);fill:#EC1C24;}
	.st35{clip-path:url(#SVGID_62_);fill:#FFFFFF;}
	.st36{clip-path:url(#SVGID_64_);fill:#EC1C24;}
	.st37{clip-path:url(#SVGID_66_);fill:#FFFFFF;}
	.st38{fill:#FFFFFF;stroke:#0808AF;stroke-width:6;stroke-miterlimit:10;}
	.st39{clip-path:url(#SVGID_68_);}
	.st40{fill:#0808AF;}
	.st41{fill:#EC1C24;}
</style>
<rect id="XMLID_1_" x="-313.4" y="-1067.6" class="st0" width="1920" height="50.6"/>
<image style="overflow:visible;enable-background:new    ;" width="980" height="842" id="XMLID_45_" xlink:href="CD800C0E.png"  transform="matrix(4.108437e-02 0 0 3.724496e-02 1545.3254 -1170.0795)">
</image>
<text id="XMLID_46_" transform="matrix(1.1031 0 0 1 1385.233 -1147.7979)" style="font-family:'Verdana-Bold'; font-size:18.6363px;">Cart is empty</text>
<rect id="XMLID_47_" x="1369.9" y="-1162.6" width="2.9" height="18.3"/>
<text id="XMLID_50_" transform="matrix(1.1031 0 0 1 1292.2448 -1147.7979)" style="font-family:'Verdana-Bold'; font-size:18.6324px;">Login</text>
<text id="XMLID_51_" transform="matrix(1 0 0 1 780.588 -1102.5098)" class="st3" style="font-family:'Verdana-Bold'; font-size:21.44px;">Shop</text>
<text id="XMLID_52_" transform="matrix(1 0 0 1 1351.5656 -1037.2727)" class="st3" style="font-family:'Verdana-Bold'; font-size:21.44px;">About Us</text>
<g id="XMLID_56_">
	<path id="XMLID_2_" class="st1" d="M326.9-169H18.2c-21.2,0-38.5-17.2-38.5-38.5l0,0c0-21.3,17.2-38.5,38.5-38.5h308.7
		c21.2,0,38.5,17.2,38.5,38.5l0,0C365.4-186.3,348.1-169,326.9-169z"/>
	<g id="XMLID_3_">
		<path id="XMLID_4_" class="st2" d="M11.8-189.5v-7.2h3.6v-21.7h-3.6v-7.2h16.9l5.6,14.9l5.4-14.9h17v7.2H53v21.7h3.7v7.2H40.1
			v-7.2h3.8v-20l-7.4,19.6H32l-7.4-19.6v20h3.9v7.2C28.5-189.5,11.8-189.5,11.8-189.5z"/>
		<path id="XMLID_6_" class="st2" d="M58-189.5v-7.2h3.1l6.7-21.7h-3.6v-7.2h25.5v7.2h-3.5l6.7,21.7H96v7.2H80.2v-7.2h3.2l-1.4-4.9
			h-9.9l-1.3,4.9H74v7.2H58z M73.5-208h7L77-219.5L73.5-208z"/>
		<path id="XMLID_9_" class="st2" d="M124.4-202.7h-4.6v-6.7h18.3v6.7h-3.3v13.2h-7.9v-4.7c-1.5,1.8-3.2,3.2-5.1,4.1
			c-1.9,0.9-4,1.3-6.4,1.3c-2.2,0-4.4-0.4-6.5-1.2s-3.9-1.9-5.5-3.4c-2-1.8-3.6-4-4.7-6.4c-1.1-2.5-1.6-5.1-1.6-7.8
			c0-2.9,0.5-5.5,1.6-8c1.1-2.4,2.7-4.5,4.8-6.4c1.6-1.4,3.5-2.5,5.6-3.3s4.2-1.2,6.5-1.2c1.9,0,3.6,0.3,5.1,0.8
			c1.5,0.6,2.8,1.4,3.9,2.5l-0.1-2.6h8.4v12.8h-9.1c-0.6-1.6-1.6-2.7-2.8-3.5c-1.2-0.8-2.7-1.2-4.5-1.2c-2.7,0-5,1-6.8,2.9
			c-1.8,1.9-2.6,4.3-2.6,7.3s0.9,5.5,2.6,7.3s4,2.8,6.8,2.8c1.7,0,3.3-0.4,4.6-1.3C122.6-199.7,123.6-201,124.4-202.7z"/>
		<path id="XMLID_11_" class="st2" d="M139.7-189.5v-7.2h3.7v-21.7h-3.7v-7.2h16.9v7.2h-3.8v21.7h3.8v7.2
			C156.6-189.5,139.7-189.5,139.7-189.5z"/>
		<path id="XMLID_13_" class="st2" d="M187.1-202.7h10.1c-1.3,4.3-3.6,7.8-7,10.3s-7.3,3.7-11.8,3.7c-2.5,0-4.8-0.4-7-1.2
			c-2.2-0.8-4.1-1.9-5.8-3.4c-2.1-1.9-3.7-4-4.8-6.4c-1.1-2.4-1.7-5-1.7-7.8s0.5-5.4,1.6-7.8c1.1-2.4,2.7-4.5,4.8-6.4
			c1.7-1.5,3.7-2.6,5.8-3.4c2.1-0.8,4.5-1.2,7-1.2c2,0,3.8,0.3,5.5,1s3.1,1.6,4.4,2.9v-3.2h8.4v13.9h-9.1c-0.8-1.9-1.9-3.4-3.4-4.4
			s-3.3-1.5-5.4-1.5c-2.9,0-5.2,0.9-7,2.8c-1.8,1.9-2.7,4.3-2.7,7.3c0,2.9,0.9,5.3,2.7,7.2c1.8,1.9,4,2.8,6.7,2.8
			c2,0,3.7-0.4,5.1-1.3C184.9-199.6,186.1-201,187.1-202.7z"/>
		<path id="XMLID_15_" class="st2" d="M212.5-189.5v-7.2h3.7v-21.7h-3.7v-7.2h17.8c3.8,0,6.7,0.8,8.8,2.5c2.1,1.7,3.1,4,3.1,7.1
			c0,1.9-0.6,3.4-1.7,4.7c-1.1,1.2-2.8,2.2-5.1,2.8c2.8,0.6,4.9,1.7,6.2,3.1c1.3,1.4,1.9,3.4,1.9,5.9c0,3.3-1,5.8-3,7.5
			c-2,1.7-4.9,2.6-8.7,2.6h-19.3V-189.5z M225.5-211.3h2.9c1.5,0,2.6-0.3,3.3-0.9c0.7-0.6,1.1-1.5,1.1-2.6c0-1.2-0.4-2.1-1.1-2.6
			c-0.7-0.6-1.9-0.9-3.3-0.9h-2.9V-211.3z M225.5-196.7h2.9c1.7,0,3.1-0.4,3.9-1.1c0.9-0.7,1.3-1.8,1.3-3.2c0-1.4-0.4-2.5-1.3-3.2
			s-2.2-1.1-3.9-1.1h-2.9V-196.7z"/>
		<path id="XMLID_19_" class="st2" d="M244.7-189.5v-7.2h3.1l6.7-21.7h-3.6v-7.2h25.5v7.2h-3.5l6.7,21.7h3.1v7.2h-15.8v-7.2h3.2
			l-1.4-4.9h-9.9l-1.3,4.9h3.2v7.2H244.7z M260.1-208h7l-3.5-11.5L260.1-208z"/>
		<path id="XMLID_22_" class="st2" d="M283.9-189.5v-7.2h3.7v-21.7h-3.7v-7.2h16.9v7.2H297v21.7h3.8v7.2
			C300.8-189.5,283.9-189.5,283.9-189.5z"/>
		<path id="XMLID_24_" class="st2" d="M309.6-189.5v-7.2h3.7v-21.8h-2.9l-1.9,5.7h-5.8v-12.8h30.5v12.8h-5.8l-1.8-5.7h-2.9v21.8h3.7
			v7.2H309.6z"/>
	</g>
</g>
<text id="XMLID_26_" transform="matrix(1 0 0 1 1494.1361 -1037.2727)" class="st3" style="font-family:'Verdana-Bold'; font-size:21.44px;">Contact</text>
<rect id="XMLID_27_" x="1476.2" y="-1052.9" class="st3" width="3" height="17.6"/>
<rect id="XMLID_34_" x="1334.4" y="-1052.9" class="st3" width="3" height="17.6"/>
<text id="XMLID_42_" transform="matrix(1 0 0 1 1163.8704 -1037.2727)" class="st3" style="font-family:'Verdana-Bold'; font-size:21.44px;">Store Locator</text>
<rect id="XMLID_43_" x="1149.7" y="-1052.9" class="st3" width="3" height="17.6"/>
<text id="XMLID_44_" transform="matrix(1 0 0 1 1077.892 -1037.2727)" class="st3" style="font-family:'Verdana-Bold'; font-size:21.44px;">Shop</text>
<path id="XMLID_53_" class="st3" d="M230.9-1024.3h-482.3c-10,0-18.1-8.1-18.1-18.1l0,0c0-10,8.1-18.1,18.1-18.1h482.3
	c10,0,18.1,8.1,18.1,18.1l0,0C248.9-1032.4,240.8-1024.3,230.9-1024.3z"/>
<text id="XMLID_54_" transform="matrix(1 0 0 1 -248.3604 -1034.9258)" style="fill:#8E8E8E; font-family:'Verdana'; font-size:18px;">Search Products</text>
<g>
	<defs>
		<rect id="SVGID_1_" x="335.5" y="-374.1" width="531" height="12"/>
	</defs>
	<clipPath id="SVGID_2_">
		<use xlink:href="#SVGID_1_"  style="overflow:visible;"/>
	</clipPath>
	<polygon class="st4" points="310.7,-325.1 294.2,-327.1 364.3,-468.6 380.8,-466.6 	"/>
	<polygon class="st4" points="475.7,-304.6 459.2,-306.7 529.3,-448.2 545.8,-446.1 	"/>
	<polygon class="st5" points="492.2,-302.6 475.7,-304.6 545.8,-446.1 562.3,-444.1 	"/>
	<polygon class="st4" points="508.7,-300.5 492.2,-302.6 562.3,-444.1 578.8,-442 	"/>
	<polygon class="st5" points="525.2,-298.5 508.7,-300.5 578.8,-442 595.3,-440 	"/>
	<polygon class="st4" points="541.7,-296.5 525.2,-298.5 595.3,-440 611.8,-437.9 	"/>
	<polygon class="st5" points="558.2,-294.4 541.7,-296.5 611.8,-437.9 628.3,-435.9 	"/>
	<polygon class="st4" points="574.7,-292.4 558.2,-294.4 628.3,-435.9 644.8,-433.8 	"/>
	<polygon class="st5" points="591.2,-290.3 574.7,-292.4 644.8,-433.8 661.3,-431.8 	"/>
	<polygon class="st4" points="607.7,-288.3 591.2,-290.3 661.3,-431.8 677.8,-429.8 	"/>
	<polygon class="st5" points="624.2,-286.2 607.7,-288.3 677.8,-429.8 694.3,-427.7 	"/>
	<polygon class="st4" points="640.7,-284.2 624.2,-286.2 694.3,-427.7 710.8,-425.7 	"/>
	<polygon class="st5" points="657.2,-282.1 640.7,-284.2 710.8,-425.7 727.3,-423.6 	"/>
	<polygon class="st4" points="673.7,-280.1 657.2,-282.1 727.3,-423.6 743.8,-421.6 	"/>
	<polygon class="st5" points="690.2,-278.1 673.7,-280.1 743.8,-421.6 760.3,-419.5 	"/>
	<polygon class="st4" points="706.7,-276 690.2,-278.1 760.3,-419.5 776.8,-417.5 	"/>
	<polygon class="st5" points="723.2,-274 706.7,-276 776.8,-417.5 793.3,-415.4 	"/>
	<polygon class="st4" points="739.7,-271.9 723.2,-274 793.3,-415.4 809.8,-413.4 	"/>
	<polygon class="st5" points="756.2,-269.9 739.7,-271.9 809.8,-413.4 826.3,-411.4 	"/>
	<polygon class="st4" points="772.7,-267.8 756.2,-269.9 826.3,-411.4 842.8,-409.3 	"/>
	<polygon class="st5" points="789.2,-265.8 772.7,-267.8 842.8,-409.3 859.3,-407.3 	"/>
	<polygon class="st4" points="805.7,-263.7 789.2,-265.8 859.3,-407.3 875.8,-405.2 	"/>
</g>
<g>
	<g>
		<defs>
			<rect id="SVGID_3_" x="747.2" y="46.5" width="531" height="12"/>
		</defs>
		<clipPath id="SVGID_4_">
			<use xlink:href="#SVGID_3_"  style="overflow:visible;"/>
		</clipPath>
		<polygon class="st6" points="722.4,95.5 705.9,93.5 776,-48 792.5,-46 		"/>
	</g>
	<g>
		<defs>
			<rect id="SVGID_5_" x="747.2" y="46.5" width="531" height="12"/>
		</defs>
		<clipPath id="SVGID_6_">
			<use xlink:href="#SVGID_5_"  style="overflow:visible;"/>
		</clipPath>
		<polygon class="st7" points="738.9,97.6 722.4,95.5 792.5,-46 809,-43.9 		"/>
	</g>
	<g>
		<defs>
			<rect id="SVGID_7_" x="747.2" y="46.5" width="531" height="12"/>
		</defs>
		<clipPath id="SVGID_8_">
			<use xlink:href="#SVGID_7_"  style="overflow:visible;"/>
		</clipPath>
		<polygon class="st8" points="755.4,99.6 738.9,97.6 809,-43.9 825.5,-41.9 		"/>
	</g>
	<g>
		<defs>
			<rect id="SVGID_9_" x="747.2" y="46.5" width="531" height="12"/>
		</defs>
		<clipPath id="SVGID_10_">
			<use xlink:href="#SVGID_9_"  style="overflow:visible;"/>
		</clipPath>
		<polygon class="st9" points="771.9,101.7 755.4,99.6 825.5,-41.9 842,-39.8 		"/>
	</g>
	<g>
		<defs>
			<rect id="SVGID_11_" x="747.2" y="46.5" width="531" height="12"/>
		</defs>
		<clipPath id="SVGID_12_">
			<use xlink:href="#SVGID_11_"  style="overflow:visible;"/>
		</clipPath>
		<polygon class="st10" points="788.4,103.7 771.9,101.7 842,-39.8 858.5,-37.8 		"/>
	</g>
	<g>
		<defs>
			<rect id="SVGID_13_" x="747.2" y="46.5" width="531" height="12"/>
		</defs>
		<clipPath id="SVGID_14_">
			<use xlink:href="#SVGID_13_"  style="overflow:visible;"/>
		</clipPath>
		<polygon class="st11" points="804.9,105.7 788.4,103.7 858.5,-37.8 875,-35.7 		"/>
	</g>
	<g>
		<defs>
			<rect id="SVGID_15_" x="747.2" y="46.5" width="531" height="12"/>
		</defs>
		<clipPath id="SVGID_16_">
			<use xlink:href="#SVGID_15_"  style="overflow:visible;"/>
		</clipPath>
		<polygon class="st12" points="821.4,107.8 804.9,105.7 875,-35.7 891.5,-33.7 		"/>
	</g>
	<g>
		<defs>
			<rect id="SVGID_17_" x="747.2" y="46.5" width="531" height="12"/>
		</defs>
		<clipPath id="SVGID_18_">
			<use xlink:href="#SVGID_17_"  style="overflow:visible;"/>
		</clipPath>
		<polygon class="st13" points="837.9,109.8 821.4,107.8 891.5,-33.7 908,-31.6 		"/>
	</g>
	<g>
		<defs>
			<rect id="SVGID_19_" x="747.2" y="46.5" width="531" height="12"/>
		</defs>
		<clipPath id="SVGID_20_">
			<use xlink:href="#SVGID_19_"  style="overflow:visible;"/>
		</clipPath>
		<polygon class="st14" points="854.4,111.9 837.9,109.8 908,-31.6 924.5,-29.6 		"/>
	</g>
	<g>
		<defs>
			<rect id="SVGID_21_" x="747.2" y="46.5" width="531" height="12"/>
		</defs>
		<clipPath id="SVGID_22_">
			<use xlink:href="#SVGID_21_"  style="overflow:visible;"/>
		</clipPath>
		<polygon class="st15" points="870.9,113.9 854.4,111.9 924.5,-29.6 941,-27.6 		"/>
	</g>
	<g>
		<defs>
			<rect id="SVGID_23_" x="747.2" y="46.5" width="531" height="12"/>
		</defs>
		<clipPath id="SVGID_24_">
			<use xlink:href="#SVGID_23_"  style="overflow:visible;"/>
		</clipPath>
		<polygon class="st16" points="887.4,116 870.9,113.9 941,-27.6 957.5,-25.5 		"/>
	</g>
	<g>
		<defs>
			<rect id="SVGID_25_" x="747.2" y="46.5" width="531" height="12"/>
		</defs>
		<clipPath id="SVGID_26_">
			<use xlink:href="#SVGID_25_"  style="overflow:visible;"/>
		</clipPath>
		<polygon class="st17" points="903.9,118 887.4,116 957.5,-25.5 974,-23.5 		"/>
	</g>
	<g>
		<defs>
			<rect id="SVGID_27_" x="747.2" y="46.5" width="531" height="12"/>
		</defs>
		<clipPath id="SVGID_28_">
			<use xlink:href="#SVGID_27_"  style="overflow:visible;"/>
		</clipPath>
		<polygon class="st18" points="920.4,120.1 903.9,118 974,-23.5 990.5,-21.4 		"/>
	</g>
	<g>
		<defs>
			<rect id="SVGID_29_" x="747.2" y="46.5" width="531" height="12"/>
		</defs>
		<clipPath id="SVGID_30_">
			<use xlink:href="#SVGID_29_"  style="overflow:visible;"/>
		</clipPath>
		<polygon class="st19" points="936.9,122.1 920.4,120.1 990.5,-21.4 1007,-19.4 		"/>
	</g>
	<g>
		<defs>
			<rect id="SVGID_31_" x="747.2" y="46.5" width="531" height="12"/>
		</defs>
		<clipPath id="SVGID_32_">
			<use xlink:href="#SVGID_31_"  style="overflow:visible;"/>
		</clipPath>
		<polygon class="st20" points="953.4,124.1 936.9,122.1 1007,-19.4 1023.5,-17.3 		"/>
	</g>
	<g>
		<defs>
			<rect id="SVGID_33_" x="747.2" y="46.5" width="531" height="12"/>
		</defs>
		<clipPath id="SVGID_34_">
			<use xlink:href="#SVGID_33_"  style="overflow:visible;"/>
		</clipPath>
		<polygon class="st21" points="969.9,126.2 953.4,124.1 1023.5,-17.3 1040,-15.3 		"/>
	</g>
	<g>
		<defs>
			<rect id="SVGID_35_" x="747.2" y="46.5" width="531" height="12"/>
		</defs>
		<clipPath id="SVGID_36_">
			<use xlink:href="#SVGID_35_"  style="overflow:visible;"/>
		</clipPath>
		<polygon class="st22" points="986.4,128.2 969.9,126.2 1040,-15.3 1056.5,-13.2 		"/>
	</g>
	<g>
		<defs>
			<rect id="SVGID_37_" x="747.2" y="46.5" width="531" height="12"/>
		</defs>
		<clipPath id="SVGID_38_">
			<use xlink:href="#SVGID_37_"  style="overflow:visible;"/>
		</clipPath>
		<polygon class="st23" points="1002.9,130.3 986.4,128.2 1056.5,-13.2 1073,-11.2 		"/>
	</g>
	<g>
		<defs>
			<rect id="SVGID_39_" x="747.2" y="46.5" width="531" height="12"/>
		</defs>
		<clipPath id="SVGID_40_">
			<use xlink:href="#SVGID_39_"  style="overflow:visible;"/>
		</clipPath>
		<polygon class="st24" points="1019.4,132.3 1002.9,130.3 1073,-11.2 1089.5,-9.2 		"/>
	</g>
	<g>
		<defs>
			<rect id="SVGID_41_" x="747.2" y="46.5" width="531" height="12"/>
		</defs>
		<clipPath id="SVGID_42_">
			<use xlink:href="#SVGID_41_"  style="overflow:visible;"/>
		</clipPath>
		<polygon class="st25" points="1035.9,134.4 1019.4,132.3 1089.5,-9.2 1106,-7.1 		"/>
	</g>
	<g>
		<defs>
			<rect id="SVGID_43_" x="747.2" y="46.5" width="531" height="12"/>
		</defs>
		<clipPath id="SVGID_44_">
			<use xlink:href="#SVGID_43_"  style="overflow:visible;"/>
		</clipPath>
		<polygon class="st26" points="1052.4,136.4 1035.9,134.4 1106,-7.1 1122.5,-5.1 		"/>
	</g>
	<g>
		<defs>
			<rect id="SVGID_45_" x="747.2" y="46.5" width="531" height="12"/>
		</defs>
		<clipPath id="SVGID_46_">
			<use xlink:href="#SVGID_45_"  style="overflow:visible;"/>
		</clipPath>
		<polygon class="st27" points="1068.9,138.5 1052.4,136.4 1122.5,-5.1 1139,-3 		"/>
	</g>
	<g>
		<defs>
			<rect id="SVGID_47_" x="747.2" y="46.5" width="531" height="12"/>
		</defs>
		<clipPath id="SVGID_48_">
			<use xlink:href="#SVGID_47_"  style="overflow:visible;"/>
		</clipPath>
		<polygon class="st28" points="1085.4,140.5 1068.9,138.5 1139,-3 1155.5,-1 		"/>
	</g>
	<g>
		<defs>
			<rect id="SVGID_49_" x="747.2" y="46.5" width="531" height="12"/>
		</defs>
		<clipPath id="SVGID_50_">
			<use xlink:href="#SVGID_49_"  style="overflow:visible;"/>
		</clipPath>
		<polygon class="st29" points="1101.9,142.5 1085.4,140.5 1155.5,-1 1172,1.1 		"/>
	</g>
	<g>
		<defs>
			<rect id="SVGID_51_" x="747.2" y="46.5" width="531" height="12"/>
		</defs>
		<clipPath id="SVGID_52_">
			<use xlink:href="#SVGID_51_"  style="overflow:visible;"/>
		</clipPath>
		<polygon class="st30" points="1118.4,144.6 1101.9,142.5 1172,1.1 1188.5,3.1 		"/>
	</g>
	<g>
		<defs>
			<rect id="SVGID_53_" x="747.2" y="46.5" width="531" height="12"/>
		</defs>
		<clipPath id="SVGID_54_">
			<use xlink:href="#SVGID_53_"  style="overflow:visible;"/>
		</clipPath>
		<polygon class="st31" points="1134.9,146.6 1118.4,144.6 1188.5,3.1 1205,5.2 		"/>
	</g>
	<g>
		<defs>
			<rect id="SVGID_55_" x="747.2" y="46.5" width="531" height="12"/>
		</defs>
		<clipPath id="SVGID_56_">
			<use xlink:href="#SVGID_55_"  style="overflow:visible;"/>
		</clipPath>
		<polygon class="st32" points="1151.4,148.7 1134.9,146.6 1205,5.2 1221.5,7.2 		"/>
	</g>
	<g>
		<defs>
			<rect id="SVGID_57_" x="747.2" y="46.5" width="531" height="12"/>
		</defs>
		<clipPath id="SVGID_58_">
			<use xlink:href="#SVGID_57_"  style="overflow:visible;"/>
		</clipPath>
		<polygon class="st33" points="1167.9,150.7 1151.4,148.7 1221.5,7.2 1238,9.2 		"/>
	</g>
	<g>
		<defs>
			<rect id="SVGID_59_" x="747.2" y="46.5" width="531" height="12"/>
		</defs>
		<clipPath id="SVGID_60_">
			<use xlink:href="#SVGID_59_"  style="overflow:visible;"/>
		</clipPath>
		<polygon class="st34" points="1184.4,152.8 1167.9,150.7 1238,9.2 1254.5,11.3 		"/>
	</g>
	<g>
		<defs>
			<rect id="SVGID_61_" x="747.2" y="46.5" width="531" height="12"/>
		</defs>
		<clipPath id="SVGID_62_">
			<use xlink:href="#SVGID_61_"  style="overflow:visible;"/>
		</clipPath>
		<polygon class="st35" points="1200.9,154.8 1184.4,152.8 1254.5,11.3 1271,13.3 		"/>
	</g>
	<g>
		<defs>
			<rect id="SVGID_63_" x="747.2" y="46.5" width="531" height="12"/>
		</defs>
		<clipPath id="SVGID_64_">
			<use xlink:href="#SVGID_63_"  style="overflow:visible;"/>
		</clipPath>
		<polygon class="st36" points="1217.4,156.9 1200.9,154.8 1271,13.3 1287.5,15.4 		"/>
	</g>
	<g>
		<defs>
			<rect id="SVGID_65_" x="747.2" y="46.5" width="531" height="12"/>
		</defs>
		<clipPath id="SVGID_66_">
			<use xlink:href="#SVGID_65_"  style="overflow:visible;"/>
		</clipPath>
		<polygon class="st37" points="1233.9,158.9 1217.4,156.9 1287.5,15.4 1304,17.4 		"/>
	</g>
</g>
<g>
	<path id="XMLID_65_" class="st38" d="M350.3,80H41.5C20.3,80,3,62.8,3,41.5l0,0C3.1,20.2,20.3,3,41.5,3h308.7
		c21.2,0,38.5,17.2,38.5,38.5l0,0C388.7,62.7,371.5,80,350.3,80z"/>
	<g id="XMLID_29_">
		<path id="XMLID_63_" class="st2" d="M35.2,59.5v-7.2h3.6V30.6h-3.6v-7.2h16.9l5.6,14.9l5.4-14.9h17v7.2h-3.7v21.7h3.7v7.2H63.5
			v-7.2h3.8v-20l-7.4,19.6h-4.5L48,32.3v20h3.9v7.2C51.9,59.5,35.2,59.5,35.2,59.5z"/>
		<path id="XMLID_60_" class="st2" d="M81.4,59.5v-7.2h3.1l6.7-21.7h-3.6v-7.2h25.5v7.2h-3.5l6.7,21.7h3.1v7.2h-15.8v-7.2h3.2
			l-1.4-4.9h-10l-1.3,4.9h3.2v7.2H81.4z M96.9,41h7l-3.5-11.5L96.9,41z"/>
		<path id="XMLID_58_" class="st2" d="M147.7,46.3h-4.6v-6.7h18.3v6.7h-3.3v13.2h-7.7v-4.7c-1.5,1.8-3.2,3.2-5.1,4.1
			c-1.9,0.9-4,1.3-6.4,1.3c-2.2,0-4.4-0.4-6.5-1.2s-3.9-1.9-5.5-3.4c-2-1.8-3.6-4-4.7-6.4c-1.1-2.5-1.6-5.1-1.6-7.8
			c0-2.9,0.5-5.5,1.6-8c1.1-2.4,2.7-4.5,4.8-6.4c1.6-1.4,3.5-2.5,5.6-3.3s4.2-1.2,6.5-1.2c1.9,0,3.6,0.3,5.1,0.8
			c1.5,0.6,2.8,1.4,3.9,2.5l-0.1-2.6h8.4V36h-9.1c-0.6-1.6-1.6-2.7-2.8-3.5c-1.2-0.8-2.7-1.2-4.5-1.2c-2.7,0-5,1-6.8,2.9
			c-1.8,1.9-2.6,4.3-2.6,7.3s0.9,5.5,2.6,7.3s4,2.8,6.8,2.8c1.7,0,3.3-0.4,4.6-1.3C145.9,49.3,147,48,147.7,46.3z"/>
		<path id="XMLID_55_" class="st2" d="M163.1,59.5v-7.2h3.7V30.6h-3.7v-7.2H180v7.2h-3.8v21.7h3.8v7.2
			C180,59.5,163.1,59.5,163.1,59.5z"/>
		<path id="XMLID_48_" class="st2" d="M210.5,46.3h10.1c-1.3,4.3-3.6,7.8-7,10.3s-7.3,3.7-11.8,3.7c-2.5,0-4.8-0.4-7-1.2
			s-4.1-1.9-5.8-3.4c-2.1-1.9-3.7-4-4.8-6.4s-1.7-5-1.7-7.8s0.5-5.4,1.6-7.8s2.7-4.5,4.8-6.4c1.7-1.5,3.7-2.6,5.8-3.4
			c2.1-0.8,4.5-1.2,7-1.2c2,0,3.8,0.3,5.5,1s3.1,1.6,4.4,2.9v-3.2h8.4v13.9h-9.1c-0.8-1.9-1.9-3.4-3.4-4.4s-3.3-1.5-5.4-1.5
			c-2.9,0-5.2,0.9-7,2.8c-1.8,1.9-2.7,4.3-2.7,7.3c0,2.9,0.9,5.3,2.7,7.2c1.8,1.9,4,2.8,6.7,2.8c2,0,3.7-0.4,5.1-1.3
			C208.3,49.4,209.5,48,210.5,46.3z"/>
		<path id="XMLID_38_" class="st2" d="M235.8,59.5v-7.2h3.7V30.6h-3.7v-7.2h17.8c3.8,0,6.7,0.8,8.8,2.5c2.1,1.7,3.1,4,3.1,7.1
			c0,1.9-0.6,3.4-1.7,4.7c-1.1,1.2-2.8,2.2-5.1,2.8c2.8,0.6,4.9,1.7,6.2,3.1c1.3,1.4,1.9,3.4,1.9,5.9c0,3.3-1,5.8-3,7.5
			s-4.9,2.6-8.7,2.6L235.8,59.5L235.8,59.5z M248.9,37.7h2.9c1.5,0,2.6-0.3,3.3-0.9c0.7-0.6,1.1-1.5,1.1-2.6c0-1.2-0.4-2.1-1.1-2.6
			c-0.7-0.6-1.9-0.9-3.3-0.9h-2.9V37.7z M248.9,52.3h2.9c1.7,0,3.1-0.4,3.9-1.1c0.9-0.7,1.3-1.8,1.3-3.2s-0.4-2.5-1.3-3.2
			s-2.2-1.1-3.9-1.1h-2.9V52.3z"/>
		<path id="XMLID_35_" class="st2" d="M268,59.5v-7.2h3.1l6.7-21.7h-3.6v-7.2h25.5v7.2h-3.5l6.7,21.7h3.1v7.2h-15.8v-7.2h3.2
			l-1.4-4.9h-9.9l-1.3,4.9h3.2v7.2H268z M283.5,41h7L287,29.5L283.5,41z"/>
		<path id="XMLID_32_" class="st2" d="M307.2,59.5v-7.2h3.7V30.6h-3.7v-7.2h16.9v7.2h-3.8v21.7h3.8v7.2
			C324.1,59.5,307.2,59.5,307.2,59.5z"/>
		<path id="XMLID_30_" class="st2" d="M333,59.5v-7.2h3.7V30.5h-2.9l-1.9,5.7h-5.8V23.4h30.5v12.8h-5.8l-1.8-5.7h-2.9v21.8h3.7v7.2
			H333z"/>
	</g>
</g>
<g>
	<path d="M752.4,92.3v-3.8h1.9V77.2h-1.5l-1,3h-3v-6.7h15.8v6.7h-3l-1-3h-1.5v11.3h1.9v3.8H752.4z"/>
	<path d="M765.7,92.3v-3.8h1.9V77.2h-1.9v-3.8h16.8v6.8h-3.2l-1.1-3h-5.6v3.1h3.7v4.2h-3.7v4h5.6l1.1-3.7h3.3v7.4h-16.9V92.3z"/>
	<path d="M788.9,90.4l0.1,2h-4.1V86h4.4c0.7,1,1.4,1.7,2.1,2.2c0.6,0.4,1.3,0.6,2.1,0.6c0.6,0,1.1-0.2,1.5-0.5s0.6-0.7,0.6-1.2
		s-0.2-0.8-0.6-1.1s-0.9-0.5-1.7-0.6l-2-0.3c-2.2-0.4-3.8-1-4.9-2c-1.1-1-1.6-2.3-1.6-3.9c0-1.7,0.6-3.1,1.8-4.2
		c1.2-1.1,2.7-1.7,4.5-1.7c1,0,1.8,0.2,2.5,0.5c0.7,0.3,1.4,0.9,1.9,1.6l-0.1-1.7h4.1v5.9h-4.1c-0.5-0.9-1.1-1.6-1.6-2
		c-0.6-0.4-1.2-0.7-1.8-0.7s-1.1,0.2-1.4,0.5c-0.4,0.3-0.6,0.7-0.6,1.2s0.2,0.8,0.6,1.1c0.4,0.3,1.1,0.5,2,0.7l1.7,0.3
		c2.2,0.4,3.8,1.1,4.8,2.1s1.6,2.2,1.6,3.8c0,1.9-0.6,3.4-1.8,4.5c-1.2,1.1-2.7,1.7-4.7,1.7c-1.1,0-2.1-0.2-3-0.6
		C790.4,91.7,789.6,91.1,788.9,90.4z"/>
	<path d="M805.5,92.3v-3.8h1.9V77.2h-1.5l-1,3h-3v-6.7h15.8v6.7h-3l-1-3h-1.4v11.3h1.9v3.8H805.5z"/>
	<path d="M818.9,92.3v-3.8h1.9V77.2h-1.9v-3.8h16.8v6.8h-3.3l-1.1-3h-5.6v3.1h3.7v4.2h-3.7v4h5.6l1.1-3.7h3.3v7.4h-16.8V92.3z"/>
	<path d="M837.4,92.3v-3.8h1.9V77.2h-1.9v-3.8h8.9c1.3,0,2.4,0.1,3.4,0.2c0.9,0.2,1.7,0.4,2.3,0.7c1.7,0.9,2.9,2,3.7,3.4
		c0.8,1.4,1.2,3.1,1.2,5.1s-0.4,3.7-1.2,5.1c-0.8,1.4-2,2.5-3.7,3.4c-0.6,0.3-1.3,0.5-2.3,0.7c-0.9,0.2-2.1,0.2-3.4,0.2h-8.9V92.3z
		 M844.3,77.3v11.3h1.5c1.9,0,3.4-0.5,4.4-1.4c1-1,1.5-2.4,1.5-4.2c0-1.9-0.5-3.3-1.5-4.2c-1-1-2.5-1.4-4.4-1.4h-1.5V77.3z"/>
	<path d="M861.1,92.6c-0.7,0-1.4-0.3-1.9-0.8s-0.8-1.1-0.8-1.9c0-0.7,0.3-1.4,0.8-1.9s1.1-0.8,1.9-0.8c0.7,0,1.4,0.2,1.9,0.7
		s0.8,1.1,0.8,1.9s-0.3,1.4-0.8,1.9C862.5,92.4,861.8,92.6,861.1,92.6z"/>
	<path d="M872.6,92.3v-3.8h1.9V77.2h-1.9v-3.8h9.6c2,0,3.5,0.5,4.7,1.6c1.1,1.1,1.7,2.5,1.7,4.3s-0.6,3.3-1.7,4.3
		c-1.1,1.1-2.7,1.6-4.7,1.6h-2.8v3.1h2v3.8h-8.8V92.3z M879.4,77.3v4.6h1.3c1,0,1.8-0.2,2.3-0.6c0.5-0.4,0.8-1,0.8-1.7
		c0-0.8-0.3-1.4-0.8-1.7c-0.5-0.4-1.3-0.6-2.3-0.6C880.7,77.3,879.4,77.3,879.4,77.3z"/>
	<path d="M889.7,92.3v-3.8h1.9V77.2h-1.9v-3.8h11.6c1.5,0,2.6,0.5,3.6,1.4c0.9,0.9,1.4,2.1,1.4,3.5c0,1-0.3,1.9-0.8,2.6
		s-1.3,1.2-2.4,1.6c0.9,0.3,1.5,0.6,1.9,1c0.3,0.4,0.5,1,0.5,1.7v3.3h1.7v3.8h-6.6v-4.4c0-1.6-0.2-2.6-0.5-3c-0.4-0.4-1-0.6-2-0.6
		h-1.5v4.2h1.5v3.8H889.7z M896.5,77.3v4h1.9c0.9,0,1.5-0.2,2-0.5c0.4-0.3,0.6-0.8,0.6-1.5s-0.2-1.2-0.6-1.5c-0.4-0.3-1.1-0.5-2-0.5
		H896.5z"/>
	<path d="M908.1,82.9c0-1.5,0.3-2.8,0.9-4.1c0.6-1.2,1.4-2.4,2.5-3.3c0.9-0.8,1.9-1.4,3-1.8c1.1-0.4,2.3-0.6,3.6-0.6
		c1.3,0,2.5,0.2,3.6,0.6c1.1,0.4,2.1,1,3,1.8c1.1,1,1.9,2.1,2.5,3.3c0.6,1.3,0.9,2.6,0.9,4.1c0,1.4-0.3,2.8-0.9,4
		c-0.6,1.3-1.4,2.4-2.5,3.3c-0.9,0.8-1.9,1.4-3,1.8c-1.1,0.4-2.3,0.6-3.6,0.6c-1.3,0-2.5-0.2-3.6-0.6c-1.1-0.4-2.1-1-3-1.8
		c-1.1-1-1.9-2.1-2.5-3.3S908.1,84.4,908.1,82.9z M913.3,82.9c0,1.5,0.5,2.7,1.4,3.7c0.9,1,2.1,1.5,3.5,1.5c1.4,0,2.6-0.5,3.5-1.5
		c0.9-1,1.4-2.2,1.4-3.7s-0.5-2.8-1.4-3.8c-0.9-1-2.1-1.5-3.5-1.5c-1.4,0-2.6,0.5-3.5,1.5C913.7,80.2,913.3,81.4,913.3,82.9z"/>
	<path d="M935.1,92.3l-5-15h-1.5v-3.8h7.9v3.8h-1.7l2.7,9.2l2.7-9.2h-1.7v-3.8h7.8v3.8h-1.5l-5,15H935.1z"/>
	<path d="M947.1,92.3v-3.8h1.9V77.2h-1.9v-3.8h16.8v6.8h-3.3l-1.1-3h-5.6v3.1h3.7v4.2h-3.7v4h5.6l1.1-3.7h3.3v7.4h-16.8V92.3z"/>
	<path d="M965.7,92.3v-3.8h1.9V77.2h-1.9v-3.8h6.7l6.3,10.4l-0.2-6.6h-2v-3.8h8.6v3.8h-1.9v15h-4.1l-6.9-11.3l0.1,7.6h2v3.8H965.7z"
		/>
	<path d="M989,92.6c-0.7,0-1.4-0.3-1.9-0.8s-0.8-1.1-0.8-1.9c0-0.7,0.3-1.4,0.8-1.9s1.1-0.8,1.9-0.8c0.7,0,1.4,0.2,1.9,0.7
		s0.8,1.1,0.8,1.9s-0.3,1.4-0.8,1.9C990.4,92.4,989.7,92.6,989,92.6z"/>
	<path d="M1003.8,92.3v-3.8h1.9V77.2h-1.5l-1,3h-3v-6.7h15.8v6.7h-3l-1-3h-1.5v11.3h1.9v3.8H1003.8z"/>
	<path d="M1017.2,92.3v-3.8h1.9V77.2h-1.9v-3.8h11.6c1.5,0,2.6,0.5,3.6,1.4c0.9,0.9,1.4,2.1,1.4,3.5c0,1-0.3,1.9-0.8,2.6
		s-1.3,1.2-2.4,1.6c0.9,0.3,1.5,0.6,1.9,1c0.3,0.4,0.5,1,0.5,1.7v3.3h1.7v3.8h-6.6v-4.4c0-1.6-0.2-2.6-0.5-3c-0.4-0.4-1-0.6-2-0.6
		h-1.5v4.2h1.5v3.8H1017.2z M1024,77.3v4h1.9c0.9,0,1.5-0.2,2-0.5c0.4-0.3,0.6-0.8,0.6-1.5s-0.2-1.2-0.6-1.5s-1.1-0.5-2-0.5H1024z"
		/>
	<path d="M1037,85.8v-8.5h-1.9v-3.8h8.8v3.8h-2v7.9c0,1,0.3,1.7,0.8,2.2s1.2,0.8,2.2,0.8s1.7-0.3,2.2-0.8s0.8-1.3,0.8-2.2v-7.9h-2
		v-3.8h8.7v3.8h-1.9v8.5c0,2.1-0.7,3.8-2.1,5c-1.4,1.2-3.3,1.8-5.7,1.8s-4.3-0.6-5.7-1.8C1037.7,89.6,1037,87.9,1037,85.8z"/>
	<path d="M1059.9,90.4l0.1,2h-4.1V86h4.4c0.7,1,1.4,1.7,2.1,2.2c0.6,0.4,1.3,0.6,2.1,0.6c0.6,0,1.1-0.2,1.5-0.5s0.6-0.7,0.6-1.2
		s-0.2-0.8-0.6-1.1s-0.9-0.5-1.7-0.6l-2-0.3c-2.2-0.4-3.8-1-4.9-2s-1.6-2.3-1.6-3.9c0-1.7,0.6-3.1,1.8-4.2c1.2-1.1,2.7-1.7,4.5-1.7
		c1,0,1.8,0.2,2.5,0.5c0.7,0.3,1.4,0.9,1.9,1.6l-0.1-1.7h4.1v5.9h-4.1c-0.5-0.9-1.1-1.6-1.6-2c-0.6-0.4-1.2-0.7-1.8-0.7
		s-1.1,0.2-1.4,0.5c-0.4,0.3-0.6,0.7-0.6,1.2s0.2,0.8,0.6,1.1c0.4,0.3,1.1,0.5,2,0.7l1.7,0.3c2.2,0.4,3.8,1.1,4.8,2.1
		s1.6,2.2,1.6,3.8c0,1.9-0.6,3.4-1.8,4.5c-1.2,1.1-2.7,1.7-4.7,1.7c-1.1,0-2.1-0.2-3-0.6C1061.4,91.7,1060.6,91.1,1059.9,90.4z"/>
	<path d="M1076.6,92.3v-3.8h1.9V77.2h-1.5l-1,3h-3v-6.7h15.8v6.7h-3l-1-3h-1.5v11.3h1.9v3.8H1076.6z"/>
	<path d="M1089.9,92.3v-3.8h1.9V77.2h-1.9v-3.8h16.8v6.8h-3.3l-1.1-3h-5.6v3.1h3.7v4.2h-3.7v4h5.6l1.1-3.7h3.3v7.4h-16.8V92.3z"/>
	<path d="M1108.4,92.3v-3.8h1.9V77.2h-1.9v-3.8h8.9c1.3,0,2.4,0.1,3.4,0.2c0.9,0.2,1.7,0.4,2.3,0.7c1.7,0.9,2.9,2,3.7,3.4
		c0.8,1.4,1.2,3.1,1.2,5.1s-0.4,3.7-1.2,5.1c-0.8,1.4-2,2.5-3.7,3.4c-0.6,0.3-1.3,0.5-2.3,0.7c-0.9,0.2-2.1,0.2-3.4,0.2h-8.9V92.3z
		 M1115.3,77.3v11.3h1.5c1.9,0,3.4-0.5,4.4-1.4s1.5-2.4,1.5-4.2c0-1.9-0.5-3.3-1.5-4.2c-1-1-2.5-1.4-4.4-1.4h-1.5V77.3z"/>
	<path d="M1132.1,92.6c-0.7,0-1.4-0.3-1.9-0.8s-0.8-1.1-0.8-1.9c0-0.7,0.3-1.4,0.8-1.9s1.1-0.8,1.9-0.8c0.7,0,1.4,0.2,1.9,0.7
		s0.8,1.1,0.8,1.9s-0.3,1.4-0.8,1.9C1133.5,92.4,1132.9,92.6,1132.1,92.6z"/>
</g>
<g>
	<g>
		<path d="M7.6,144.9v-3.8h1.9v-11.3H8l-1,3H4v-6.7h15.8v6.7h-3l-1-3h-1.5v11.3h1.9v3.8H7.6z"/>
		<path d="M20.9,144.9v-3.8h1.9v-11.3h-1.9V126h16.8v6.8h-3.3l-1.1-3h-5.6v3.1h3.7v4.2h-3.7v4h5.6l1.1-3.7h3.3v7.4H20.9V144.9z"/>
		<path d="M44,143l0.1,2H40v-6.4h4.4c0.7,1,1.4,1.7,2.1,2.2c0.6,0.4,1.3,0.6,2.1,0.6c0.6,0,1.1-0.2,1.5-0.5s0.6-0.7,0.6-1.2
			s-0.2-0.8-0.6-1.1c-0.4-0.3-0.9-0.5-1.7-0.6l-2-0.3c-2.2-0.4-3.8-1-4.9-2c-1.1-1-1.6-2.3-1.6-3.9c0-1.7,0.6-3.1,1.8-4.2
			c1.2-1.1,2.7-1.7,4.5-1.7c1,0,1.8,0.2,2.5,0.5s1.4,0.9,1.9,1.6l-0.1-1.7h4.1v5.9h-4.1c-0.5-0.9-1.1-1.6-1.6-2
			c-0.6-0.4-1.2-0.7-1.8-0.7s-1.1,0.2-1.4,0.5c-0.4,0.3-0.6,0.7-0.6,1.2s0.2,0.8,0.6,1.1c0.4,0.3,1.1,0.5,2,0.7l1.7,0.3
			c2.2,0.4,3.8,1.1,4.8,2.1s1.6,2.2,1.6,3.8c0,1.9-0.6,3.4-1.8,4.5s-2.7,1.7-4.7,1.7c-1.1,0-2.1-0.2-3-0.6
			C45.5,144.3,44.7,143.7,44,143z"/>
		<path d="M60.7,144.9v-3.8h1.9v-11.3h-1.5l-1,3h-3v-6.7h15.8v6.7h-3l-1-3h-1.5v11.3h1.9v3.8H60.7z"/>
		<path d="M74,144.9v-3.8h1.9v-11.3H74V126h16.8v6.8h-3.3l-1.1-3h-5.6v3.1h3.7v4.2h-3.7v4h5.6l1.1-3.7h3.3v7.4H74V144.9z"/>
		<path d="M92.5,144.9v-3.8h1.9v-11.3h-1.9V126h8.9c1.3,0,2.4,0.1,3.4,0.2c0.9,0.2,1.7,0.4,2.3,0.7c1.7,0.9,2.9,2,3.7,3.4
			c0.8,1.4,1.2,3.1,1.2,5.1s-0.4,3.7-1.2,5.1c-0.8,1.4-2,2.5-3.7,3.4c-0.6,0.3-1.3,0.5-2.3,0.7c-0.9,0.2-2.1,0.2-3.4,0.2h-8.9V144.9
			z M99.5,129.9v11.3h1.5c1.9,0,3.4-0.5,4.4-1.4c1-1,1.5-2.4,1.5-4.2c0-1.9-0.5-3.3-1.5-4.2c-1-1-2.5-1.4-4.4-1.4h-1.5V129.9z"/>
		<path d="M116.2,145.2c-0.7,0-1.4-0.3-1.9-0.8s-0.8-1.1-0.8-1.9c0-0.7,0.3-1.4,0.8-1.9s1.1-0.8,1.9-0.8c0.7,0,1.4,0.2,1.9,0.7
			s0.8,1.1,0.8,1.9s-0.3,1.4-0.8,1.9C117.6,145,117,145.2,116.2,145.2z"/>
		<path d="M127.7,144.9v-3.8h1.9v-11.3h-1.9V126h9.6c2,0,3.5,0.5,4.7,1.6c1.1,1.1,1.7,2.5,1.7,4.3s-0.6,3.3-1.7,4.3
			c-1.1,1.1-2.7,1.6-4.7,1.6h-2.8v3.1h2v3.8h-8.8V144.9z M134.5,129.9v4.6h1.3c1,0,1.8-0.2,2.3-0.6c0.5-0.4,0.8-1,0.8-1.7
			c0-0.8-0.3-1.4-0.8-1.7c-0.5-0.4-1.3-0.6-2.3-0.6C135.8,129.9,134.5,129.9,134.5,129.9z"/>
		<path d="M144.9,144.9v-3.8h1.9v-11.3h-1.9V126h11.6c1.5,0,2.6,0.5,3.6,1.4c0.9,0.9,1.4,2.1,1.4,3.5c0,1-0.3,1.9-0.8,2.6
			s-1.3,1.2-2.4,1.6c0.9,0.3,1.5,0.6,1.9,1c0.3,0.4,0.5,1,0.5,1.7v3.3h1.7v3.8h-6.6v-4.4c0-1.6-0.2-2.6-0.5-3c-0.3-0.4-1-0.6-2-0.6
			h-1.5v4.2h1.5v3.8L144.9,144.9L144.9,144.9z M151.7,129.9v4h1.9c0.9,0,1.5-0.2,2-0.5c0.4-0.3,0.6-0.8,0.6-1.5s-0.2-1.2-0.6-1.5
			s-1.1-0.5-2-0.5H151.7z"/>
		<path d="M163.3,135.5c0-1.5,0.3-2.8,0.9-4.1c0.6-1.2,1.4-2.4,2.5-3.3c0.9-0.8,1.9-1.4,3-1.8c1.1-0.4,2.3-0.6,3.6-0.6
			c1.3,0,2.5,0.2,3.6,0.6c1.1,0.4,2.1,1,3,1.8c1.1,1,1.9,2.1,2.5,3.3c0.6,1.3,0.9,2.6,0.9,4.1c0,1.4-0.3,2.8-0.9,4
			c-0.6,1.3-1.4,2.4-2.5,3.3c-0.9,0.8-1.9,1.4-3,1.8c-1.1,0.4-2.3,0.6-3.6,0.6c-1.3,0-2.5-0.2-3.6-0.6c-1.1-0.4-2.1-1-3-1.8
			c-1.1-1-1.9-2.1-2.5-3.3C163.5,138.3,163.3,137,163.3,135.5z M168.4,135.5c0,1.5,0.5,2.7,1.4,3.7s2.1,1.5,3.5,1.5s2.6-0.5,3.5-1.5
			s1.4-2.2,1.4-3.7s-0.5-2.8-1.4-3.8s-2.1-1.5-3.5-1.5s-2.6,0.5-3.5,1.5C168.9,132.8,168.4,134,168.4,135.5z"/>
		<path d="M190.2,144.9l-5-15h-1.5v-3.8h7.9v3.8h-1.7l2.7,9.2l2.7-9.2h-1.7v-3.8h7.8v3.8h-1.5l-5,15H190.2z"/>
		<path d="M202.2,144.9v-3.8h1.9v-11.3h-1.9V126H219v6.8h-3.3l-1.1-3H209v3.1h3.7v4.2H209v4h5.6l1.1-3.7h3.3v7.4h-16.8V144.9z"/>
		<path d="M220.8,144.9v-3.8h1.9v-11.3h-1.9V126h6.7l6.3,10.4l-0.2-6.6h-2V126h8.6v3.8h-1.9v15h-4.1l-6.9-11.3l0.1,7.6h2v3.8
			L220.8,144.9L220.8,144.9z"/>
		<path d="M244.1,145.2c-0.7,0-1.4-0.3-1.9-0.8s-0.8-1.1-0.8-1.9c0-0.7,0.3-1.4,0.8-1.9s1.1-0.8,1.9-0.8c0.7,0,1.4,0.2,1.9,0.7
			s0.8,1.1,0.8,1.9s-0.3,1.4-0.8,1.9C245.5,145,244.9,145.2,244.1,145.2z"/>
		<path d="M259,144.9v-3.8h1.9v-11.3h-1.5l-1,3h-3v-6.7h15.8v6.7h-3l-1-3h-1.5v11.3h1.9v3.8H259z"/>
		<path d="M272.3,144.9v-3.8h1.9v-11.3h-1.9V126h11.6c1.5,0,2.6,0.5,3.6,1.4c0.9,0.9,1.4,2.1,1.4,3.5c0,1-0.3,1.9-0.8,2.6
			s-1.3,1.2-2.4,1.6c0.9,0.3,1.5,0.6,1.9,1c0.3,0.4,0.5,1,0.5,1.7v3.3h1.7v3.8h-6.6v-4.4c0-1.6-0.2-2.6-0.5-3c-0.3-0.4-1-0.6-2-0.6
			h-1.5v4.2h1.5v3.8L272.3,144.9L272.3,144.9z M279.1,129.9v4h1.9c0.9,0,1.5-0.2,2-0.5c0.4-0.3,0.6-0.8,0.6-1.5s-0.2-1.2-0.6-1.5
			s-1.1-0.5-2-0.5H279.1z"/>
		<path d="M292.1,138.4v-8.5h-1.9v-3.8h8.8v3.8h-2v7.9c0,1,0.3,1.7,0.8,2.2s1.2,0.8,2.2,0.8s1.7-0.3,2.2-0.8s0.8-1.3,0.8-2.2v-7.9
			h-2v-3.8h8.7v3.8h-1.9v8.5c0,2.1-0.7,3.8-2.1,5s-3.3,1.8-5.7,1.8c-2.4,0-4.3-0.6-5.7-1.8C292.8,142.2,292.1,140.5,292.1,138.4z"/>
		<path d="M315,143l0.1,2H311v-6.4h4.4c0.7,1,1.4,1.7,2.1,2.2c0.6,0.4,1.3,0.6,2.1,0.6c0.6,0,1.1-0.2,1.5-0.5s0.6-0.7,0.6-1.2
			s-0.2-0.8-0.6-1.1c-0.4-0.3-0.9-0.5-1.7-0.6l-2-0.3c-2.2-0.4-3.8-1-4.9-2s-1.6-2.3-1.6-3.9c0-1.7,0.6-3.1,1.8-4.2
			c1.2-1.1,2.7-1.7,4.5-1.7c1,0,1.8,0.2,2.5,0.5s1.4,0.9,1.9,1.6l-0.1-1.7h4.1v5.9h-4.1c-0.5-0.9-1.1-1.6-1.6-2
			c-0.6-0.4-1.2-0.7-1.8-0.7c-0.6,0-1.1,0.2-1.4,0.5c-0.4,0.3-0.6,0.7-0.6,1.2s0.2,0.8,0.6,1.1c0.4,0.3,1.1,0.5,2,0.7l1.7,0.3
			c2.2,0.4,3.8,1.1,4.8,2.1s1.6,2.2,1.6,3.8c0,1.9-0.6,3.4-1.8,4.5c-1.2,1.1-2.7,1.7-4.7,1.7c-1.1,0-2.1-0.2-3-0.6
			C316.5,144.3,315.8,143.7,315,143z"/>
		<path d="M331.7,144.9v-3.8h1.9v-11.3h-1.5l-1,3h-3v-6.7h15.8v6.7h-3l-1-3h-1.5v11.3h1.9v3.8H331.7z"/>
		<path d="M345,144.9v-3.8h1.9v-11.3H345V126h16.8v6.8h-3.3l-1.1-3h-5.6v3.1h3.7v4.2h-3.7v4h5.6l1.1-3.7h3.3v7.4H345V144.9z"/>
		<path d="M363.6,144.9v-3.8h1.9v-11.3h-1.9V126h8.9c1.3,0,2.4,0.1,3.4,0.2c0.9,0.2,1.7,0.4,2.3,0.7c1.7,0.9,2.9,2,3.7,3.4
			c0.8,1.4,1.2,3.1,1.2,5.1s-0.4,3.7-1.2,5.1c-0.8,1.4-2,2.5-3.7,3.4c-0.6,0.3-1.3,0.5-2.3,0.7c-0.9,0.2-2.1,0.2-3.4,0.2h-8.9V144.9
			z M370.5,129.9v11.3h1.5c1.9,0,3.4-0.5,4.4-1.4c1-1,1.5-2.4,1.5-4.2c0-1.9-0.5-3.3-1.5-4.2c-1-1-2.5-1.4-4.4-1.4h-1.5V129.9z"/>
		<path d="M387.3,145.2c-0.7,0-1.4-0.3-1.9-0.8s-0.8-1.1-0.8-1.9c0-0.7,0.3-1.4,0.8-1.9s1.1-0.8,1.9-0.8c0.7,0,1.4,0.2,1.9,0.7
			s0.8,1.1,0.8,1.9s-0.3,1.4-0.8,1.9C388.6,145,388,145.2,387.3,145.2z"/>
	</g>
	<g>
		<defs>
			<rect id="SVGID_67_" x="3.9" y="91.1" width="386.3" height="22.1"/>
		</defs>
		<clipPath id="SVGID_68_">
			<use xlink:href="#SVGID_67_"  style="overflow:visible;"/>
		</clipPath>
		<g class="st39">
			
				<rect x="-70" y="-115.5" transform="matrix(0.9189 0.3945 -0.3945 0.9189 -6.7448 24.0991)" class="st40" width="16" height="222.3"/>
			
				<rect x="-54.8" y="-111.6" transform="matrix(0.9189 0.3945 -0.3945 0.9189 -4.4436 20.7942)" class="st41" width="4" height="222.3"/>
			
				<rect x="-73.2" y="-119.4" transform="matrix(0.9189 0.3945 -0.3945 0.9189 -9.046 27.404)" class="st41" width="4" height="222.3"/>
			
				<rect x="-51.6" y="-107.6" transform="matrix(0.9189 0.3945 -0.3945 0.9189 -2.1425 17.4892)" class="st3" width="16" height="222.3"/>
			
				<rect x="-33.2" y="-99.7" transform="matrix(0.9189 0.3945 -0.3945 0.9189 2.4599 10.8794)" class="st40" width="16" height="222.3"/>
			
				<rect x="-18" y="-95.8" transform="matrix(0.9189 0.3945 -0.3945 0.9189 4.7611 7.5745)" class="st41" width="4" height="222.3"/>
			
				<rect x="-36.4" y="-103.7" transform="matrix(0.9189 0.3945 -0.3945 0.9189 0.1587 14.1843)" class="st41" width="4" height="222.3"/>
			
				<rect x="-14.9" y="-91.8" transform="matrix(0.9189 0.3945 -0.3945 0.9189 7.0622 4.2696)" class="st3" width="16" height="222.3"/>
			
				<rect x="3.5" y="-83.9" transform="matrix(0.9189 0.3945 -0.3945 0.9189 11.6646 -2.3403)" class="st40" width="16" height="222.3"/>
			
				<rect x="18.7" y="-80" transform="matrix(0.9189 0.3945 -0.3945 0.9189 13.9657 -5.6452)" class="st41" width="4" height="222.3"/>
			
				<rect x="0.3" y="-87.9" transform="matrix(0.9189 0.3945 -0.3945 0.9189 9.3634 0.9647)" class="st41" width="4" height="222.3"/>
			
				<rect x="21.9" y="-76.1" transform="matrix(0.9189 0.3945 -0.3945 0.9189 16.2669 -8.9501)" class="st3" width="16" height="222.3"/>
			
				<rect x="40.3" y="-68.2" transform="matrix(0.9189 0.3945 -0.3945 0.9189 20.8693 -15.5599)" class="st40" width="16" height="222.3"/>
			
				<rect x="55.5" y="-64.2" transform="matrix(0.9189 0.3945 -0.3945 0.9189 23.1704 -18.8649)" class="st41" width="4" height="222.3"/>
			
				<rect x="37.1" y="-72.1" transform="matrix(0.9189 0.3945 -0.3945 0.9189 18.5681 -12.255)" class="st41" width="4" height="222.3"/>
			
				<rect x="58.7" y="-60.3" transform="matrix(0.9189 0.3945 -0.3945 0.9189 25.4716 -22.1698)" class="st3" width="16" height="222.3"/>
			
				<rect x="77" y="-52.4" transform="matrix(0.9189 0.3945 -0.3945 0.9189 30.074 -28.7796)" class="st40" width="16" height="222.3"/>
			
				<rect x="92.2" y="-48.4" transform="matrix(0.9189 0.3945 -0.3945 0.9189 32.3751 -32.0845)" class="st41" width="4" height="222.3"/>
			
				<rect x="73.8" y="-56.3" transform="matrix(0.9189 0.3945 -0.3945 0.9189 27.7728 -25.4747)" class="st41" width="4" height="222.3"/>
			
				<rect x="95.4" y="-44.5" transform="matrix(0.9189 0.3945 -0.3945 0.9189 34.6763 -35.3895)" class="st3" width="16" height="222.3"/>
			
				<rect x="113.8" y="-36.6" transform="matrix(0.9189 0.3945 -0.3945 0.9189 39.2786 -41.9993)" class="st40" width="16" height="222.3"/>
			
				<rect x="129" y="-32.7" transform="matrix(0.9189 0.3945 -0.3945 0.9189 41.5798 -45.3042)" class="st41" width="4" height="222.3"/>
			
				<rect x="110.6" y="-40.6" transform="matrix(0.9189 0.3945 -0.3945 0.9189 36.9775 -38.6944)" class="st41" width="4" height="222.3"/>
			
				<rect x="132.2" y="-28.7" transform="matrix(0.9189 0.3945 -0.3945 0.9189 43.881 -48.6091)" class="st3" width="16" height="222.3"/>
			
				<rect x="150.6" y="-20.8" transform="matrix(0.9189 0.3945 -0.3945 0.9189 48.4833 -55.219)" class="st40" width="16" height="222.3"/>
			
				<rect x="165.7" y="-16.9" transform="matrix(0.9189 0.3945 -0.3945 0.9189 50.7845 -58.5239)" class="st41" width="4" height="222.3"/>
			
				<rect x="147.4" y="-24.8" transform="matrix(0.9189 0.3945 -0.3945 0.9189 46.1822 -51.9141)" class="st41" width="4" height="222.3"/>
			
				<rect x="168.9" y="-12.9" transform="matrix(0.9189 0.3945 -0.3945 0.9189 53.0857 -61.8288)" class="st3" width="16" height="222.3"/>
			
				<rect x="187.3" y="-5.1" transform="matrix(0.9189 0.3945 -0.3945 0.9189 57.688 -68.4386)" class="st40" width="16" height="222.3"/>
			
				<rect x="202.5" y="-1.1" transform="matrix(0.9189 0.3945 -0.3945 0.9189 59.9892 -71.7436)" class="st41" width="4" height="222.3"/>
			
				<rect x="184.1" y="-9" transform="matrix(0.9189 0.3945 -0.3945 0.9189 55.3869 -65.1337)" class="st41" width="4" height="222.3"/>
			
				<rect x="205.7" y="2.8" transform="matrix(0.9189 0.3945 -0.3945 0.9189 62.2904 -75.0485)" class="st3" width="16" height="222.3"/>
			
				<rect x="225" y="11.1" transform="matrix(0.9189 0.3945 -0.3945 0.9189 67.1228 -81.9888)" class="st40" width="16" height="222.3"/>
			
				<rect x="240.2" y="15.1" transform="matrix(0.9189 0.3945 -0.3945 0.9189 69.424 -85.2937)" class="st41" width="4" height="222.3"/>
			
				<rect x="221.8" y="7.2" transform="matrix(0.9189 0.3945 -0.3945 0.9189 64.8217 -78.6839)" class="st41" width="4" height="222.3"/>
			
				<rect x="243.4" y="19" transform="matrix(0.9189 0.3945 -0.3945 0.9189 71.7252 -88.5986)" class="st3" width="16" height="222.3"/>
			
				<rect x="261.7" y="26.9" transform="matrix(0.9189 0.3945 -0.3945 0.9189 76.3275 -95.2085)" class="st40" width="16" height="222.3"/>
			
				<rect x="276.9" y="30.8" transform="matrix(0.9189 0.3945 -0.3945 0.9189 78.6287 -98.5134)" class="st41" width="4" height="222.3"/>
			
				<rect x="258.5" y="23" transform="matrix(0.9189 0.3945 -0.3945 0.9189 74.0264 -91.9036)" class="st41" width="4" height="222.3"/>
			
				<rect x="280.1" y="34.8" transform="matrix(0.9189 0.3945 -0.3945 0.9189 80.9299 -101.8183)" class="st3" width="16" height="222.3"/>
			
				<rect x="298.5" y="42.7" transform="matrix(0.9189 0.3945 -0.3945 0.9189 85.5322 -108.4282)" class="st40" width="16" height="222.3"/>
			
				<rect x="313.7" y="46.6" transform="matrix(0.9189 0.3945 -0.3945 0.9189 87.8334 -111.7331)" class="st41" width="4" height="222.3"/>
			
				<rect x="295.3" y="38.7" transform="matrix(0.9189 0.3945 -0.3945 0.9189 83.231 -105.1232)" class="st41" width="4" height="222.3"/>
			
				<rect x="316.9" y="50.6" transform="matrix(0.9189 0.3945 -0.3945 0.9189 90.1346 -115.038)" class="st3" width="16" height="222.3"/>
			
				<rect x="335.3" y="58.5" transform="matrix(0.9189 0.3945 -0.3945 0.9189 94.7369 -121.6478)" class="st40" width="16" height="222.3"/>
			
				<rect x="350.4" y="62.4" transform="matrix(0.9189 0.3945 -0.3945 0.9189 97.0381 -124.9528)" class="st41" width="4" height="222.3"/>
			
				<rect x="332.1" y="54.5" transform="matrix(0.9189 0.3945 -0.3945 0.9189 92.4357 -118.3429)" class="st41" width="4" height="222.3"/>
			
				<rect x="353.6" y="66.3" transform="matrix(0.9189 0.3945 -0.3945 0.9189 99.3392 -128.2577)" class="st3" width="16" height="222.3"/>
			
				<rect x="372" y="74.2" transform="matrix(0.9189 0.3945 -0.3945 0.9189 103.9416 -134.8675)" class="st40" width="16" height="222.3"/>
			
				<rect x="387.2" y="78.2" transform="matrix(0.9189 0.3945 -0.3945 0.9189 106.2428 -138.1724)" class="st41" width="4" height="222.3"/>
			
				<rect x="368.8" y="70.3" transform="matrix(0.9189 0.3945 -0.3945 0.9189 101.6404 -131.5626)" class="st41" width="4" height="222.3"/>
			
				<rect x="390.4" y="82.1" transform="matrix(0.9189 0.3945 -0.3945 0.9189 108.5439 -141.4773)" class="st3" width="16" height="222.3"/>
			
				<rect x="408.8" y="90" transform="matrix(0.9189 0.3945 -0.3945 0.9189 113.1463 -148.0872)" class="st40" width="16" height="222.3"/>
			
				<rect x="424" y="94" transform="matrix(0.9189 0.3945 -0.3945 0.9189 115.4475 -151.3921)" class="st41" width="4" height="222.3"/>
			
				<rect x="405.6" y="86.1" transform="matrix(0.9189 0.3945 -0.3945 0.9189 110.8451 -144.7823)" class="st41" width="4" height="222.3"/>
			
				<rect x="427.1" y="97.9" transform="matrix(0.9189 0.3945 -0.3945 0.9189 117.7486 -154.697)" class="st3" width="16" height="222.3"/>
			
				<rect x="445.5" y="105.8" transform="matrix(0.9189 0.3945 -0.3945 0.9189 122.351 -161.3069)" class="st40" width="16" height="222.3"/>
			
				<rect x="460.7" y="109.7" transform="matrix(0.9189 0.3945 -0.3945 0.9189 124.6521 -164.6118)" class="st41" width="4" height="222.3"/>
			
				<rect x="442.3" y="101.8" transform="matrix(0.9189 0.3945 -0.3945 0.9189 120.0498 -158.0019)" class="st41" width="4" height="222.3"/>
			
				<rect x="463.9" y="113.7" transform="matrix(0.9189 0.3945 -0.3945 0.9189 126.9533 -167.9167)" class="st3" width="16" height="222.3"/>
			
				<rect x="482.3" y="121.6" transform="matrix(0.9189 0.3945 -0.3945 0.9189 131.5557 -174.5265)" class="st40" width="16" height="222.3"/>
			
				<rect x="497.5" y="125.5" transform="matrix(0.9189 0.3945 -0.3945 0.9189 133.8568 -177.8315)" class="st41" width="4" height="222.3"/>
			
				<rect x="479.1" y="117.6" transform="matrix(0.9189 0.3945 -0.3945 0.9189 129.2545 -171.2216)" class="st41" width="4" height="222.3"/>
			
				<rect x="500.7" y="129.5" transform="matrix(0.9189 0.3945 -0.3945 0.9189 136.158 -181.1364)" class="st3" width="16" height="222.3"/>
		</g>
	</g>
</g>
</svg>
