<?xml version="1.0" encoding="utf-8"?>
<!-- Generator: Adobe Illustrator 22.1.0, SVG Export Plug-In . SVG Version: 6.00 Build 0)  -->
<svg version="1.1" id="Layer_1" xmlns="http://www.w3.org/2000/svg" xmlns:xlink="http://www.w3.org/1999/xlink" x="0px" y="0px"
	 viewBox="0 0 391.7 83" style="enable-background:new 0 0 391.7 83;" xml:space="preserve">
<style type="text/css">
	.st0{fill:#0808AF;stroke:#000000;stroke-miterlimit:10;}
	.st1{fill:#FFFFFF;stroke:#EC1C24;stroke-width:6;stroke-miterlimit:10;}
	.st2{fill:#231F20;}
	.st3{fill:#FFFFFF;}
	.st4{clip-path:url(#SVGID_2_);fill:#0808AF;}
	.st5{clip-path:url(#SVGID_2_);fill:#FFFFFF;}
	.st6{clip-path:url(#SVGID_4_);fill:#0808AF;}
	.st7{clip-path:url(#SVGID_6_);fill:#FFFFFF;}
	.st8{clip-path:url(#SVGID_8_);fill:#EC1C24;}
	.st9{clip-path:url(#SVGID_10_);fill:#FFFFFF;}
	.st10{clip-path:url(#SVGID_12_);fill:#EC1C24;}
	.st11{clip-path:url(#SVGID_14_);fill:#FFFFFF;}
	.st12{clip-path:url(#SVGID_16_);fill:#EC1C24;}
	.st13{clip-path:url(#SVGID_18_);fill:#FFFFFF;}
	.st14{clip-path:url(#SVGID_20_);fill:#EC1C24;}
	.st15{clip-path:url(#SVGID_22_);fill:#FFFFFF;}
	.st16{clip-path:url(#SVGID_24_);fill:#EC1C24;}
	.st17{clip-path:url(#SVGID_26_);fill:#FFFFFF;}
	.st18{clip-path:url(#SVGID_28_);fill:#EC1C24;}
	.st19{clip-path:url(#SVGID_30_);fill:#FFFFFF;}
	.st20{clip-path:url(#SVGID_32_);fill:#EC1C24;}
	.st21{clip-path:url(#SVGID_34_);fill:#FFFFFF;}
	.st22{clip-path:url(#SVGID_36_);fill:#EC1C24;}
	.st23{clip-path:url(#SVGID_38_);fill:#FFFFFF;}
	.st24{clip-path:url(#SVGID_40_);fill:#EC1C24;}
	.st25{clip-path:url(#SVGID_42_);fill:#FFFFFF;}
	.st26{clip-path:url(#SVGID_44_);fill:#EC1C24;}
	.st27{clip-path:url(#SVGID_46_);fill:#FFFFFF;}
	.st28{clip-path:url(#SVGID_48_);fill:#EC1C24;}
	.st29{clip-path:url(#SVGID_50_);fill:#FFFFFF;}
	.st30{clip-path:url(#SVGID_52_);fill:#EC1C24;}
	.st31{clip-path:url(#SVGID_54_);fill:#FFFFFF;}
	.st32{clip-path:url(#SVGID_56_);fill:#EC1C24;}
	.st33{clip-path:url(#SVGID_58_);fill:#FFFFFF;}
	.st34{clip-path:url(#SVGID_60_);fill:#EC1C24;}
	.st35{clip-path:url(#SVGID_62_);fill:#FFFFFF;}
	.st36{clip-path:url(#SVGID_64_);fill:#EC1C24;}
	.st37{clip-path:url(#SVGID_66_);fill:#FFFFFF;}
	.st38{fill:#FFFFFF;stroke:#0808AF;stroke-width:6;stroke-miterlimit:10;}
	.st39{clip-path:url(#SVGID_68_);}
	.st40{fill:#0808AF;}
	.st41{fill:#EC1C24;}
</style>
<rect id="XMLID_1_" x="-290.2" y="-818.6" class="st0" width="1920" height="50.6"/>
<image style="overflow:visible;enable-background:new    ;" width="980" height="842" id="XMLID_45_" xlink:href="973F5866.png"  transform="matrix(4.108437e-02 0 0 3.724496e-02 1568.5754 -921.0795)">
</image>
<text id="XMLID_46_" transform="matrix(1.1031 0 0 1 1408.483 -898.7979)" style="font-family:'Verdana-Bold'; font-size:18.6363px;">Cart is empty</text>
<rect id="XMLID_47_" x="1393.1" y="-913.6" width="2.9" height="18.3"/>
<text id="XMLID_50_" transform="matrix(1.1031 0 0 1 1315.4948 -898.7979)" style="font-family:'Verdana-Bold'; font-size:18.6324px;">Login</text>
<text id="XMLID_51_" transform="matrix(1 0 0 1 803.838 -853.5098)" class="st3" style="font-family:'Verdana-Bold'; font-size:21.44px;">Shop</text>
<text id="XMLID_52_" transform="matrix(1 0 0 1 1374.8156 -788.2727)" class="st3" style="font-family:'Verdana-Bold'; font-size:21.44px;">About Us</text>
<g id="XMLID_56_">
	<path id="XMLID_2_" class="st1" d="M350.2,80H41.5C20.3,80,3,62.8,3,41.5l0,0C3,20.2,20.2,3,41.5,3h308.7
		c21.2,0,38.5,17.2,38.5,38.5l0,0C388.7,62.7,371.4,80,350.2,80z"/>
	<g id="XMLID_3_">
		<path id="XMLID_4_" class="st2" d="M35.1,59.5v-7.2h3.6V30.6h-3.6v-7.2H52l5.6,14.9L63,23.4h17v7.2h-3.7v21.7H80v7.2H63.4v-7.2
			h3.8v-20l-7.4,19.6h-4.5l-7.4-19.6v20h3.9v7.2C51.8,59.5,35.1,59.5,35.1,59.5z"/>
		<path id="XMLID_6_" class="st2" d="M81.3,59.5v-7.2h3.1l6.7-21.7h-3.6v-7.2H113v7.2h-3.5l6.7,21.7h3.1v7.2h-15.8v-7.2h3.2
			l-1.4-4.9h-9.9l-1.3,4.9h3.2v7.2H81.3z M96.8,41h7l-3.5-11.5L96.8,41z"/>
		<path id="XMLID_9_" class="st2" d="M147.7,46.3h-4.6v-6.7h18.3v6.7h-3.3v13.2h-7.9v-4.7c-1.5,1.8-3.2,3.2-5.1,4.1
			c-1.9,0.9-4,1.3-6.4,1.3c-2.2,0-4.4-0.4-6.5-1.2s-3.9-1.9-5.5-3.4c-2-1.8-3.6-4-4.7-6.4c-1.1-2.5-1.6-5.1-1.6-7.8
			c0-2.9,0.5-5.5,1.6-8c1.1-2.4,2.7-4.5,4.8-6.4c1.6-1.4,3.5-2.5,5.6-3.3s4.2-1.2,6.5-1.2c1.9,0,3.6,0.3,5.1,0.8
			c1.5,0.6,2.8,1.4,3.9,2.5l-0.1-2.6h8.4V36h-9.1c-0.6-1.6-1.6-2.7-2.8-3.5c-1.2-0.8-2.7-1.2-4.5-1.2c-2.7,0-5,1-6.8,2.9
			s-2.6,4.3-2.6,7.3s0.9,5.5,2.6,7.3s4,2.8,6.8,2.8c1.7,0,3.3-0.4,4.6-1.3C145.9,49.3,146.9,48,147.7,46.3z"/>
		<path id="XMLID_11_" class="st2" d="M163,59.5v-7.2h3.7V30.6H163v-7.2h16.9v7.2h-3.8v21.7h3.8v7.2C179.9,59.5,163,59.5,163,59.5z"
			/>
		<path id="XMLID_13_" class="st2" d="M210.4,46.3h10.1c-1.3,4.3-3.6,7.8-7,10.3s-7.3,3.7-11.8,3.7c-2.5,0-4.8-0.4-7-1.2
			s-4.1-1.9-5.8-3.4c-2.1-1.9-3.7-4-4.8-6.4c-1.1-2.4-1.7-5-1.7-7.8s0.5-5.4,1.6-7.8s2.7-4.5,4.8-6.4c1.7-1.5,3.7-2.6,5.8-3.4
			c2.1-0.8,4.5-1.2,7-1.2c2,0,3.8,0.3,5.5,1s3.1,1.6,4.4,2.9v-3.2h8.4v13.9h-9.1c-0.8-1.9-1.9-3.4-3.4-4.4s-3.3-1.5-5.4-1.5
			c-2.9,0-5.2,0.9-7,2.8c-1.8,1.9-2.7,4.3-2.7,7.3c0,2.9,0.9,5.3,2.7,7.2c1.8,1.9,4,2.8,6.7,2.8c2,0,3.7-0.4,5.1-1.3
			C208.2,49.4,209.4,48,210.4,46.3z"/>
		<path id="XMLID_15_" class="st2" d="M235.8,59.5v-7.2h3.7V30.6h-3.7v-7.2h17.8c3.8,0,6.7,0.8,8.8,2.5c2.1,1.7,3.1,4,3.1,7.1
			c0,1.9-0.6,3.4-1.7,4.7c-1.1,1.2-2.8,2.2-5.1,2.8c2.8,0.6,4.9,1.7,6.2,3.1c1.3,1.4,1.9,3.4,1.9,5.9c0,3.3-1,5.8-3,7.5
			s-4.9,2.6-8.7,2.6L235.8,59.5L235.8,59.5z M248.8,37.7h2.9c1.5,0,2.6-0.3,3.3-0.9c0.7-0.6,1.1-1.5,1.1-2.6c0-1.2-0.4-2.1-1.1-2.6
			c-0.7-0.6-1.9-0.9-3.3-0.9h-2.9V37.7z M248.8,52.3h2.9c1.7,0,3.1-0.4,3.9-1.1c0.9-0.7,1.3-1.8,1.3-3.2s-0.4-2.5-1.3-3.2
			s-2.2-1.1-3.9-1.1h-2.9V52.3z"/>
		<path id="XMLID_19_" class="st2" d="M268,59.5v-7.2h3.1l6.7-21.7h-3.6v-7.2h25.5v7.2h-3.5l6.7,21.7h3.1v7.2h-15.8v-7.2h3.2
			l-1.4-4.9h-9.9l-1.3,4.9h3.2v7.2H268z M283.4,41h7l-3.5-11.5L283.4,41z"/>
		<path id="XMLID_22_" class="st2" d="M307.2,59.5v-7.2h3.7V30.6h-3.7v-7.2h16.9v7.2h-3.8v21.7h3.8v7.2
			C324.1,59.5,307.2,59.5,307.2,59.5z"/>
		<path id="XMLID_24_" class="st2" d="M332.9,59.5v-7.2h3.7V30.5h-2.9l-1.9,5.7H326V23.4h30.5v12.8h-5.8l-1.8-5.7H346v21.8h3.7v7.2
			H332.9z"/>
	</g>
</g>
<text id="XMLID_26_" transform="matrix(1 0 0 1 1517.3861 -788.2727)" class="st3" style="font-family:'Verdana-Bold'; font-size:21.44px;">Contact</text>
<rect id="XMLID_27_" x="1499.4" y="-803.9" class="st3" width="3" height="17.6"/>
<rect id="XMLID_34_" x="1357.6" y="-803.9" class="st3" width="3" height="17.6"/>
<text id="XMLID_42_" transform="matrix(1 0 0 1 1187.1205 -788.2727)" class="st3" style="font-family:'Verdana-Bold'; font-size:21.44px;">Store Locator</text>
<rect id="XMLID_43_" x="1172.9" y="-803.9" class="st3" width="3" height="17.6"/>
<text id="XMLID_44_" transform="matrix(1 0 0 1 1101.1421 -788.2727)" class="st3" style="font-family:'Verdana-Bold'; font-size:21.44px;">Shop</text>
<path id="XMLID_53_" class="st3" d="M254.1-775.3h-482.3c-10,0-18.1-8.1-18.1-18.1l0,0c0-10,8.1-18.1,18.1-18.1h482.3
	c10,0,18.1,8.1,18.1,18.1l0,0C272.1-783.4,264-775.3,254.1-775.3z"/>
<text id="XMLID_54_" transform="matrix(1 0 0 1 -225.1104 -785.9258)" style="fill:#8E8E8E; font-family:'Verdana'; font-size:18px;">Search Products</text>
<g>
	<defs>
		<rect id="SVGID_1_" x="358.7" y="-125.1" width="531" height="12"/>
	</defs>
	<clipPath id="SVGID_2_">
		<use xlink:href="#SVGID_1_"  style="overflow:visible;"/>
	</clipPath>
	<polygon class="st4" points="333.9,-76.1 317.4,-78.1 387.5,-219.6 404,-217.6 	"/>
	<polygon class="st4" points="498.9,-55.6 482.4,-57.7 552.5,-199.2 569,-197.1 	"/>
	<polygon class="st5" points="515.4,-53.6 498.9,-55.6 569,-197.1 585.5,-195.1 	"/>
	<polygon class="st4" points="531.9,-51.5 515.4,-53.6 585.5,-195.1 602,-193 	"/>
	<polygon class="st5" points="548.4,-49.5 531.9,-51.5 602,-193 618.5,-191 	"/>
	<polygon class="st4" points="564.9,-47.5 548.4,-49.5 618.5,-191 635,-188.9 	"/>
	<polygon class="st5" points="581.4,-45.4 564.9,-47.5 635,-188.9 651.5,-186.9 	"/>
	<polygon class="st4" points="597.9,-43.4 581.4,-45.4 651.5,-186.9 668,-184.8 	"/>
	<polygon class="st5" points="614.4,-41.3 597.9,-43.4 668,-184.8 684.5,-182.8 	"/>
	<polygon class="st4" points="630.9,-39.3 614.4,-41.3 684.5,-182.8 701,-180.8 	"/>
	<polygon class="st5" points="647.4,-37.2 630.9,-39.3 701,-180.8 717.5,-178.7 	"/>
	<polygon class="st4" points="663.9,-35.2 647.4,-37.2 717.5,-178.7 734,-176.7 	"/>
	<polygon class="st5" points="680.4,-33.1 663.9,-35.2 734,-176.7 750.5,-174.6 	"/>
	<polygon class="st4" points="696.9,-31.1 680.4,-33.1 750.5,-174.6 767,-172.6 	"/>
	<polygon class="st5" points="713.4,-29.1 696.9,-31.1 767,-172.6 783.5,-170.5 	"/>
	<polygon class="st4" points="729.9,-27 713.4,-29.1 783.5,-170.5 800,-168.5 	"/>
	<polygon class="st5" points="746.4,-25 729.9,-27 800,-168.5 816.5,-166.4 	"/>
	<polygon class="st4" points="762.9,-22.9 746.4,-25 816.5,-166.4 833,-164.4 	"/>
	<polygon class="st5" points="779.4,-20.9 762.9,-22.9 833,-164.4 849.5,-162.4 	"/>
	<polygon class="st4" points="795.9,-18.8 779.4,-20.9 849.5,-162.4 866,-160.3 	"/>
	<polygon class="st5" points="812.4,-16.8 795.9,-18.8 866,-160.3 882.5,-158.3 	"/>
	<polygon class="st4" points="828.9,-14.7 812.4,-16.8 882.5,-158.3 899,-156.2 	"/>
</g>
<g>
	<g>
		<defs>
			<rect id="SVGID_3_" x="770.4" y="295.5" width="531" height="12"/>
		</defs>
		<clipPath id="SVGID_4_">
			<use xlink:href="#SVGID_3_"  style="overflow:visible;"/>
		</clipPath>
		<polygon class="st6" points="745.6,344.5 729.1,342.5 799.2,201 815.7,203 		"/>
	</g>
	<g>
		<defs>
			<rect id="SVGID_5_" x="770.4" y="295.5" width="531" height="12"/>
		</defs>
		<clipPath id="SVGID_6_">
			<use xlink:href="#SVGID_5_"  style="overflow:visible;"/>
		</clipPath>
		<polygon class="st7" points="762.1,346.6 745.6,344.5 815.7,203 832.2,205.1 		"/>
	</g>
	<g>
		<defs>
			<rect id="SVGID_7_" x="770.4" y="295.5" width="531" height="12"/>
		</defs>
		<clipPath id="SVGID_8_">
			<use xlink:href="#SVGID_7_"  style="overflow:visible;"/>
		</clipPath>
		<polygon class="st8" points="778.6,348.6 762.1,346.6 832.2,205.1 848.7,207.1 		"/>
	</g>
	<g>
		<defs>
			<rect id="SVGID_9_" x="770.4" y="295.5" width="531" height="12"/>
		</defs>
		<clipPath id="SVGID_10_">
			<use xlink:href="#SVGID_9_"  style="overflow:visible;"/>
		</clipPath>
		<polygon class="st9" points="795.1,350.7 778.6,348.6 848.7,207.1 865.2,209.2 		"/>
	</g>
	<g>
		<defs>
			<rect id="SVGID_11_" x="770.4" y="295.5" width="531" height="12"/>
		</defs>
		<clipPath id="SVGID_12_">
			<use xlink:href="#SVGID_11_"  style="overflow:visible;"/>
		</clipPath>
		<polygon class="st10" points="811.6,352.7 795.1,350.7 865.2,209.2 881.7,211.2 		"/>
	</g>
	<g>
		<defs>
			<rect id="SVGID_13_" x="770.4" y="295.5" width="531" height="12"/>
		</defs>
		<clipPath id="SVGID_14_">
			<use xlink:href="#SVGID_13_"  style="overflow:visible;"/>
		</clipPath>
		<polygon class="st11" points="828.1,354.7 811.6,352.7 881.7,211.2 898.2,213.3 		"/>
	</g>
	<g>
		<defs>
			<rect id="SVGID_15_" x="770.4" y="295.5" width="531" height="12"/>
		</defs>
		<clipPath id="SVGID_16_">
			<use xlink:href="#SVGID_15_"  style="overflow:visible;"/>
		</clipPath>
		<polygon class="st12" points="844.6,356.8 828.1,354.7 898.2,213.3 914.7,215.3 		"/>
	</g>
	<g>
		<defs>
			<rect id="SVGID_17_" x="770.4" y="295.5" width="531" height="12"/>
		</defs>
		<clipPath id="SVGID_18_">
			<use xlink:href="#SVGID_17_"  style="overflow:visible;"/>
		</clipPath>
		<polygon class="st13" points="861.1,358.8 844.6,356.8 914.7,215.3 931.2,217.4 		"/>
	</g>
	<g>
		<defs>
			<rect id="SVGID_19_" x="770.4" y="295.5" width="531" height="12"/>
		</defs>
		<clipPath id="SVGID_20_">
			<use xlink:href="#SVGID_19_"  style="overflow:visible;"/>
		</clipPath>
		<polygon class="st14" points="877.6,360.9 861.1,358.8 931.2,217.4 947.7,219.4 		"/>
	</g>
	<g>
		<defs>
			<rect id="SVGID_21_" x="770.4" y="295.5" width="531" height="12"/>
		</defs>
		<clipPath id="SVGID_22_">
			<use xlink:href="#SVGID_21_"  style="overflow:visible;"/>
		</clipPath>
		<polygon class="st15" points="894.1,362.9 877.6,360.9 947.7,219.4 964.2,221.4 		"/>
	</g>
	<g>
		<defs>
			<rect id="SVGID_23_" x="770.4" y="295.5" width="531" height="12"/>
		</defs>
		<clipPath id="SVGID_24_">
			<use xlink:href="#SVGID_23_"  style="overflow:visible;"/>
		</clipPath>
		<polygon class="st16" points="910.6,365 894.1,362.9 964.2,221.4 980.7,223.5 		"/>
	</g>
	<g>
		<defs>
			<rect id="SVGID_25_" x="770.4" y="295.5" width="531" height="12"/>
		</defs>
		<clipPath id="SVGID_26_">
			<use xlink:href="#SVGID_25_"  style="overflow:visible;"/>
		</clipPath>
		<polygon class="st17" points="927.1,367 910.6,365 980.7,223.5 997.2,225.5 		"/>
	</g>
	<g>
		<defs>
			<rect id="SVGID_27_" x="770.4" y="295.5" width="531" height="12"/>
		</defs>
		<clipPath id="SVGID_28_">
			<use xlink:href="#SVGID_27_"  style="overflow:visible;"/>
		</clipPath>
		<polygon class="st18" points="943.6,369.1 927.1,367 997.2,225.5 1013.7,227.6 		"/>
	</g>
	<g>
		<defs>
			<rect id="SVGID_29_" x="770.4" y="295.5" width="531" height="12"/>
		</defs>
		<clipPath id="SVGID_30_">
			<use xlink:href="#SVGID_29_"  style="overflow:visible;"/>
		</clipPath>
		<polygon class="st19" points="960.1,371.1 943.6,369.1 1013.7,227.6 1030.2,229.6 		"/>
	</g>
	<g>
		<defs>
			<rect id="SVGID_31_" x="770.4" y="295.5" width="531" height="12"/>
		</defs>
		<clipPath id="SVGID_32_">
			<use xlink:href="#SVGID_31_"  style="overflow:visible;"/>
		</clipPath>
		<polygon class="st20" points="976.6,373.1 960.1,371.1 1030.2,229.6 1046.7,231.7 		"/>
	</g>
	<g>
		<defs>
			<rect id="SVGID_33_" x="770.4" y="295.5" width="531" height="12"/>
		</defs>
		<clipPath id="SVGID_34_">
			<use xlink:href="#SVGID_33_"  style="overflow:visible;"/>
		</clipPath>
		<polygon class="st21" points="993.1,375.2 976.6,373.1 1046.7,231.7 1063.2,233.7 		"/>
	</g>
	<g>
		<defs>
			<rect id="SVGID_35_" x="770.4" y="295.5" width="531" height="12"/>
		</defs>
		<clipPath id="SVGID_36_">
			<use xlink:href="#SVGID_35_"  style="overflow:visible;"/>
		</clipPath>
		<polygon class="st22" points="1009.6,377.2 993.1,375.2 1063.2,233.7 1079.7,235.8 		"/>
	</g>
	<g>
		<defs>
			<rect id="SVGID_37_" x="770.4" y="295.5" width="531" height="12"/>
		</defs>
		<clipPath id="SVGID_38_">
			<use xlink:href="#SVGID_37_"  style="overflow:visible;"/>
		</clipPath>
		<polygon class="st23" points="1026.1,379.3 1009.6,377.2 1079.7,235.8 1096.2,237.8 		"/>
	</g>
	<g>
		<defs>
			<rect id="SVGID_39_" x="770.4" y="295.5" width="531" height="12"/>
		</defs>
		<clipPath id="SVGID_40_">
			<use xlink:href="#SVGID_39_"  style="overflow:visible;"/>
		</clipPath>
		<polygon class="st24" points="1042.6,381.3 1026.1,379.3 1096.2,237.8 1112.7,239.8 		"/>
	</g>
	<g>
		<defs>
			<rect id="SVGID_41_" x="770.4" y="295.5" width="531" height="12"/>
		</defs>
		<clipPath id="SVGID_42_">
			<use xlink:href="#SVGID_41_"  style="overflow:visible;"/>
		</clipPath>
		<polygon class="st25" points="1059.1,383.4 1042.6,381.3 1112.7,239.8 1129.2,241.9 		"/>
	</g>
	<g>
		<defs>
			<rect id="SVGID_43_" x="770.4" y="295.5" width="531" height="12"/>
		</defs>
		<clipPath id="SVGID_44_">
			<use xlink:href="#SVGID_43_"  style="overflow:visible;"/>
		</clipPath>
		<polygon class="st26" points="1075.6,385.4 1059.1,383.4 1129.2,241.9 1145.7,243.9 		"/>
	</g>
	<g>
		<defs>
			<rect id="SVGID_45_" x="770.4" y="295.5" width="531" height="12"/>
		</defs>
		<clipPath id="SVGID_46_">
			<use xlink:href="#SVGID_45_"  style="overflow:visible;"/>
		</clipPath>
		<polygon class="st27" points="1092.1,387.5 1075.6,385.4 1145.7,243.9 1162.2,246 		"/>
	</g>
	<g>
		<defs>
			<rect id="SVGID_47_" x="770.4" y="295.5" width="531" height="12"/>
		</defs>
		<clipPath id="SVGID_48_">
			<use xlink:href="#SVGID_47_"  style="overflow:visible;"/>
		</clipPath>
		<polygon class="st28" points="1108.6,389.5 1092.1,387.5 1162.2,246 1178.7,248 		"/>
	</g>
	<g>
		<defs>
			<rect id="SVGID_49_" x="770.4" y="295.5" width="531" height="12"/>
		</defs>
		<clipPath id="SVGID_50_">
			<use xlink:href="#SVGID_49_"  style="overflow:visible;"/>
		</clipPath>
		<polygon class="st29" points="1125.1,391.5 1108.6,389.5 1178.7,248 1195.2,250.1 		"/>
	</g>
	<g>
		<defs>
			<rect id="SVGID_51_" x="770.4" y="295.5" width="531" height="12"/>
		</defs>
		<clipPath id="SVGID_52_">
			<use xlink:href="#SVGID_51_"  style="overflow:visible;"/>
		</clipPath>
		<polygon class="st30" points="1141.6,393.6 1125.1,391.5 1195.2,250.1 1211.7,252.1 		"/>
	</g>
	<g>
		<defs>
			<rect id="SVGID_53_" x="770.4" y="295.5" width="531" height="12"/>
		</defs>
		<clipPath id="SVGID_54_">
			<use xlink:href="#SVGID_53_"  style="overflow:visible;"/>
		</clipPath>
		<polygon class="st31" points="1158.1,395.6 1141.6,393.6 1211.7,252.1 1228.2,254.2 		"/>
	</g>
	<g>
		<defs>
			<rect id="SVGID_55_" x="770.4" y="295.5" width="531" height="12"/>
		</defs>
		<clipPath id="SVGID_56_">
			<use xlink:href="#SVGID_55_"  style="overflow:visible;"/>
		</clipPath>
		<polygon class="st32" points="1174.6,397.7 1158.1,395.6 1228.2,254.2 1244.7,256.2 		"/>
	</g>
	<g>
		<defs>
			<rect id="SVGID_57_" x="770.4" y="295.5" width="531" height="12"/>
		</defs>
		<clipPath id="SVGID_58_">
			<use xlink:href="#SVGID_57_"  style="overflow:visible;"/>
		</clipPath>
		<polygon class="st33" points="1191.1,399.7 1174.6,397.7 1244.7,256.2 1261.2,258.2 		"/>
	</g>
	<g>
		<defs>
			<rect id="SVGID_59_" x="770.4" y="295.5" width="531" height="12"/>
		</defs>
		<clipPath id="SVGID_60_">
			<use xlink:href="#SVGID_59_"  style="overflow:visible;"/>
		</clipPath>
		<polygon class="st34" points="1207.6,401.8 1191.1,399.7 1261.2,258.2 1277.7,260.3 		"/>
	</g>
	<g>
		<defs>
			<rect id="SVGID_61_" x="770.4" y="295.5" width="531" height="12"/>
		</defs>
		<clipPath id="SVGID_62_">
			<use xlink:href="#SVGID_61_"  style="overflow:visible;"/>
		</clipPath>
		<polygon class="st35" points="1224.1,403.8 1207.6,401.8 1277.7,260.3 1294.2,262.3 		"/>
	</g>
	<g>
		<defs>
			<rect id="SVGID_63_" x="770.4" y="295.5" width="531" height="12"/>
		</defs>
		<clipPath id="SVGID_64_">
			<use xlink:href="#SVGID_63_"  style="overflow:visible;"/>
		</clipPath>
		<polygon class="st36" points="1240.6,405.9 1224.1,403.8 1294.2,262.3 1310.7,264.4 		"/>
	</g>
	<g>
		<defs>
			<rect id="SVGID_65_" x="770.4" y="295.5" width="531" height="12"/>
		</defs>
		<clipPath id="SVGID_66_">
			<use xlink:href="#SVGID_65_"  style="overflow:visible;"/>
		</clipPath>
		<polygon class="st37" points="1257.1,407.9 1240.6,405.9 1310.7,264.4 1327.2,266.4 		"/>
	</g>
</g>
<g>
	<path id="XMLID_65_" class="st38" d="M942.3,118.5H633.5c-21.2,0-38.5-17.2-38.5-38.5l0,0c0.1-21.3,17.3-38.5,38.5-38.5h308.7
		c21.2,0,38.5,17.2,38.5,38.5l0,0C980.7,101.2,963.5,118.5,942.3,118.5z"/>
	<g id="XMLID_29_">
		<path id="XMLID_63_" class="st2" d="M627.2,98v-7.2h3.6V69.1h-3.6v-7.2h16.9l5.6,14.9l5.4-14.9h17v7.2h-3.7v21.7h3.7V98h-16.6
			v-7.2h3.8v-20l-7.4,19.6h-4.5L640,70.8v20h3.9V98C643.9,98,627.2,98,627.2,98z"/>
		<path id="XMLID_60_" class="st2" d="M673.4,98v-7.2h3.1l6.7-21.7h-3.6v-7.2h25.5v7.2h-3.5l6.7,21.7h3.1V98h-15.8v-7.2h3.2
			l-1.4-4.9h-10l-1.3,4.9h3.2V98H673.4z M688.9,79.5h7L692.4,68L688.9,79.5z"/>
		<path id="XMLID_58_" class="st2" d="M739.7,84.8h-4.6v-6.7h18.3v6.7h-3.3V98h-7.7v-4.7c-1.5,1.8-3.2,3.2-5.1,4.1
			c-1.9,0.9-4,1.3-6.4,1.3c-2.2,0-4.4-0.4-6.5-1.2c-2.1-0.8-3.9-1.9-5.5-3.4c-2-1.8-3.6-4-4.7-6.4c-1.1-2.5-1.6-5.1-1.6-7.8
			c0-2.9,0.5-5.5,1.6-8c1.1-2.4,2.7-4.5,4.8-6.4c1.6-1.4,3.5-2.5,5.6-3.3c2.1-0.8,4.2-1.2,6.5-1.2c1.9,0,3.6,0.3,5.1,0.8
			c1.5,0.6,2.8,1.4,3.9,2.5l-0.1-2.6h8.4v12.8h-9.1c-0.6-1.6-1.6-2.7-2.8-3.5c-1.2-0.8-2.7-1.2-4.5-1.2c-2.7,0-5,1-6.8,2.9
			c-1.8,1.9-2.6,4.3-2.6,7.3s0.9,5.5,2.6,7.3c1.7,1.8,4,2.8,6.8,2.8c1.7,0,3.3-0.4,4.6-1.3C737.9,87.8,739,86.5,739.7,84.8z"/>
		<path id="XMLID_55_" class="st2" d="M755.1,98v-7.2h3.7V69.1h-3.7v-7.2H772v7.2h-3.8v21.7h3.8V98C772,98,755.1,98,755.1,98z"/>
		<path id="XMLID_48_" class="st2" d="M802.5,84.8h10.1c-1.3,4.3-3.6,7.8-7,10.3c-3.4,2.5-7.3,3.7-11.8,3.7c-2.5,0-4.8-0.4-7-1.2
			s-4.1-1.9-5.8-3.4c-2.1-1.9-3.7-4-4.8-6.4c-1.1-2.4-1.7-5-1.7-7.8c0-2.8,0.5-5.4,1.6-7.8c1.1-2.4,2.7-4.5,4.8-6.4
			c1.7-1.5,3.7-2.6,5.8-3.4s4.5-1.2,7-1.2c2,0,3.8,0.3,5.5,1s3.1,1.6,4.4,2.9v-3.2h8.4v13.9h-9.1c-0.8-1.9-1.9-3.4-3.4-4.4
			s-3.3-1.5-5.4-1.5c-2.9,0-5.2,0.9-7,2.8c-1.8,1.9-2.7,4.3-2.7,7.3c0,2.9,0.9,5.3,2.7,7.2c1.8,1.9,4,2.8,6.7,2.8
			c2,0,3.7-0.4,5.1-1.3C800.3,87.9,801.5,86.5,802.5,84.8z"/>
		<path id="XMLID_38_" class="st2" d="M827.8,98v-7.2h3.7V69.1h-3.7v-7.2h17.8c3.8,0,6.7,0.8,8.8,2.5c2.1,1.7,3.1,4,3.1,7.1
			c0,1.9-0.6,3.4-1.7,4.7c-1.1,1.2-2.8,2.2-5.1,2.8c2.8,0.6,4.9,1.7,6.2,3.1c1.3,1.4,1.9,3.4,1.9,5.9c0,3.3-1,5.8-3,7.5
			s-4.9,2.6-8.7,2.6L827.8,98L827.8,98z M840.9,76.2h2.9c1.5,0,2.6-0.3,3.3-0.9c0.7-0.6,1.1-1.5,1.1-2.6c0-1.2-0.4-2.1-1.1-2.6
			c-0.7-0.6-1.9-0.9-3.3-0.9h-2.9V76.2z M840.9,90.8h2.9c1.7,0,3.1-0.4,3.9-1.1c0.9-0.7,1.3-1.8,1.3-3.2s-0.4-2.5-1.3-3.2
			c-0.9-0.7-2.2-1.1-3.9-1.1h-2.9V90.8z"/>
		<path id="XMLID_35_" class="st2" d="M860,98v-7.2h3.1l6.7-21.7h-3.6v-7.2h25.5v7.2h-3.5l6.7,21.7h3.1V98h-15.8v-7.2h3.2l-1.4-4.9
			h-9.9l-1.3,4.9h3.2V98H860z M875.5,79.5h7L879,68L875.5,79.5z"/>
		<path id="XMLID_32_" class="st2" d="M899.2,98v-7.2h3.7V69.1h-3.7v-7.2h16.9v7.2h-3.8v21.7h3.8V98C916.1,98,899.2,98,899.2,98z"/>
		<path id="XMLID_30_" class="st2" d="M925,98v-7.2h3.7V69h-2.9l-1.9,5.7h-5.8V61.9h30.5v12.8h-5.8L941,69h-2.9v21.8h3.7V98H925z"/>
	</g>
</g>
<g>
	<path d="M775.6,341.3v-3.8h1.9v-11.3H776l-1,3h-3v-6.7h15.8v6.7h-3l-1-3h-1.5v11.3h1.9v3.8H775.6z"/>
	<path d="M788.9,341.3v-3.8h1.9v-11.3h-1.9v-3.8h16.8v6.8h-3.2l-1.1-3h-5.6v3.1h3.7v4.2h-3.7v4h5.6l1.1-3.7h3.3v7.4L788.9,341.3
		L788.9,341.3z"/>
	<path d="M812.1,339.4l0.1,2h-4.1V335h4.4c0.7,1,1.4,1.7,2.1,2.2c0.6,0.4,1.3,0.6,2.1,0.6c0.6,0,1.1-0.2,1.5-0.5
		c0.4-0.3,0.6-0.7,0.6-1.2s-0.2-0.8-0.6-1.1c-0.4-0.3-0.9-0.5-1.7-0.6l-2-0.3c-2.2-0.4-3.8-1-4.9-2c-1.1-1-1.6-2.3-1.6-3.9
		c0-1.7,0.6-3.1,1.8-4.2c1.2-1.1,2.7-1.7,4.5-1.7c1,0,1.8,0.2,2.5,0.5c0.7,0.3,1.4,0.9,1.9,1.6l-0.1-1.7h4.1v5.9h-4.1
		c-0.5-0.9-1.1-1.6-1.6-2c-0.6-0.4-1.2-0.7-1.8-0.7s-1.1,0.2-1.4,0.5c-0.4,0.3-0.6,0.7-0.6,1.2s0.2,0.8,0.6,1.1
		c0.4,0.3,1.1,0.5,2,0.7l1.7,0.3c2.2,0.4,3.8,1.1,4.8,2.1s1.6,2.2,1.6,3.8c0,1.9-0.6,3.4-1.8,4.5c-1.2,1.1-2.7,1.7-4.7,1.7
		c-1.1,0-2.1-0.2-3-0.6C813.6,340.7,812.8,340.1,812.1,339.4z"/>
	<path d="M828.7,341.3v-3.8h1.9v-11.3h-1.5l-1,3h-3v-6.7h15.8v6.7h-3l-1-3h-1.4v11.3h1.9v3.8H828.7z"/>
	<path d="M842.1,341.3v-3.8h1.9v-11.3h-1.9v-3.8h16.8v6.8h-3.3l-1.1-3h-5.6v3.1h3.7v4.2h-3.7v4h5.6l1.1-3.7h3.3v7.4L842.1,341.3
		L842.1,341.3z"/>
	<path d="M860.6,341.3v-3.8h1.9v-11.3h-1.9v-3.8h8.9c1.3,0,2.4,0.1,3.4,0.2c0.9,0.2,1.7,0.4,2.3,0.7c1.7,0.9,2.9,2,3.7,3.4
		c0.8,1.4,1.2,3.1,1.2,5.1s-0.4,3.7-1.2,5.1c-0.8,1.4-2,2.5-3.7,3.4c-0.6,0.3-1.3,0.5-2.3,0.7c-0.9,0.2-2.1,0.2-3.4,0.2h-8.9V341.3z
		 M867.5,326.3v11.3h1.5c1.9,0,3.4-0.5,4.4-1.4c1-1,1.5-2.4,1.5-4.2c0-1.9-0.5-3.3-1.5-4.2c-1-1-2.5-1.4-4.4-1.4h-1.5V326.3z"/>
	<path d="M884.3,341.6c-0.7,0-1.4-0.3-1.9-0.8s-0.8-1.1-0.8-1.9c0-0.7,0.3-1.4,0.8-1.9s1.1-0.8,1.9-0.8c0.7,0,1.4,0.2,1.9,0.7
		s0.8,1.1,0.8,1.9s-0.3,1.4-0.8,1.9C885.7,341.4,885,341.6,884.3,341.6z"/>
	<path d="M895.8,341.3v-3.8h1.9v-11.3h-1.9v-3.8h9.6c2,0,3.5,0.5,4.7,1.6c1.1,1.1,1.7,2.5,1.7,4.3c0,1.8-0.6,3.3-1.7,4.3
		c-1.1,1.1-2.7,1.6-4.7,1.6h-2.8v3.1h2v3.8h-8.8V341.3z M902.6,326.3v4.6h1.3c1,0,1.8-0.2,2.3-0.6c0.5-0.4,0.8-1,0.8-1.7
		c0-0.8-0.3-1.4-0.8-1.7c-0.5-0.4-1.3-0.6-2.3-0.6C903.9,326.3,902.6,326.3,902.6,326.3z"/>
	<path d="M912.9,341.3v-3.8h1.9v-11.3h-1.9v-3.8h11.6c1.5,0,2.6,0.5,3.6,1.4c0.9,0.9,1.4,2.1,1.4,3.5c0,1-0.3,1.9-0.8,2.6
		s-1.3,1.2-2.4,1.6c0.9,0.3,1.5,0.6,1.9,1c0.3,0.4,0.5,1,0.5,1.7v3.3h1.7v3.8h-6.6v-4.4c0-1.6-0.2-2.6-0.5-3c-0.4-0.4-1-0.6-2-0.6
		h-1.5v4.2h1.5v3.8H912.9z M919.7,326.3v4h1.9c0.9,0,1.5-0.2,2-0.5c0.4-0.3,0.6-0.8,0.6-1.5c0-0.7-0.2-1.2-0.6-1.5
		c-0.4-0.3-1.1-0.5-2-0.5H919.7z"/>
	<path d="M931.3,331.9c0-1.5,0.3-2.8,0.9-4.1c0.6-1.2,1.4-2.4,2.5-3.3c0.9-0.8,1.9-1.4,3-1.8c1.1-0.4,2.3-0.6,3.6-0.6
		c1.3,0,2.5,0.2,3.6,0.6c1.1,0.4,2.1,1,3,1.8c1.1,1,1.9,2.1,2.5,3.3c0.6,1.3,0.9,2.6,0.9,4.1c0,1.4-0.3,2.8-0.9,4
		c-0.6,1.3-1.4,2.4-2.5,3.3c-0.9,0.8-1.9,1.4-3,1.8c-1.1,0.4-2.3,0.6-3.6,0.6c-1.3,0-2.5-0.2-3.6-0.6c-1.1-0.4-2.1-1-3-1.8
		c-1.1-1-1.9-2.1-2.5-3.3S931.3,333.4,931.3,331.9z M936.5,331.9c0,1.5,0.5,2.7,1.4,3.7c0.9,1,2.1,1.5,3.5,1.5
		c1.4,0,2.6-0.5,3.5-1.5c0.9-1,1.4-2.2,1.4-3.7s-0.5-2.8-1.4-3.8c-0.9-1-2.1-1.5-3.5-1.5c-1.4,0-2.6,0.5-3.5,1.5
		C936.9,329.2,936.5,330.4,936.5,331.9z"/>
	<path d="M958.3,341.3l-5-15h-1.5v-3.8h7.9v3.8H958l2.7,9.2l2.7-9.2h-1.7v-3.8h7.8v3.8H968l-5,15H958.3z"/>
	<path d="M970.3,341.3v-3.8h1.9v-11.3h-1.9v-3.8h16.8v6.8h-3.3l-1.1-3h-5.6v3.1h3.7v4.2h-3.7v4h5.6l1.1-3.7h3.3v7.4L970.3,341.3
		L970.3,341.3z"/>
	<path d="M988.9,341.3v-3.8h1.9v-11.3h-1.9v-3.8h6.7l6.3,10.4l-0.2-6.6h-2v-3.8h8.6v3.8h-1.9v15h-4.1l-6.9-11.3l0.1,7.6h2v3.8H988.9
		z"/>
	<path d="M1012.2,341.6c-0.7,0-1.4-0.3-1.9-0.8s-0.8-1.1-0.8-1.9c0-0.7,0.3-1.4,0.8-1.9s1.1-0.8,1.9-0.8c0.7,0,1.4,0.2,1.9,0.7
		s0.8,1.1,0.8,1.9s-0.3,1.4-0.8,1.9C1013.6,341.4,1012.9,341.6,1012.2,341.6z"/>
	<path d="M1027,341.3v-3.8h1.9v-11.3h-1.5l-1,3h-3v-6.7h15.8v6.7h-3l-1-3h-1.5v11.3h1.9v3.8H1027z"/>
	<path d="M1040.4,341.3v-3.8h1.9v-11.3h-1.9v-3.8h11.6c1.5,0,2.6,0.5,3.6,1.4c0.9,0.9,1.4,2.1,1.4,3.5c0,1-0.3,1.9-0.8,2.6
		s-1.3,1.2-2.4,1.6c0.9,0.3,1.5,0.6,1.9,1c0.3,0.4,0.5,1,0.5,1.7v3.3h1.7v3.8h-6.6v-4.4c0-1.6-0.2-2.6-0.5-3c-0.4-0.4-1-0.6-2-0.6
		h-1.5v4.2h1.5v3.8H1040.4z M1047.2,326.3v4h1.9c0.9,0,1.5-0.2,2-0.5c0.4-0.3,0.6-0.8,0.6-1.5c0-0.7-0.2-1.2-0.6-1.5
		c-0.4-0.3-1.1-0.5-2-0.5H1047.2z"/>
	<path d="M1060.2,334.8v-8.5h-1.9v-3.8h8.8v3.8h-2v7.9c0,1,0.3,1.7,0.8,2.2s1.2,0.8,2.2,0.8s1.7-0.3,2.2-0.8s0.8-1.3,0.8-2.2v-7.9
		h-2v-3.8h8.7v3.8h-1.9v8.5c0,2.1-0.7,3.8-2.1,5s-3.3,1.8-5.7,1.8c-2.4,0-4.3-0.6-5.7-1.8C1060.9,338.6,1060.2,336.9,1060.2,334.8z"
		/>
	<path d="M1083.1,339.4l0.1,2h-4.1V335h4.4c0.7,1,1.4,1.7,2.1,2.2c0.6,0.4,1.3,0.6,2.1,0.6c0.6,0,1.1-0.2,1.5-0.5
		c0.4-0.3,0.6-0.7,0.6-1.2s-0.2-0.8-0.6-1.1c-0.4-0.3-0.9-0.5-1.7-0.6l-2-0.3c-2.2-0.4-3.8-1-4.9-2c-1.1-1-1.6-2.3-1.6-3.9
		c0-1.7,0.6-3.1,1.8-4.2c1.2-1.1,2.7-1.7,4.5-1.7c1,0,1.8,0.2,2.5,0.5c0.7,0.3,1.4,0.9,1.9,1.6l-0.1-1.7h4.1v5.9h-4.1
		c-0.5-0.9-1.1-1.6-1.6-2c-0.6-0.4-1.2-0.7-1.8-0.7s-1.1,0.2-1.4,0.5c-0.4,0.3-0.6,0.7-0.6,1.2s0.2,0.8,0.6,1.1
		c0.4,0.3,1.1,0.5,2,0.7l1.7,0.3c2.2,0.4,3.8,1.1,4.8,2.1s1.6,2.2,1.6,3.8c0,1.9-0.6,3.4-1.8,4.5c-1.2,1.1-2.7,1.7-4.7,1.7
		c-1.1,0-2.1-0.2-3-0.6C1084.6,340.7,1083.8,340.1,1083.1,339.4z"/>
	<path d="M1099.8,341.3v-3.8h1.9v-11.3h-1.5l-1,3h-3v-6.7h15.8v6.7h-3l-1-3h-1.5v11.3h1.9v3.8H1099.8z"/>
	<path d="M1113.1,341.3v-3.8h1.9v-11.3h-1.9v-3.8h16.8v6.8h-3.3l-1.1-3h-5.6v3.1h3.7v4.2h-3.7v4h5.6l1.1-3.7h3.3v7.4L1113.1,341.3
		L1113.1,341.3z"/>
	<path d="M1131.6,341.3v-3.8h1.9v-11.3h-1.9v-3.8h8.9c1.3,0,2.4,0.1,3.4,0.2c0.9,0.2,1.7,0.4,2.3,0.7c1.7,0.9,2.9,2,3.7,3.4
		c0.8,1.4,1.2,3.1,1.2,5.1s-0.4,3.7-1.2,5.1s-2,2.5-3.7,3.4c-0.6,0.3-1.3,0.5-2.3,0.7c-0.9,0.2-2.1,0.2-3.4,0.2h-8.9V341.3z
		 M1138.5,326.3v11.3h1.5c1.9,0,3.4-0.5,4.4-1.4s1.5-2.4,1.5-4.2c0-1.9-0.5-3.3-1.5-4.2c-1-1-2.5-1.4-4.4-1.4h-1.5V326.3z"/>
	<path d="M1155.3,341.6c-0.7,0-1.4-0.3-1.9-0.8s-0.8-1.1-0.8-1.9c0-0.7,0.3-1.4,0.8-1.9s1.1-0.8,1.9-0.8c0.7,0,1.4,0.2,1.9,0.7
		s0.8,1.1,0.8,1.9s-0.3,1.4-0.8,1.9C1156.7,341.4,1156.1,341.6,1155.3,341.6z"/>
</g>
<g>
	<g>
		<path d="M30.9,393.9v-3.8h1.9v-11.3h-1.5l-1,3h-3v-6.7h15.8v6.7h-3l-1-3h-1.5v11.3h1.9v3.8H30.9z"/>
		<path d="M44.1,393.9v-3.8h1.9v-11.3h-1.9V375h16.8v6.8h-3.3l-1.1-3H51v3.1h3.7v4.2H51v4h5.6l1.1-3.7h3.3v7.4H44.1V393.9z"/>
		<path d="M67.3,392l0.1,2h-4.1v-6.4h4.4c0.7,1,1.4,1.7,2.1,2.2c0.6,0.4,1.3,0.6,2.1,0.6c0.6,0,1.1-0.2,1.5-0.5s0.6-0.7,0.6-1.2
			s-0.2-0.8-0.6-1.1c-0.4-0.3-0.9-0.5-1.7-0.6l-2-0.3c-2.2-0.4-3.8-1-4.9-2c-1.1-1-1.6-2.3-1.6-3.9c0-1.7,0.6-3.1,1.8-4.2
			s2.7-1.7,4.5-1.7c1,0,1.8,0.2,2.5,0.5c0.7,0.3,1.4,0.9,1.9,1.6l-0.1-1.7h4.1v5.9h-4.1c-0.5-0.9-1.1-1.6-1.6-2
			c-0.6-0.4-1.2-0.7-1.8-0.7s-1.1,0.2-1.4,0.5c-0.4,0.3-0.6,0.7-0.6,1.2s0.2,0.8,0.6,1.1c0.4,0.3,1.1,0.5,2,0.7l1.7,0.3
			c2.2,0.4,3.8,1.1,4.8,2.1s1.6,2.2,1.6,3.8c0,1.9-0.6,3.4-1.8,4.5s-2.7,1.7-4.7,1.7c-1.1,0-2.1-0.2-3-0.6
			C68.8,393.3,67.9,392.7,67.3,392z"/>
		<path d="M83.9,393.9v-3.8h1.9v-11.3h-1.5l-1,3h-3v-6.7h15.8v6.7h-3l-1-3h-1.5v11.3h1.9v3.8H83.9z"/>
		<path d="M97.3,393.9v-3.8h1.9v-11.3h-1.9V375h16.8v6.8h-3.3l-1.1-3h-5.6v3.1h3.7v4.2h-3.7v4h5.6l1.1-3.7h3.3v7.4H97.3V393.9z"/>
		<path d="M115.8,393.9v-3.8h1.9v-11.3h-1.9V375h8.9c1.3,0,2.4,0.1,3.4,0.2c0.9,0.2,1.7,0.4,2.3,0.7c1.7,0.9,2.9,2,3.7,3.4
			s1.2,3.1,1.2,5.1s-0.4,3.7-1.2,5.1c-0.8,1.4-2,2.5-3.7,3.4c-0.6,0.3-1.3,0.5-2.3,0.7c-0.9,0.2-2.1,0.2-3.4,0.2h-8.9V393.9z
			 M122.8,378.9v11.3h1.5c1.9,0,3.4-0.5,4.4-1.4c1-1,1.5-2.4,1.5-4.2c0-1.9-0.5-3.3-1.5-4.2c-1-1-2.5-1.4-4.4-1.4h-1.5V378.9z"/>
		<path d="M139.4,394.2c-0.7,0-1.4-0.3-1.9-0.8s-0.8-1.1-0.8-1.9c0-0.7,0.3-1.4,0.8-1.9s1.1-0.8,1.9-0.8c0.7,0,1.4,0.2,1.9,0.7
			s0.8,1.1,0.8,1.9c0,0.8-0.3,1.4-0.8,1.9C140.9,394,140.3,394.2,139.4,394.2z"/>
		<path d="M151,393.9v-3.8h1.9v-11.3H151V375h9.6c2,0,3.5,0.5,4.7,1.6c1.1,1.1,1.7,2.5,1.7,4.3s-0.6,3.3-1.7,4.3
			c-1.1,1.1-2.7,1.6-4.7,1.6h-2.8v3.1h2v3.8H151V393.9z M157.8,378.9v4.6h1.3c1,0,1.8-0.2,2.3-0.6s0.8-1,0.8-1.7
			c0-0.8-0.3-1.4-0.8-1.7c-0.5-0.4-1.3-0.6-2.3-0.6C159,378.9,157.8,378.9,157.8,378.9z"/>
		<path d="M168.1,393.9v-3.8h1.9v-11.3h-1.9V375h11.6c1.5,0,2.6,0.5,3.6,1.4c0.9,0.9,1.4,2.1,1.4,3.5c0,1-0.3,1.9-0.8,2.6
			c-0.5,0.7-1.3,1.2-2.4,1.6c0.9,0.3,1.5,0.6,1.9,1c0.3,0.4,0.5,1,0.5,1.7v3.3h1.7v3.8h-6.6v-4.4c0-1.6-0.2-2.6-0.5-3
			c-0.3-0.4-1-0.6-2-0.6h-1.5v4.2h1.5v3.8H168.1L168.1,393.9z M175,378.9v4h1.9c0.9,0,1.5-0.2,2-0.5c0.4-0.3,0.6-0.8,0.6-1.5
			c0-0.7-0.2-1.2-0.6-1.5c-0.4-0.3-1.1-0.5-2-0.5H175z"/>
		<path d="M186.6,384.5c0-1.5,0.3-2.8,0.9-4.1c0.6-1.2,1.4-2.4,2.5-3.3c0.9-0.8,1.9-1.4,3-1.8c1.1-0.4,2.3-0.6,3.6-0.6
			c1.3,0,2.5,0.2,3.6,0.6c1.1,0.4,2.1,1,3,1.8c1.1,1,1.9,2.1,2.5,3.3c0.6,1.3,0.9,2.6,0.9,4.1c0,1.4-0.3,2.8-0.9,4
			c-0.6,1.3-1.4,2.4-2.5,3.3c-0.9,0.8-1.9,1.4-3,1.8c-1.1,0.4-2.3,0.6-3.6,0.6c-1.3,0-2.5-0.2-3.6-0.6s-2.1-1-3-1.8
			c-1.1-1-1.9-2.1-2.5-3.3C186.8,387.3,186.6,386,186.6,384.5z M191.6,384.5c0,1.5,0.5,2.7,1.4,3.7s2.1,1.5,3.5,1.5s2.6-0.5,3.5-1.5
			s1.4-2.2,1.4-3.7s-0.5-2.8-1.4-3.8s-2.1-1.5-3.5-1.5s-2.6,0.5-3.5,1.5C192.1,381.8,191.6,383,191.6,384.5z"/>
		<path d="M213.5,393.9l-5-15H207v-3.8h7.9v3.8h-1.7l2.7,9.2l2.7-9.2h-1.7v-3.8h7.8v3.8h-1.5l-5,15H213.5z"/>
		<path d="M225.5,393.9v-3.8h1.9v-11.3h-1.9V375h16.8v6.8H239l-1.1-3h-5.6v3.1h3.7v4.2h-3.7v4h5.6l1.1-3.7h3.3v7.4h-16.8V393.9z"/>
		<path d="M244.1,393.9v-3.8h1.9v-11.3h-1.9V375h6.7l6.3,10.4l-0.2-6.6h-2V375h8.6v3.8h-1.9v15h-4.1l-6.9-11.3l0.1,7.6h2v3.8H244.1
			L244.1,393.9z"/>
		<path d="M267.4,394.2c-0.7,0-1.4-0.3-1.9-0.8s-0.8-1.1-0.8-1.9c0-0.7,0.3-1.4,0.8-1.9s1.1-0.8,1.9-0.8c0.7,0,1.4,0.2,1.9,0.7
			s0.8,1.1,0.8,1.9c0,0.8-0.3,1.4-0.8,1.9C268.8,394,268.1,394.2,267.4,394.2z"/>
		<path d="M282.3,393.9v-3.8h1.9v-11.3h-1.5l-1,3h-3v-6.7h15.8v6.7h-3l-1-3h-1.5v11.3h1.9v3.8H282.3z"/>
		<path d="M295.6,393.9v-3.8h1.9v-11.3h-1.9V375h11.6c1.5,0,2.6,0.5,3.6,1.4c0.9,0.9,1.4,2.1,1.4,3.5c0,1-0.3,1.9-0.8,2.6
			c-0.5,0.7-1.3,1.2-2.4,1.6c0.9,0.3,1.5,0.6,1.9,1c0.3,0.4,0.5,1,0.5,1.7v3.3h1.7v3.8h-6.6v-4.4c0-1.6-0.2-2.6-0.5-3
			c-0.3-0.4-1-0.6-2-0.6h-1.5v4.2h1.5v3.8H295.6L295.6,393.9z M302.4,378.9v4h1.9c0.9,0,1.5-0.2,2-0.5c0.4-0.3,0.6-0.8,0.6-1.5
			c0-0.7-0.2-1.2-0.6-1.5c-0.4-0.3-1.1-0.5-2-0.5H302.4z"/>
		<path d="M315.4,387.4v-8.5h-1.9v-3.8h8.8v3.8h-2v7.9c0,1,0.3,1.7,0.8,2.2s1.2,0.8,2.2,0.8s1.7-0.3,2.2-0.8s0.8-1.3,0.8-2.2v-7.9
			h-2v-3.8h8.7v3.8h-1.9v8.5c0,2.1-0.7,3.8-2.1,5c-1.4,1.2-3.3,1.8-5.7,1.8c-2.4,0-4.3-0.6-5.7-1.8
			C316.1,391.2,315.4,389.5,315.4,387.4z"/>
		<path d="M338.3,392l0.1,2h-4.1v-6.4h4.4c0.7,1,1.4,1.7,2.1,2.2c0.6,0.4,1.3,0.6,2.1,0.6c0.6,0,1.1-0.2,1.5-0.5s0.6-0.7,0.6-1.2
			s-0.2-0.8-0.6-1.1c-0.4-0.3-0.9-0.5-1.7-0.6l-2-0.3c-2.2-0.4-3.8-1-4.9-2s-1.6-2.3-1.6-3.9c0-1.7,0.6-3.1,1.8-4.2
			c1.2-1.1,2.7-1.7,4.5-1.7c1,0,1.8,0.2,2.5,0.5c0.7,0.3,1.4,0.9,1.9,1.6l-0.1-1.7h4.1v5.9h-4.1c-0.5-0.9-1.1-1.6-1.6-2
			c-0.6-0.4-1.2-0.7-1.8-0.7c-0.6,0-1.1,0.2-1.4,0.5c-0.4,0.3-0.6,0.7-0.6,1.2s0.2,0.8,0.6,1.1c0.4,0.3,1.1,0.5,2,0.7l1.7,0.3
			c2.2,0.4,3.8,1.1,4.8,2.1s1.6,2.2,1.6,3.8c0,1.9-0.6,3.4-1.8,4.5c-1.2,1.1-2.7,1.7-4.7,1.7c-1.1,0-2.1-0.2-3-0.6
			C339.8,393.3,339.1,392.7,338.3,392z"/>
		<path d="M355,393.9v-3.8h1.9v-11.3h-1.5l-1,3h-3v-6.7h15.8v6.7h-3l-1-3h-1.5v11.3h1.9v3.8H355z"/>
		<path d="M368.3,393.9v-3.8h1.9v-11.3h-1.9V375H385v6.8h-3.3l-1.1-3H375v3.1h3.7v4.2H375v4h5.6l1.1-3.7h3.3v7.4h-16.8V393.9z"/>
		<path d="M386.9,393.9v-3.8h1.9v-11.3h-1.9V375h8.9c1.3,0,2.4,0.1,3.4,0.2c0.9,0.2,1.7,0.4,2.3,0.7c1.7,0.9,2.9,2,3.7,3.4
			c0.8,1.4,1.2,3.1,1.2,5.1s-0.4,3.7-1.2,5.1c-0.8,1.4-2,2.5-3.7,3.4c-0.6,0.3-1.3,0.5-2.3,0.7c-0.9,0.2-2.1,0.2-3.4,0.2h-8.9V393.9
			z M393.8,378.9v11.3h1.5c1.9,0,3.4-0.5,4.4-1.4c1-1,1.5-2.4,1.5-4.2c0-1.9-0.5-3.3-1.5-4.2c-1-1-2.5-1.4-4.4-1.4h-1.5V378.9z"/>
		<path d="M410.5,394.2c-0.7,0-1.4-0.3-1.9-0.8s-0.8-1.1-0.8-1.9c0-0.7,0.3-1.4,0.8-1.9s1.1-0.8,1.9-0.8c0.7,0,1.4,0.2,1.9,0.7
			s0.8,1.1,0.8,1.9c0,0.8-0.3,1.4-0.8,1.9C411.9,394,411.3,394.2,410.5,394.2z"/>
	</g>
	<g>
		<defs>
			<rect id="SVGID_67_" x="27.1" y="340.1" width="386.3" height="22.1"/>
		</defs>
		<clipPath id="SVGID_68_">
			<use xlink:href="#SVGID_67_"  style="overflow:visible;"/>
		</clipPath>
		<g class="st39">
			
				<rect x="-46.7" y="133.5" transform="matrix(0.9189 0.3945 -0.3945 0.9189 93.3625 35.119)" class="st40" width="16" height="222.3"/>
			
				<rect x="-31.5" y="137.4" transform="matrix(0.9189 0.3945 -0.3945 0.9189 95.6637 31.8141)" class="st41" width="4" height="222.3"/>
			
				<rect x="-49.9" y="129.6" transform="matrix(0.9189 0.3945 -0.3945 0.9189 91.0614 38.4239)" class="st41" width="4" height="222.3"/>
			
				<rect x="-28.4" y="141.4" transform="matrix(0.9189 0.3945 -0.3945 0.9189 97.9649 28.5092)" class="st3" width="16" height="222.3"/>
			
				<rect x="-10" y="149.3" transform="matrix(0.9189 0.3945 -0.3945 0.9189 102.5672 21.8993)" class="st40" width="16" height="222.3"/>
			
				<rect x="5.2" y="153.2" transform="matrix(0.9189 0.3945 -0.3945 0.9189 104.8684 18.5944)" class="st41" width="4" height="222.3"/>
			
				<rect x="-13.2" y="145.3" transform="matrix(0.9189 0.3945 -0.3945 0.9189 100.266 25.2042)" class="st41" width="4" height="222.3"/>
			
				<rect x="8.4" y="157.2" transform="matrix(0.9189 0.3945 -0.3945 0.9189 107.1696 15.2895)" class="st3" width="16" height="222.3"/>
			
				<rect x="26.8" y="165.1" transform="matrix(0.9189 0.3945 -0.3945 0.9189 111.7719 8.6796)" class="st40" width="16" height="222.3"/>
			<rect x="42" y="169" transform="matrix(0.9189 0.3945 -0.3945 0.9189 114.0731 5.3747)" class="st41" width="4" height="222.3"/>
			
				<rect x="23.6" y="161.1" transform="matrix(0.9189 0.3945 -0.3945 0.9189 109.4707 11.9846)" class="st41" width="4" height="222.3"/>
			
				<rect x="45.2" y="172.9" transform="matrix(0.9189 0.3945 -0.3945 0.9189 116.3743 2.0698)" class="st3" width="16" height="222.3"/>
			
				<rect x="63.5" y="180.8" transform="matrix(0.9189 0.3945 -0.3945 0.9189 120.9766 -4.54)" class="st40" width="16" height="222.3"/>
			
				<rect x="78.7" y="184.8" transform="matrix(0.9189 0.3945 -0.3945 0.9189 123.2778 -7.845)" class="st41" width="4" height="222.3"/>
			
				<rect x="60.3" y="176.9" transform="matrix(0.9189 0.3945 -0.3945 0.9189 118.6754 -1.2351)" class="st41" width="4" height="222.3"/>
			
				<rect x="81.9" y="188.7" transform="matrix(0.9189 0.3945 -0.3945 0.9189 125.5789 -11.1499)" class="st3" width="16" height="222.3"/>
			
				<rect x="100.3" y="196.6" transform="matrix(0.9189 0.3945 -0.3945 0.9189 130.1813 -17.7597)" class="st40" width="16" height="222.3"/>
			
				<rect x="115.5" y="200.6" transform="matrix(0.9189 0.3945 -0.3945 0.9189 132.4825 -21.0646)" class="st41" width="4" height="222.3"/>
			
				<rect x="97.1" y="192.7" transform="matrix(0.9189 0.3945 -0.3945 0.9189 127.8801 -14.4548)" class="st41" width="4" height="222.3"/>
			
				<rect x="118.7" y="204.5" transform="matrix(0.9189 0.3945 -0.3945 0.9189 134.7836 -24.3695)" class="st3" width="16" height="222.3"/>
			
				<rect x="137" y="212.4" transform="matrix(0.9189 0.3945 -0.3945 0.9189 139.386 -30.9794)" class="st40" width="16" height="222.3"/>
			
				<rect x="152.2" y="216.3" transform="matrix(0.9189 0.3945 -0.3945 0.9189 141.6871 -34.2843)" class="st41" width="4" height="222.3"/>
			
				<rect x="133.9" y="208.4" transform="matrix(0.9189 0.3945 -0.3945 0.9189 137.0848 -27.6745)" class="st41" width="4" height="222.3"/>
			
				<rect x="155.4" y="220.3" transform="matrix(0.9189 0.3945 -0.3945 0.9189 143.9883 -37.5892)" class="st3" width="16" height="222.3"/>
			
				<rect x="173.8" y="228.2" transform="matrix(0.9189 0.3945 -0.3945 0.9189 148.5907 -44.1991)" class="st40" width="16" height="222.3"/>
			
				<rect x="189" y="232.1" transform="matrix(0.9189 0.3945 -0.3945 0.9189 150.8918 -47.504)" class="st41" width="4" height="222.3"/>
			
				<rect x="170.6" y="224.2" transform="matrix(0.9189 0.3945 -0.3945 0.9189 146.2895 -40.8941)" class="st41" width="4" height="222.3"/>
			
				<rect x="192.2" y="236.1" transform="matrix(0.9189 0.3945 -0.3945 0.9189 153.193 -50.8089)" class="st3" width="16" height="222.3"/>
			
				<rect x="210.6" y="243.9" transform="matrix(0.9189 0.3945 -0.3945 0.9189 157.7954 -57.4187)" class="st40" width="16" height="222.3"/>
			
				<rect x="225.7" y="247.9" transform="matrix(0.9189 0.3945 -0.3945 0.9189 160.0965 -60.7237)" class="st41" width="4" height="222.3"/>
			
				<rect x="207.4" y="240" transform="matrix(0.9189 0.3945 -0.3945 0.9189 155.4942 -54.1138)" class="st41" width="4" height="222.3"/>
			
				<rect x="228.9" y="251.8" transform="matrix(0.9189 0.3945 -0.3945 0.9189 162.3977 -64.0286)" class="st3" width="16" height="222.3"/>
			
				<rect x="248.2" y="260.1" transform="matrix(0.9189 0.3945 -0.3945 0.9189 167.2302 -70.9689)" class="st40" width="16" height="222.3"/>
			
				<rect x="263.4" y="264.1" transform="matrix(0.9189 0.3945 -0.3945 0.9189 169.5313 -74.2738)" class="st41" width="4" height="222.3"/>
			
				<rect x="245" y="256.2" transform="matrix(0.9189 0.3945 -0.3945 0.9189 164.929 -67.664)" class="st41" width="4" height="222.3"/>
			
				<rect x="266.6" y="268" transform="matrix(0.9189 0.3945 -0.3945 0.9189 171.8325 -77.5787)" class="st3" width="16" height="222.3"/>
			
				<rect x="285" y="275.9" transform="matrix(0.9189 0.3945 -0.3945 0.9189 176.4349 -84.1886)" class="st40" width="16" height="222.3"/>
			
				<rect x="300.2" y="279.8" transform="matrix(0.9189 0.3945 -0.3945 0.9189 178.736 -87.4935)" class="st41" width="4" height="222.3"/>
			
				<rect x="281.8" y="272" transform="matrix(0.9189 0.3945 -0.3945 0.9189 174.1337 -80.8837)" class="st41" width="4" height="222.3"/>
			
				<rect x="303.4" y="283.8" transform="matrix(0.9189 0.3945 -0.3945 0.9189 181.0372 -90.7984)" class="st3" width="16" height="222.3"/>
			
				<rect x="321.7" y="291.7" transform="matrix(0.9189 0.3945 -0.3945 0.9189 185.6396 -97.4082)" class="st40" width="16" height="222.3"/>
			
				<rect x="336.9" y="295.6" transform="matrix(0.9189 0.3945 -0.3945 0.9189 187.9407 -100.7132)" class="st41" width="4" height="222.3"/>
			
				<rect x="318.6" y="287.7" transform="matrix(0.9189 0.3945 -0.3945 0.9189 183.3384 -94.1033)" class="st41" width="4" height="222.3"/>
			
				<rect x="340.1" y="299.6" transform="matrix(0.9189 0.3945 -0.3945 0.9189 190.2419 -104.0181)" class="st3" width="16" height="222.3"/>
			
				<rect x="358.5" y="307.5" transform="matrix(0.9189 0.3945 -0.3945 0.9189 194.8442 -110.6279)" class="st40" width="16" height="222.3"/>
			
				<rect x="373.7" y="311.4" transform="matrix(0.9189 0.3945 -0.3945 0.9189 197.1454 -113.9328)" class="st41" width="4" height="222.3"/>
			
				<rect x="355.3" y="303.5" transform="matrix(0.9189 0.3945 -0.3945 0.9189 192.5431 -107.323)" class="st41" width="4" height="222.3"/>
			
				<rect x="376.9" y="315.3" transform="matrix(0.9189 0.3945 -0.3945 0.9189 199.4466 -117.2378)" class="st3" width="16" height="222.3"/>
			
				<rect x="395.3" y="323.2" transform="matrix(0.9189 0.3945 -0.3945 0.9189 204.0489 -123.8476)" class="st40" width="16" height="222.3"/>
			
				<rect x="410.4" y="327.2" transform="matrix(0.9189 0.3945 -0.3945 0.9189 206.3501 -127.1525)" class="st41" width="4" height="222.3"/>
			
				<rect x="392.1" y="319.3" transform="matrix(0.9189 0.3945 -0.3945 0.9189 201.7478 -120.5427)" class="st41" width="4" height="222.3"/>
			
				<rect x="413.6" y="331.1" transform="matrix(0.9189 0.3945 -0.3945 0.9189 208.6513 -130.4574)" class="st3" width="16" height="222.3"/>
			
				<rect x="432" y="339" transform="matrix(0.9189 0.3945 -0.3945 0.9189 213.2536 -137.0673)" class="st40" width="16" height="222.3"/>
			
				<rect x="447.2" y="343" transform="matrix(0.9189 0.3945 -0.3945 0.9189 215.5548 -140.3722)" class="st41" width="4" height="222.3"/>
			
				<rect x="428.8" y="335.1" transform="matrix(0.9189 0.3945 -0.3945 0.9189 210.9525 -133.7624)" class="st41" width="4" height="222.3"/>
			
				<rect x="450.4" y="346.9" transform="matrix(0.9189 0.3945 -0.3945 0.9189 217.856 -143.6771)" class="st3" width="16" height="222.3"/>
			
				<rect x="468.8" y="354.8" transform="matrix(0.9189 0.3945 -0.3945 0.9189 222.4583 -150.287)" class="st40" width="16" height="222.3"/>
			
				<rect x="484" y="358.7" transform="matrix(0.9189 0.3945 -0.3945 0.9189 224.7595 -153.5919)" class="st41" width="4" height="222.3"/>
			
				<rect x="465.6" y="350.8" transform="matrix(0.9189 0.3945 -0.3945 0.9189 220.1571 -146.982)" class="st41" width="4" height="222.3"/>
			
				<rect x="487.1" y="362.7" transform="matrix(0.9189 0.3945 -0.3945 0.9189 227.0607 -156.8968)" class="st3" width="16" height="222.3"/>
			
				<rect x="505.5" y="370.6" transform="matrix(0.9189 0.3945 -0.3945 0.9189 231.663 -163.5066)" class="st40" width="16" height="222.3"/>
			
				<rect x="520.7" y="374.5" transform="matrix(0.9189 0.3945 -0.3945 0.9189 233.9642 -166.8115)" class="st41" width="4" height="222.3"/>
			
				<rect x="502.3" y="366.6" transform="matrix(0.9189 0.3945 -0.3945 0.9189 229.3618 -160.2017)" class="st41" width="4" height="222.3"/>
			
				<rect x="523.9" y="378.5" transform="matrix(0.9189 0.3945 -0.3945 0.9189 236.2654 -170.1165)" class="st3" width="16" height="222.3"/>
		</g>
	</g>
</g>
</svg>
