<?xml version="1.0" encoding="utf-8"?>
<!-- Generator: Adobe Illustrator 22.1.0, SVG Export Plug-In . SVG Version: 6.00 Build 0)  -->
<svg version="1.1" id="Layer_1" xmlns="http://www.w3.org/2000/svg" xmlns:xlink="http://www.w3.org/1999/xlink" x="0px" y="0px"
	 viewBox="0 0 391.7 146.8" style="enable-background:new 0 0 391.7 146.8;" xml:space="preserve">
<style type="text/css">
	.st0{fill:#0808AF;stroke:#000000;stroke-miterlimit:10;}
	.st1{fill:#FFFFFF;stroke:#EC1C24;stroke-width:6;stroke-miterlimit:10;}
	.st2{fill:#231F20;}
	.st3{fill:#FFFFFF;}
	.st4{clip-path:url(#SVGID_2_);fill:#0808AF;}
	.st5{clip-path:url(#SVGID_2_);fill:#FFFFFF;}
	.st6{clip-path:url(#SVGID_4_);fill:#0808AF;}
	.st7{clip-path:url(#SVGID_6_);fill:#FFFFFF;}
	.st8{clip-path:url(#SVGID_8_);fill:#EC1C24;}
	.st9{clip-path:url(#SVGID_10_);fill:#FFFFFF;}
	.st10{clip-path:url(#SVGID_12_);fill:#EC1C24;}
	.st11{clip-path:url(#SVGID_14_);fill:#FFFFFF;}
	.st12{clip-path:url(#SVGID_16_);fill:#EC1C24;}
	.st13{clip-path:url(#SVGID_18_);fill:#FFFFFF;}
	.st14{clip-path:url(#SVGID_20_);fill:#EC1C24;}
	.st15{clip-path:url(#SVGID_22_);fill:#FFFFFF;}
	.st16{clip-path:url(#SVGID_24_);fill:#EC1C24;}
	.st17{clip-path:url(#SVGID_26_);fill:#FFFFFF;}
	.st18{clip-path:url(#SVGID_28_);fill:#EC1C24;}
	.st19{clip-path:url(#SVGID_30_);fill:#FFFFFF;}
	.st20{clip-path:url(#SVGID_32_);fill:#EC1C24;}
	.st21{clip-path:url(#SVGID_34_);fill:#FFFFFF;}
	.st22{clip-path:url(#SVGID_36_);fill:#EC1C24;}
	.st23{clip-path:url(#SVGID_38_);fill:#FFFFFF;}
	.st24{clip-path:url(#SVGID_40_);fill:#EC1C24;}
	.st25{clip-path:url(#SVGID_42_);fill:#FFFFFF;}
	.st26{clip-path:url(#SVGID_44_);fill:#EC1C24;}
	.st27{clip-path:url(#SVGID_46_);fill:#FFFFFF;}
	.st28{clip-path:url(#SVGID_48_);fill:#EC1C24;}
	.st29{clip-path:url(#SVGID_50_);fill:#FFFFFF;}
	.st30{clip-path:url(#SVGID_52_);fill:#EC1C24;}
	.st31{clip-path:url(#SVGID_54_);fill:#FFFFFF;}
	.st32{clip-path:url(#SVGID_56_);fill:#EC1C24;}
	.st33{clip-path:url(#SVGID_58_);fill:#FFFFFF;}
	.st34{clip-path:url(#SVGID_60_);fill:#EC1C24;}
	.st35{clip-path:url(#SVGID_62_);fill:#FFFFFF;}
	.st36{clip-path:url(#SVGID_64_);fill:#EC1C24;}
	.st37{clip-path:url(#SVGID_66_);fill:#FFFFFF;}
	.st38{fill:#FFFFFF;stroke:#0808AF;stroke-width:6;stroke-miterlimit:10;}
	.st39{clip-path:url(#SVGID_68_);}
	.st40{fill:#0808AF;}
	.st41{fill:#EC1C24;}
</style>
<rect id="XMLID_1_" x="-314.6" y="-1066.2" class="st0" width="1920" height="50.6"/>
<image style="overflow:visible;enable-background:new    ;" width="980" height="842" id="XMLID_45_" xlink:href="4B469B25.png"  transform="matrix(4.108437e-02 0 0 3.724496e-02 1544.1754 -1168.6794)">
</image>
<text id="XMLID_46_" transform="matrix(1.1031 0 0 1 1384.083 -1146.3978)" style="font-family:'Verdana-Bold'; font-size:18.6363px;">Cart is empty</text>
<rect id="XMLID_47_" x="1368.7" y="-1161.2" width="2.9" height="18.3"/>
<text id="XMLID_50_" transform="matrix(1.1031 0 0 1 1291.0947 -1146.3978)" style="font-family:'Verdana-Bold'; font-size:18.6324px;">Login</text>
<text id="XMLID_51_" transform="matrix(1 0 0 1 779.438 -1101.1097)" class="st3" style="font-family:'Verdana-Bold'; font-size:21.44px;">Shop</text>
<text id="XMLID_52_" transform="matrix(1 0 0 1 1350.4155 -1035.8727)" class="st3" style="font-family:'Verdana-Bold'; font-size:21.44px;">About Us</text>
<g id="XMLID_56_">
	<path id="XMLID_2_" class="st1" d="M350.2,80H41.5C20.3,80,3,62.8,3,41.5l0,0C3,20.2,20.2,3,41.5,3h308.7
		c21.2,0,38.5,17.2,38.5,38.5l0,0C388.7,62.7,371.4,80,350.2,80z"/>
	<g id="XMLID_3_">
		<path id="XMLID_4_" class="st2" d="M35.1,59.5v-7.2h3.6V30.6h-3.6v-7.2H52l5.6,14.9L63,23.4h17v7.2h-3.7v21.7H80v7.2H63.4v-7.2
			h3.8v-20l-7.4,19.6h-4.5l-7.4-19.6v20h3.9v7.2C51.8,59.5,35.1,59.5,35.1,59.5z"/>
		<path id="XMLID_6_" class="st2" d="M81.3,59.5v-7.2h3.1l6.7-21.7h-3.6v-7.2H113v7.2h-3.5l6.7,21.7h3.1v7.2h-15.8v-7.2h3.2
			l-1.4-4.9h-9.9l-1.3,4.9h3.2v7.2H81.3z M96.8,41h7l-3.5-11.5L96.8,41z"/>
		<path id="XMLID_9_" class="st2" d="M147.7,46.3h-4.6v-6.7h18.3v6.7h-3.3v13.2h-7.9v-4.7c-1.5,1.8-3.2,3.2-5.1,4.1
			c-1.9,0.9-4,1.3-6.4,1.3c-2.2,0-4.4-0.4-6.5-1.2s-3.9-1.9-5.5-3.4c-2-1.8-3.6-4-4.7-6.4c-1.1-2.5-1.6-5.1-1.6-7.8
			c0-2.9,0.5-5.5,1.6-8c1.1-2.4,2.7-4.5,4.8-6.4c1.6-1.4,3.5-2.5,5.6-3.3s4.2-1.2,6.5-1.2c1.9,0,3.6,0.3,5.1,0.8
			c1.5,0.6,2.8,1.4,3.9,2.5l-0.1-2.6h8.4V36h-9.1c-0.6-1.6-1.6-2.7-2.8-3.5c-1.2-0.8-2.7-1.2-4.5-1.2c-2.7,0-5,1-6.8,2.9
			s-2.6,4.3-2.6,7.3s0.9,5.5,2.6,7.3s4,2.8,6.8,2.8c1.7,0,3.3-0.4,4.6-1.3C145.9,49.3,146.9,48,147.7,46.3z"/>
		<path id="XMLID_11_" class="st2" d="M163,59.5v-7.2h3.7V30.6H163v-7.2h16.9v7.2h-3.8v21.7h3.8v7.2C179.9,59.5,163,59.5,163,59.5z"
			/>
		<path id="XMLID_13_" class="st2" d="M210.4,46.3h10.1c-1.3,4.3-3.6,7.8-7,10.3s-7.3,3.7-11.8,3.7c-2.5,0-4.8-0.4-7-1.2
			s-4.1-1.9-5.8-3.4c-2.1-1.9-3.7-4-4.8-6.4c-1.1-2.4-1.7-5-1.7-7.8s0.5-5.4,1.6-7.8s2.7-4.5,4.8-6.4c1.7-1.5,3.7-2.6,5.8-3.4
			c2.1-0.8,4.5-1.2,7-1.2c2,0,3.8,0.3,5.5,1s3.1,1.6,4.4,2.9v-3.2h8.4v13.9h-9.1c-0.8-1.9-1.9-3.4-3.4-4.4s-3.3-1.5-5.4-1.5
			c-2.9,0-5.2,0.9-7,2.8c-1.8,1.9-2.7,4.3-2.7,7.3c0,2.9,0.9,5.3,2.7,7.2c1.8,1.9,4,2.8,6.7,2.8c2,0,3.7-0.4,5.1-1.3
			C208.2,49.4,209.4,48,210.4,46.3z"/>
		<path id="XMLID_15_" class="st2" d="M235.8,59.5v-7.2h3.7V30.6h-3.7v-7.2h17.8c3.8,0,6.7,0.8,8.8,2.5c2.1,1.7,3.1,4,3.1,7.1
			c0,1.9-0.6,3.4-1.7,4.7c-1.1,1.2-2.8,2.2-5.1,2.8c2.8,0.6,4.9,1.7,6.2,3.1c1.3,1.4,1.9,3.4,1.9,5.9c0,3.3-1,5.8-3,7.5
			s-4.9,2.6-8.7,2.6L235.8,59.5L235.8,59.5z M248.8,37.7h2.9c1.5,0,2.6-0.3,3.3-0.9c0.7-0.6,1.1-1.5,1.1-2.6c0-1.2-0.4-2.1-1.1-2.6
			c-0.7-0.6-1.9-0.9-3.3-0.9h-2.9V37.7z M248.8,52.3h2.9c1.7,0,3.1-0.4,3.9-1.1c0.9-0.7,1.3-1.8,1.3-3.2s-0.4-2.5-1.3-3.2
			s-2.2-1.1-3.9-1.1h-2.9V52.3z"/>
		<path id="XMLID_19_" class="st2" d="M268,59.5v-7.2h3.1l6.7-21.7h-3.6v-7.2h25.5v7.2h-3.5l6.7,21.7h3.1v7.2h-15.8v-7.2h3.2
			l-1.4-4.9h-9.9l-1.3,4.9h3.2v7.2H268z M283.4,41h7l-3.5-11.5L283.4,41z"/>
		<path id="XMLID_22_" class="st2" d="M307.2,59.5v-7.2h3.7V30.6h-3.7v-7.2h16.9v7.2h-3.8v21.7h3.8v7.2
			C324.1,59.5,307.2,59.5,307.2,59.5z"/>
		<path id="XMLID_24_" class="st2" d="M332.9,59.5v-7.2h3.7V30.5h-2.9l-1.9,5.7H326V23.4h30.5v12.8h-5.8l-1.8-5.7H346v21.8h3.7v7.2
			H332.9z"/>
	</g>
</g>
<text id="XMLID_26_" transform="matrix(1 0 0 1 1492.9861 -1035.8727)" class="st3" style="font-family:'Verdana-Bold'; font-size:21.44px;">Contact</text>
<rect id="XMLID_27_" x="1475" y="-1051.5" class="st3" width="3" height="17.6"/>
<rect id="XMLID_34_" x="1333.2" y="-1051.5" class="st3" width="3" height="17.6"/>
<text id="XMLID_42_" transform="matrix(1 0 0 1 1162.7205 -1035.8727)" class="st3" style="font-family:'Verdana-Bold'; font-size:21.44px;">Store Locator</text>
<rect id="XMLID_43_" x="1148.5" y="-1051.5" class="st3" width="3" height="17.6"/>
<text id="XMLID_44_" transform="matrix(1 0 0 1 1076.7421 -1035.8727)" class="st3" style="font-family:'Verdana-Bold'; font-size:21.44px;">Shop</text>
<path id="XMLID_53_" class="st3" d="M229.7-1022.9h-482.3c-10,0-18.1-8.1-18.1-18.1l0,0c0-10,8.1-18.1,18.1-18.1h482.3
	c10,0,18.1,8.1,18.1,18.1l0,0C247.7-1031,239.6-1022.9,229.7-1022.9z"/>
<text id="XMLID_54_" transform="matrix(1 0 0 1 -249.5104 -1033.5258)" style="fill:#8E8E8E; font-family:'Verdana'; font-size:18px;">Search Products</text>
<g>
	<defs>
		<rect id="SVGID_1_" x="334.3" y="-372.7" width="531" height="12"/>
	</defs>
	<clipPath id="SVGID_2_">
		<use xlink:href="#SVGID_1_"  style="overflow:visible;"/>
	</clipPath>
	<polygon class="st4" points="309.5,-323.7 293,-325.7 363.1,-467.2 379.6,-465.2 	"/>
	<polygon class="st4" points="474.5,-303.2 458,-305.3 528.1,-446.8 544.6,-444.7 	"/>
	<polygon class="st5" points="491,-301.2 474.5,-303.2 544.6,-444.7 561.1,-442.7 	"/>
	<polygon class="st4" points="507.5,-299.1 491,-301.2 561.1,-442.7 577.6,-440.6 	"/>
	<polygon class="st5" points="524,-297.1 507.5,-299.1 577.6,-440.6 594.1,-438.6 	"/>
	<polygon class="st4" points="540.5,-295.1 524,-297.1 594.1,-438.6 610.6,-436.5 	"/>
	<polygon class="st5" points="557,-293 540.5,-295.1 610.6,-436.5 627.1,-434.5 	"/>
	<polygon class="st4" points="573.5,-291 557,-293 627.1,-434.5 643.6,-432.4 	"/>
	<polygon class="st5" points="590,-288.9 573.5,-291 643.6,-432.4 660.1,-430.4 	"/>
	<polygon class="st4" points="606.5,-286.9 590,-288.9 660.1,-430.4 676.6,-428.4 	"/>
	<polygon class="st5" points="623,-284.8 606.5,-286.9 676.6,-428.4 693.1,-426.3 	"/>
	<polygon class="st4" points="639.5,-282.8 623,-284.8 693.1,-426.3 709.6,-424.3 	"/>
	<polygon class="st5" points="656,-280.7 639.5,-282.8 709.6,-424.3 726.1,-422.2 	"/>
	<polygon class="st4" points="672.5,-278.7 656,-280.7 726.1,-422.2 742.6,-420.2 	"/>
	<polygon class="st5" points="689,-276.7 672.5,-278.7 742.6,-420.2 759.1,-418.1 	"/>
	<polygon class="st4" points="705.5,-274.6 689,-276.7 759.1,-418.1 775.6,-416.1 	"/>
	<polygon class="st5" points="722,-272.6 705.5,-274.6 775.6,-416.1 792.1,-414 	"/>
	<polygon class="st4" points="738.5,-270.5 722,-272.6 792.1,-414 808.6,-412 	"/>
	<polygon class="st5" points="755,-268.5 738.5,-270.5 808.6,-412 825.1,-410 	"/>
	<polygon class="st4" points="771.5,-266.4 755,-268.5 825.1,-410 841.6,-407.9 	"/>
	<polygon class="st5" points="788,-264.4 771.5,-266.4 841.6,-407.9 858.1,-405.9 	"/>
	<polygon class="st4" points="804.5,-262.3 788,-264.4 858.1,-405.9 874.6,-403.8 	"/>
</g>
<g>
	<g>
		<defs>
			<rect id="SVGID_3_" x="746" y="47.9" width="531" height="12"/>
		</defs>
		<clipPath id="SVGID_4_">
			<use xlink:href="#SVGID_3_"  style="overflow:visible;"/>
		</clipPath>
		<polygon class="st6" points="721.2,96.9 704.7,94.9 774.8,-46.6 791.3,-44.6 		"/>
	</g>
	<g>
		<defs>
			<rect id="SVGID_5_" x="746" y="47.9" width="531" height="12"/>
		</defs>
		<clipPath id="SVGID_6_">
			<use xlink:href="#SVGID_5_"  style="overflow:visible;"/>
		</clipPath>
		<polygon class="st7" points="737.7,99 721.2,96.9 791.3,-44.6 807.8,-42.5 		"/>
	</g>
	<g>
		<defs>
			<rect id="SVGID_7_" x="746" y="47.9" width="531" height="12"/>
		</defs>
		<clipPath id="SVGID_8_">
			<use xlink:href="#SVGID_7_"  style="overflow:visible;"/>
		</clipPath>
		<polygon class="st8" points="754.2,101 737.7,99 807.8,-42.5 824.3,-40.5 		"/>
	</g>
	<g>
		<defs>
			<rect id="SVGID_9_" x="746" y="47.9" width="531" height="12"/>
		</defs>
		<clipPath id="SVGID_10_">
			<use xlink:href="#SVGID_9_"  style="overflow:visible;"/>
		</clipPath>
		<polygon class="st9" points="770.7,103.1 754.2,101 824.3,-40.5 840.8,-38.4 		"/>
	</g>
	<g>
		<defs>
			<rect id="SVGID_11_" x="746" y="47.9" width="531" height="12"/>
		</defs>
		<clipPath id="SVGID_12_">
			<use xlink:href="#SVGID_11_"  style="overflow:visible;"/>
		</clipPath>
		<polygon class="st10" points="787.2,105.1 770.7,103.1 840.8,-38.4 857.3,-36.4 		"/>
	</g>
	<g>
		<defs>
			<rect id="SVGID_13_" x="746" y="47.9" width="531" height="12"/>
		</defs>
		<clipPath id="SVGID_14_">
			<use xlink:href="#SVGID_13_"  style="overflow:visible;"/>
		</clipPath>
		<polygon class="st11" points="803.7,107.1 787.2,105.1 857.3,-36.4 873.8,-34.3 		"/>
	</g>
	<g>
		<defs>
			<rect id="SVGID_15_" x="746" y="47.9" width="531" height="12"/>
		</defs>
		<clipPath id="SVGID_16_">
			<use xlink:href="#SVGID_15_"  style="overflow:visible;"/>
		</clipPath>
		<polygon class="st12" points="820.2,109.2 803.7,107.1 873.8,-34.3 890.3,-32.3 		"/>
	</g>
	<g>
		<defs>
			<rect id="SVGID_17_" x="746" y="47.9" width="531" height="12"/>
		</defs>
		<clipPath id="SVGID_18_">
			<use xlink:href="#SVGID_17_"  style="overflow:visible;"/>
		</clipPath>
		<polygon class="st13" points="836.7,111.2 820.2,109.2 890.3,-32.3 906.8,-30.2 		"/>
	</g>
	<g>
		<defs>
			<rect id="SVGID_19_" x="746" y="47.9" width="531" height="12"/>
		</defs>
		<clipPath id="SVGID_20_">
			<use xlink:href="#SVGID_19_"  style="overflow:visible;"/>
		</clipPath>
		<polygon class="st14" points="853.2,113.3 836.7,111.2 906.8,-30.2 923.3,-28.2 		"/>
	</g>
	<g>
		<defs>
			<rect id="SVGID_21_" x="746" y="47.9" width="531" height="12"/>
		</defs>
		<clipPath id="SVGID_22_">
			<use xlink:href="#SVGID_21_"  style="overflow:visible;"/>
		</clipPath>
		<polygon class="st15" points="869.7,115.3 853.2,113.3 923.3,-28.2 939.8,-26.2 		"/>
	</g>
	<g>
		<defs>
			<rect id="SVGID_23_" x="746" y="47.9" width="531" height="12"/>
		</defs>
		<clipPath id="SVGID_24_">
			<use xlink:href="#SVGID_23_"  style="overflow:visible;"/>
		</clipPath>
		<polygon class="st16" points="886.2,117.4 869.7,115.3 939.8,-26.2 956.3,-24.1 		"/>
	</g>
	<g>
		<defs>
			<rect id="SVGID_25_" x="746" y="47.9" width="531" height="12"/>
		</defs>
		<clipPath id="SVGID_26_">
			<use xlink:href="#SVGID_25_"  style="overflow:visible;"/>
		</clipPath>
		<polygon class="st17" points="902.7,119.4 886.2,117.4 956.3,-24.1 972.8,-22.1 		"/>
	</g>
	<g>
		<defs>
			<rect id="SVGID_27_" x="746" y="47.9" width="531" height="12"/>
		</defs>
		<clipPath id="SVGID_28_">
			<use xlink:href="#SVGID_27_"  style="overflow:visible;"/>
		</clipPath>
		<polygon class="st18" points="919.2,121.5 902.7,119.4 972.8,-22.1 989.3,-20 		"/>
	</g>
	<g>
		<defs>
			<rect id="SVGID_29_" x="746" y="47.9" width="531" height="12"/>
		</defs>
		<clipPath id="SVGID_30_">
			<use xlink:href="#SVGID_29_"  style="overflow:visible;"/>
		</clipPath>
		<polygon class="st19" points="935.7,123.5 919.2,121.5 989.3,-20 1005.8,-18 		"/>
	</g>
	<g>
		<defs>
			<rect id="SVGID_31_" x="746" y="47.9" width="531" height="12"/>
		</defs>
		<clipPath id="SVGID_32_">
			<use xlink:href="#SVGID_31_"  style="overflow:visible;"/>
		</clipPath>
		<polygon class="st20" points="952.2,125.5 935.7,123.5 1005.8,-18 1022.3,-15.9 		"/>
	</g>
	<g>
		<defs>
			<rect id="SVGID_33_" x="746" y="47.9" width="531" height="12"/>
		</defs>
		<clipPath id="SVGID_34_">
			<use xlink:href="#SVGID_33_"  style="overflow:visible;"/>
		</clipPath>
		<polygon class="st21" points="968.7,127.6 952.2,125.5 1022.3,-15.9 1038.8,-13.9 		"/>
	</g>
	<g>
		<defs>
			<rect id="SVGID_35_" x="746" y="47.9" width="531" height="12"/>
		</defs>
		<clipPath id="SVGID_36_">
			<use xlink:href="#SVGID_35_"  style="overflow:visible;"/>
		</clipPath>
		<polygon class="st22" points="985.2,129.6 968.7,127.6 1038.8,-13.9 1055.3,-11.8 		"/>
	</g>
	<g>
		<defs>
			<rect id="SVGID_37_" x="746" y="47.9" width="531" height="12"/>
		</defs>
		<clipPath id="SVGID_38_">
			<use xlink:href="#SVGID_37_"  style="overflow:visible;"/>
		</clipPath>
		<polygon class="st23" points="1001.7,131.7 985.2,129.6 1055.3,-11.8 1071.8,-9.8 		"/>
	</g>
	<g>
		<defs>
			<rect id="SVGID_39_" x="746" y="47.9" width="531" height="12"/>
		</defs>
		<clipPath id="SVGID_40_">
			<use xlink:href="#SVGID_39_"  style="overflow:visible;"/>
		</clipPath>
		<polygon class="st24" points="1018.2,133.7 1001.7,131.7 1071.8,-9.8 1088.3,-7.8 		"/>
	</g>
	<g>
		<defs>
			<rect id="SVGID_41_" x="746" y="47.9" width="531" height="12"/>
		</defs>
		<clipPath id="SVGID_42_">
			<use xlink:href="#SVGID_41_"  style="overflow:visible;"/>
		</clipPath>
		<polygon class="st25" points="1034.7,135.8 1018.2,133.7 1088.3,-7.8 1104.8,-5.7 		"/>
	</g>
	<g>
		<defs>
			<rect id="SVGID_43_" x="746" y="47.9" width="531" height="12"/>
		</defs>
		<clipPath id="SVGID_44_">
			<use xlink:href="#SVGID_43_"  style="overflow:visible;"/>
		</clipPath>
		<polygon class="st26" points="1051.2,137.8 1034.7,135.8 1104.8,-5.7 1121.3,-3.7 		"/>
	</g>
	<g>
		<defs>
			<rect id="SVGID_45_" x="746" y="47.9" width="531" height="12"/>
		</defs>
		<clipPath id="SVGID_46_">
			<use xlink:href="#SVGID_45_"  style="overflow:visible;"/>
		</clipPath>
		<polygon class="st27" points="1067.7,139.9 1051.2,137.8 1121.3,-3.7 1137.8,-1.6 		"/>
	</g>
	<g>
		<defs>
			<rect id="SVGID_47_" x="746" y="47.9" width="531" height="12"/>
		</defs>
		<clipPath id="SVGID_48_">
			<use xlink:href="#SVGID_47_"  style="overflow:visible;"/>
		</clipPath>
		<polygon class="st28" points="1084.2,141.9 1067.7,139.9 1137.8,-1.6 1154.3,0.4 		"/>
	</g>
	<g>
		<defs>
			<rect id="SVGID_49_" x="746" y="47.9" width="531" height="12"/>
		</defs>
		<clipPath id="SVGID_50_">
			<use xlink:href="#SVGID_49_"  style="overflow:visible;"/>
		</clipPath>
		<polygon class="st29" points="1100.7,143.9 1084.2,141.9 1154.3,0.4 1170.8,2.5 		"/>
	</g>
	<g>
		<defs>
			<rect id="SVGID_51_" x="746" y="47.9" width="531" height="12"/>
		</defs>
		<clipPath id="SVGID_52_">
			<use xlink:href="#SVGID_51_"  style="overflow:visible;"/>
		</clipPath>
		<polygon class="st30" points="1117.2,146 1100.7,143.9 1170.8,2.5 1187.3,4.5 		"/>
	</g>
	<g>
		<defs>
			<rect id="SVGID_53_" x="746" y="47.9" width="531" height="12"/>
		</defs>
		<clipPath id="SVGID_54_">
			<use xlink:href="#SVGID_53_"  style="overflow:visible;"/>
		</clipPath>
		<polygon class="st31" points="1133.7,148 1117.2,146 1187.3,4.5 1203.8,6.6 		"/>
	</g>
	<g>
		<defs>
			<rect id="SVGID_55_" x="746" y="47.9" width="531" height="12"/>
		</defs>
		<clipPath id="SVGID_56_">
			<use xlink:href="#SVGID_55_"  style="overflow:visible;"/>
		</clipPath>
		<polygon class="st32" points="1150.2,150.1 1133.7,148 1203.8,6.6 1220.3,8.6 		"/>
	</g>
	<g>
		<defs>
			<rect id="SVGID_57_" x="746" y="47.9" width="531" height="12"/>
		</defs>
		<clipPath id="SVGID_58_">
			<use xlink:href="#SVGID_57_"  style="overflow:visible;"/>
		</clipPath>
		<polygon class="st33" points="1166.7,152.1 1150.2,150.1 1220.3,8.6 1236.8,10.6 		"/>
	</g>
	<g>
		<defs>
			<rect id="SVGID_59_" x="746" y="47.9" width="531" height="12"/>
		</defs>
		<clipPath id="SVGID_60_">
			<use xlink:href="#SVGID_59_"  style="overflow:visible;"/>
		</clipPath>
		<polygon class="st34" points="1183.2,154.2 1166.7,152.1 1236.8,10.6 1253.3,12.7 		"/>
	</g>
	<g>
		<defs>
			<rect id="SVGID_61_" x="746" y="47.9" width="531" height="12"/>
		</defs>
		<clipPath id="SVGID_62_">
			<use xlink:href="#SVGID_61_"  style="overflow:visible;"/>
		</clipPath>
		<polygon class="st35" points="1199.7,156.2 1183.2,154.2 1253.3,12.7 1269.8,14.7 		"/>
	</g>
	<g>
		<defs>
			<rect id="SVGID_63_" x="746" y="47.9" width="531" height="12"/>
		</defs>
		<clipPath id="SVGID_64_">
			<use xlink:href="#SVGID_63_"  style="overflow:visible;"/>
		</clipPath>
		<polygon class="st36" points="1216.2,158.3 1199.7,156.2 1269.8,14.7 1286.3,16.8 		"/>
	</g>
	<g>
		<defs>
			<rect id="SVGID_65_" x="746" y="47.9" width="531" height="12"/>
		</defs>
		<clipPath id="SVGID_66_">
			<use xlink:href="#SVGID_65_"  style="overflow:visible;"/>
		</clipPath>
		<polygon class="st37" points="1232.7,160.3 1216.2,158.3 1286.3,16.8 1302.8,18.8 		"/>
	</g>
</g>
<g>
	<path id="XMLID_65_" class="st38" d="M1095,37.4H786.2c-21.2,0-38.5-17.2-38.5-38.5l0,0c0.1-21.3,17.3-38.5,38.5-38.5h308.7
		c21.2,0,38.5,17.2,38.5,38.5l0,0C1133.4,20.1,1116.2,37.4,1095,37.4z"/>
	<g id="XMLID_29_">
		<path id="XMLID_63_" class="st2" d="M779.9,16.9V9.7h3.6V-12h-3.6v-7.2h16.9l5.6,14.9l5.4-14.9h17v7.2h-3.7V9.7h3.7v7.2h-16.6V9.7
			h3.8v-20l-7.4,19.6h-4.5l-7.4-19.6v20h3.9v7.2C796.6,16.9,779.9,16.9,779.9,16.9z"/>
		<path id="XMLID_60_" class="st2" d="M826.1,16.9V9.7h3.1l6.7-21.7h-3.6v-7.2h25.5v7.2h-3.5L861,9.7h3.1v7.2h-15.8V9.7h3.2
			l-1.4-4.9h-10l-1.3,4.9h3.2v7.2H826.1z M841.6-1.6h7l-3.5-11.5L841.6-1.6z"/>
		<path id="XMLID_58_" class="st2" d="M892.4,3.7h-4.6V-3h18.3v6.7h-3.3v13.2h-7.7v-4.7c-1.5,1.8-3.2,3.2-5.1,4.1
			c-1.9,0.9-4,1.3-6.4,1.3c-2.2,0-4.4-0.4-6.5-1.2c-2.1-0.8-3.9-1.9-5.5-3.4c-2-1.8-3.6-4-4.7-6.4c-1.1-2.5-1.6-5.1-1.6-7.8
			c0-2.9,0.5-5.5,1.6-8c1.1-2.4,2.7-4.5,4.8-6.4c1.6-1.4,3.5-2.5,5.6-3.3c2.1-0.8,4.2-1.2,6.5-1.2c1.9,0,3.6,0.3,5.1,0.8
			c1.5,0.6,2.8,1.4,3.9,2.5l-0.1-2.6h8.4v12.8H892c-0.6-1.6-1.6-2.7-2.8-3.5c-1.2-0.8-2.7-1.2-4.5-1.2c-2.7,0-5,1-6.8,2.9
			c-1.8,1.9-2.6,4.3-2.6,7.3s0.9,5.5,2.6,7.3s4,2.8,6.8,2.8c1.7,0,3.3-0.4,4.6-1.3C890.6,6.7,891.7,5.4,892.4,3.7z"/>
		<path id="XMLID_55_" class="st2" d="M907.8,16.9V9.7h3.7V-12h-3.7v-7.2h16.9v7.2h-3.8V9.7h3.8v7.2
			C924.7,16.9,907.8,16.9,907.8,16.9z"/>
		<path id="XMLID_48_" class="st2" d="M955.2,3.7h10.1c-1.3,4.3-3.6,7.8-7,10.3c-3.4,2.5-7.3,3.7-11.8,3.7c-2.5,0-4.8-0.4-7-1.2
			s-4.1-1.9-5.8-3.4c-2.1-1.9-3.7-4-4.8-6.4c-1.1-2.4-1.7-5-1.7-7.8s0.5-5.4,1.6-7.8c1.1-2.4,2.7-4.5,4.8-6.4
			c1.7-1.5,3.7-2.6,5.8-3.4s4.5-1.2,7-1.2c2,0,3.8,0.3,5.5,1s3.1,1.6,4.4,2.9v-3.2h8.4v13.9h-9.1c-0.8-1.9-1.9-3.4-3.4-4.4
			s-3.3-1.5-5.4-1.5c-2.9,0-5.2,0.9-7,2.8c-1.8,1.9-2.7,4.3-2.7,7.3c0,2.9,0.9,5.3,2.7,7.2s4,2.8,6.7,2.8c2,0,3.7-0.4,5.1-1.3
			C953,6.8,954.2,5.4,955.2,3.7z"/>
		<path id="XMLID_38_" class="st2" d="M980.5,16.9V9.7h3.7V-12h-3.7v-7.2h17.8c3.8,0,6.7,0.8,8.8,2.5s3.1,4,3.1,7.1
			c0,1.9-0.6,3.4-1.7,4.7c-1.1,1.2-2.8,2.2-5.1,2.8c2.8,0.6,4.9,1.7,6.2,3.1c1.3,1.4,1.9,3.4,1.9,5.9c0,3.3-1,5.8-3,7.5
			s-4.9,2.6-8.7,2.6L980.5,16.9L980.5,16.9z M993.6-4.9h2.9c1.5,0,2.6-0.3,3.3-0.9c0.7-0.6,1.1-1.5,1.1-2.6c0-1.2-0.4-2.1-1.1-2.6
			c-0.7-0.6-1.9-0.9-3.3-0.9h-2.9V-4.9z M993.6,9.7h2.9c1.7,0,3.1-0.4,3.9-1.1c0.9-0.7,1.3-1.8,1.3-3.2s-0.4-2.5-1.3-3.2
			c-0.9-0.7-2.2-1.1-3.9-1.1h-2.9V9.7z"/>
		<path id="XMLID_35_" class="st2" d="M1012.7,16.9V9.7h3.1l6.7-21.7h-3.6v-7.2h25.5v7.2h-3.5l6.7,21.7h3.1v7.2h-15.8V9.7h3.2
			l-1.4-4.9h-9.9l-1.3,4.9h3.2v7.2H1012.7z M1028.2-1.6h7l-3.5-11.5L1028.2-1.6z"/>
		<path id="XMLID_32_" class="st2" d="M1051.9,16.9V9.7h3.7V-12h-3.7v-7.2h16.9v7.2h-3.8V9.7h3.8v7.2
			C1068.8,16.9,1051.9,16.9,1051.9,16.9z"/>
		<path id="XMLID_30_" class="st2" d="M1077.7,16.9V9.7h3.7v-21.8h-2.9l-1.9,5.7h-5.8v-12.8h30.5v12.8h-5.8l-1.8-5.7h-2.9V9.7h3.7
			v7.2H1077.7z"/>
	</g>
</g>
<g>
	<path d="M751.2,93.7v-3.8h1.9V78.6h-1.5l-1,3h-3v-6.7h15.8v6.7h-3l-1-3h-1.5v11.3h1.9v3.8H751.2z"/>
	<path d="M764.5,93.7v-3.8h1.9V78.6h-1.9v-3.8h16.8v6.8h-3.2l-1.1-3h-5.6v3.1h3.7v4.2h-3.7v4h5.6l1.1-3.7h3.3v7.4h-16.9V93.7z"/>
	<path d="M787.7,91.8l0.1,2h-4.1v-6.4h4.4c0.7,1,1.4,1.7,2.1,2.2c0.6,0.4,1.3,0.6,2.1,0.6c0.6,0,1.1-0.2,1.5-0.5s0.6-0.7,0.6-1.2
		s-0.2-0.8-0.6-1.1s-0.9-0.5-1.7-0.6l-2-0.3c-2.2-0.4-3.8-1-4.9-2c-1.1-1-1.6-2.3-1.6-3.9c0-1.7,0.6-3.1,1.8-4.2
		c1.2-1.1,2.7-1.7,4.5-1.7c1,0,1.8,0.2,2.5,0.5c0.7,0.3,1.4,0.9,1.9,1.6l-0.1-1.7h4.1V81h-4.1c-0.5-0.9-1.1-1.6-1.6-2
		c-0.6-0.4-1.2-0.7-1.8-0.7c-0.6,0-1.1,0.2-1.4,0.5c-0.4,0.3-0.6,0.7-0.6,1.2s0.2,0.8,0.6,1.1c0.4,0.3,1.1,0.5,2,0.7l1.7,0.3
		c2.2,0.4,3.8,1.1,4.8,2.1s1.6,2.2,1.6,3.8c0,1.9-0.6,3.4-1.8,4.5s-2.7,1.7-4.7,1.7c-1.1,0-2.1-0.2-3-0.6
		C789.2,93.1,788.4,92.5,787.7,91.8z"/>
	<path d="M804.3,93.7v-3.8h1.9V78.6h-1.5l-1,3h-3v-6.7h15.8v6.7h-3l-1-3h-1.4v11.3h1.9v3.8H804.3z"/>
	<path d="M817.7,93.7v-3.8h1.9V78.6h-1.9v-3.8h16.8v6.8h-3.3l-1.1-3h-5.6v3.1h3.7v4.2h-3.7v4h5.6l1.1-3.7h3.3v7.4h-16.8V93.7z"/>
	<path d="M836.2,93.7v-3.8h1.9V78.6h-1.9v-3.8h8.9c1.3,0,2.4,0.1,3.4,0.2c0.9,0.2,1.7,0.4,2.3,0.7c1.7,0.9,2.9,2,3.7,3.4
		s1.2,3.1,1.2,5.1s-0.4,3.7-1.2,5.1s-2,2.5-3.7,3.4c-0.6,0.3-1.3,0.5-2.3,0.7c-0.9,0.2-2.1,0.2-3.4,0.2h-8.9V93.7z M843.1,78.7V90
		h1.5c1.9,0,3.4-0.5,4.4-1.4c1-1,1.5-2.4,1.5-4.2c0-1.9-0.5-3.3-1.5-4.2c-1-1-2.5-1.4-4.4-1.4h-1.5V78.7z"/>
	<path d="M859.9,94c-0.7,0-1.4-0.3-1.9-0.8s-0.8-1.1-0.8-1.9c0-0.7,0.3-1.4,0.8-1.9s1.1-0.8,1.9-0.8c0.7,0,1.4,0.2,1.9,0.7
		s0.8,1.1,0.8,1.9s-0.3,1.4-0.8,1.9C861.3,93.8,860.6,94,859.9,94z"/>
	<path d="M871.4,93.7v-3.8h1.9V78.6h-1.9v-3.8h9.6c2,0,3.5,0.5,4.7,1.6c1.1,1.1,1.7,2.5,1.7,4.3s-0.6,3.3-1.7,4.3
		c-1.1,1.1-2.7,1.6-4.7,1.6h-2.8v3.1h2v3.8h-8.8V93.7z M878.2,78.7v4.6h1.3c1,0,1.8-0.2,2.3-0.6s0.8-1,0.8-1.7
		c0-0.8-0.3-1.4-0.8-1.7c-0.5-0.4-1.3-0.6-2.3-0.6C879.5,78.7,878.2,78.7,878.2,78.7z"/>
	<path d="M888.5,93.7v-3.8h1.9V78.6h-1.9v-3.8h11.6c1.5,0,2.6,0.5,3.6,1.4c0.9,0.9,1.4,2.1,1.4,3.5c0,1-0.3,1.9-0.8,2.6
		s-1.3,1.2-2.4,1.6c0.9,0.3,1.5,0.6,1.9,1c0.3,0.4,0.5,1,0.5,1.7v3.3h1.7v3.8h-6.6v-4.4c0-1.6-0.2-2.6-0.5-3c-0.4-0.4-1-0.6-2-0.6
		h-1.5v4.2h1.5v3.8H888.5z M895.3,78.7v4h1.9c0.9,0,1.5-0.2,2-0.5c0.4-0.3,0.6-0.8,0.6-1.5s-0.2-1.2-0.6-1.5c-0.4-0.3-1.1-0.5-2-0.5
		H895.3z"/>
	<path d="M906.9,84.3c0-1.5,0.3-2.8,0.9-4.1c0.6-1.2,1.4-2.4,2.5-3.3c0.9-0.8,1.9-1.4,3-1.8c1.1-0.4,2.3-0.6,3.6-0.6
		c1.3,0,2.5,0.2,3.6,0.6c1.1,0.4,2.1,1,3,1.8c1.1,1,1.9,2.1,2.5,3.3c0.6,1.3,0.9,2.6,0.9,4.1c0,1.4-0.3,2.8-0.9,4
		c-0.6,1.3-1.4,2.4-2.5,3.3c-0.9,0.8-1.9,1.4-3,1.8c-1.1,0.4-2.3,0.6-3.6,0.6c-1.3,0-2.5-0.2-3.6-0.6c-1.1-0.4-2.1-1-3-1.8
		c-1.1-1-1.9-2.1-2.5-3.3C907.2,87.1,906.9,85.8,906.9,84.3z M912.1,84.3c0,1.5,0.5,2.7,1.4,3.7c0.9,1,2.1,1.5,3.5,1.5
		c1.4,0,2.6-0.5,3.5-1.5c0.9-1,1.4-2.2,1.4-3.7s-0.5-2.8-1.4-3.8c-0.9-1-2.1-1.5-3.5-1.5c-1.4,0-2.6,0.5-3.5,1.5
		C912.5,81.6,912.1,82.8,912.1,84.3z"/>
	<path d="M933.9,93.7l-5-15h-1.5v-3.8h7.9v3.8h-1.7l2.7,9.2l2.7-9.2h-1.7v-3.8h7.8v3.8h-1.5l-5,15H933.9z"/>
	<path d="M945.9,93.7v-3.8h1.9V78.6h-1.9v-3.8h16.8v6.8h-3.3l-1.1-3h-5.6v3.1h3.7v4.2h-3.7v4h5.6l1.1-3.7h3.3v7.4h-16.8V93.7z"/>
	<path d="M964.5,93.7v-3.8h1.9V78.6h-1.9v-3.8h6.7l6.3,10.4l-0.2-6.6h-2v-3.8h8.6v3.8H982v15h-4.1L971,82.3l0.1,7.6h2v3.8H964.5z"/>
	<path d="M987.8,94c-0.7,0-1.4-0.3-1.9-0.8s-0.8-1.1-0.8-1.9c0-0.7,0.3-1.4,0.8-1.9s1.1-0.8,1.9-0.8c0.7,0,1.4,0.2,1.9,0.7
		s0.8,1.1,0.8,1.9s-0.3,1.4-0.8,1.9C989.2,93.8,988.5,94,987.8,94z"/>
	<path d="M1002.6,93.7v-3.8h1.9V78.6h-1.5l-1,3h-3v-6.7h15.8v6.7h-3l-1-3h-1.5v11.3h1.9v3.8H1002.6z"/>
	<path d="M1016,93.7v-3.8h1.9V78.6h-1.9v-3.8h11.6c1.5,0,2.6,0.5,3.6,1.4c0.9,0.9,1.4,2.1,1.4,3.5c0,1-0.3,1.9-0.8,2.6
		s-1.3,1.2-2.4,1.6c0.9,0.3,1.5,0.6,1.9,1c0.3,0.4,0.5,1,0.5,1.7v3.3h1.7v3.8h-6.6v-4.4c0-1.6-0.2-2.6-0.5-3c-0.4-0.4-1-0.6-2-0.6
		h-1.5v4.2h1.5v3.8H1016z M1022.8,78.7v4h1.9c0.9,0,1.5-0.2,2-0.5c0.4-0.3,0.6-0.8,0.6-1.5s-0.2-1.2-0.6-1.5c-0.4-0.3-1.1-0.5-2-0.5
		H1022.8z"/>
	<path d="M1035.8,87.2v-8.5h-1.9v-3.8h8.8v3.8h-2v7.9c0,1,0.3,1.7,0.8,2.2s1.2,0.8,2.2,0.8s1.7-0.3,2.2-0.8s0.8-1.3,0.8-2.2v-7.9h-2
		v-3.8h8.7v3.8h-1.9v8.5c0,2.1-0.7,3.8-2.1,5s-3.3,1.8-5.7,1.8c-2.4,0-4.3-0.6-5.7-1.8C1036.5,91,1035.8,89.3,1035.8,87.2z"/>
	<path d="M1058.7,91.8l0.1,2h-4.1v-6.4h4.4c0.7,1,1.4,1.7,2.1,2.2c0.6,0.4,1.3,0.6,2.1,0.6c0.6,0,1.1-0.2,1.5-0.5
		c0.4-0.3,0.6-0.7,0.6-1.2s-0.2-0.8-0.6-1.1c-0.4-0.3-0.9-0.5-1.7-0.6l-2-0.3c-2.2-0.4-3.8-1-4.9-2c-1.1-1-1.6-2.3-1.6-3.9
		c0-1.7,0.6-3.1,1.8-4.2c1.2-1.1,2.7-1.7,4.5-1.7c1,0,1.8,0.2,2.5,0.5c0.7,0.3,1.4,0.9,1.9,1.6l-0.1-1.7h4.1V81h-4.1
		c-0.5-0.9-1.1-1.6-1.6-2c-0.6-0.4-1.2-0.7-1.8-0.7s-1.1,0.2-1.4,0.5c-0.4,0.3-0.6,0.7-0.6,1.2s0.2,0.8,0.6,1.1
		c0.4,0.3,1.1,0.5,2,0.7l1.7,0.3c2.2,0.4,3.8,1.1,4.8,2.1s1.6,2.2,1.6,3.8c0,1.9-0.6,3.4-1.8,4.5c-1.2,1.1-2.7,1.7-4.7,1.7
		c-1.1,0-2.1-0.2-3-0.6C1060.2,93.1,1059.4,92.5,1058.7,91.8z"/>
	<path d="M1075.4,93.7v-3.8h1.9V78.6h-1.5l-1,3h-3v-6.7h15.8v6.7h-3l-1-3h-1.5v11.3h1.9v3.8H1075.4z"/>
	<path d="M1088.7,93.7v-3.8h1.9V78.6h-1.9v-3.8h16.8v6.8h-3.3l-1.1-3h-5.6v3.1h3.7v4.2h-3.7v4h5.6l1.1-3.7h3.3v7.4h-16.8V93.7z"/>
	<path d="M1107.2,93.7v-3.8h1.9V78.6h-1.9v-3.8h8.9c1.3,0,2.4,0.1,3.4,0.2c0.9,0.2,1.7,0.4,2.3,0.7c1.7,0.9,2.9,2,3.7,3.4
		c0.8,1.4,1.2,3.1,1.2,5.1s-0.4,3.7-1.2,5.1c-0.8,1.4-2,2.5-3.7,3.4c-0.6,0.3-1.3,0.5-2.3,0.7c-0.9,0.2-2.1,0.2-3.4,0.2h-8.9V93.7z
		 M1114.1,78.7V90h1.5c1.9,0,3.4-0.5,4.4-1.4s1.5-2.4,1.5-4.2c0-1.9-0.5-3.3-1.5-4.2c-1-1-2.5-1.4-4.4-1.4h-1.5V78.7z"/>
	<path d="M1130.9,94c-0.7,0-1.4-0.3-1.9-0.8s-0.8-1.1-0.8-1.9c0-0.7,0.3-1.4,0.8-1.9s1.1-0.8,1.9-0.8c0.7,0,1.4,0.2,1.9,0.7
		s0.8,1.1,0.8,1.9s-0.3,1.4-0.8,1.9C1132.3,93.8,1131.7,94,1130.9,94z"/>
</g>
<g>
	<g>
		<path d="M6.4,146.3v-3.8h1.9v-11.3H6.9l-1,3h-3v-6.7h15.8v6.7h-3l-1-3h-1.5v11.3h1.9v3.8H6.4z"/>
		<path d="M19.7,146.3v-3.8h1.9v-11.3h-1.9v-3.8h16.8v6.8h-3.3l-1.1-3h-5.6v3.1h3.7v4.2h-3.7v4h5.6l1.1-3.7h3.3v7.4H19.7V146.3z"/>
		<path d="M42.9,144.4l0.1,2h-4.1V140h4.4c0.7,1,1.4,1.7,2.1,2.2c0.6,0.4,1.3,0.6,2.1,0.6c0.6,0,1.1-0.2,1.5-0.5
			c0.4-0.3,0.6-0.7,0.6-1.2s-0.2-0.8-0.6-1.1c-0.4-0.3-0.9-0.5-1.7-0.6l-2-0.3c-2.2-0.4-3.8-1-4.9-2c-1.1-1-1.6-2.3-1.6-3.9
			c0-1.7,0.6-3.1,1.8-4.2c1.2-1.1,2.7-1.7,4.5-1.7c1,0,1.8,0.2,2.5,0.5s1.4,0.9,1.9,1.6l-0.1-1.7h4.1v5.9h-4.1
			c-0.5-0.9-1.1-1.6-1.6-2c-0.6-0.4-1.2-0.7-1.8-0.7s-1.1,0.2-1.4,0.5c-0.4,0.3-0.6,0.7-0.6,1.2s0.2,0.8,0.6,1.1
			c0.4,0.3,1.1,0.5,2,0.7l1.7,0.3c2.2,0.4,3.8,1.1,4.8,2.1s1.6,2.2,1.6,3.8c0,1.9-0.6,3.4-1.8,4.5s-2.7,1.7-4.7,1.7
			c-1.1,0-2.1-0.2-3-0.6C44.4,145.7,43.5,145.1,42.9,144.4z"/>
		<path d="M59.5,146.3v-3.8h1.9v-11.3h-1.5l-1,3h-3v-6.7h15.8v6.7h-3l-1-3h-1.5v11.3h1.9v3.8H59.5z"/>
		<path d="M72.9,146.3v-3.8h1.9v-11.3h-1.9v-3.8h16.8v6.8h-3.3l-1.1-3h-5.6v3.1h3.7v4.2h-3.7v4h5.6l1.1-3.7h3.3v7.4H72.9V146.3z"/>
		<path d="M91.4,146.3v-3.8h1.9v-11.3h-1.9v-3.8h8.9c1.3,0,2.4,0.1,3.4,0.2c0.9,0.2,1.7,0.4,2.3,0.7c1.7,0.9,2.9,2,3.7,3.4
			c0.8,1.4,1.2,3.1,1.2,5.1s-0.4,3.7-1.2,5.1c-0.8,1.4-2,2.5-3.7,3.4c-0.6,0.3-1.3,0.5-2.3,0.7c-0.9,0.2-2.1,0.2-3.4,0.2h-8.9V146.3
			z M98.4,131.3v11.3h1.5c1.9,0,3.4-0.5,4.4-1.4c1-1,1.5-2.4,1.5-4.2c0-1.9-0.5-3.3-1.5-4.2c-1-1-2.5-1.4-4.4-1.4h-1.5V131.3z"/>
		<path d="M115,146.6c-0.7,0-1.4-0.3-1.9-0.8s-0.8-1.1-0.8-1.9c0-0.7,0.3-1.4,0.8-1.9s1.1-0.8,1.9-0.8c0.7,0,1.4,0.2,1.9,0.7
			s0.8,1.1,0.8,1.9s-0.3,1.4-0.8,1.9C116.4,146.4,115.9,146.6,115,146.6z"/>
		<path d="M126.6,146.3v-3.8h1.9v-11.3h-1.9v-3.8h9.6c2,0,3.5,0.5,4.7,1.6c1.1,1.1,1.7,2.5,1.7,4.3c0,1.8-0.6,3.3-1.7,4.3
			c-1.1,1.1-2.7,1.6-4.7,1.6h-2.8v3.1h2v3.8h-8.8V146.3z M133.3,131.3v4.6h1.3c1,0,1.8-0.2,2.3-0.6s0.8-1,0.8-1.7
			c0-0.8-0.3-1.4-0.8-1.7c-0.5-0.4-1.3-0.6-2.3-0.6C134.6,131.3,133.3,131.3,133.3,131.3z"/>
		<path d="M143.7,146.3v-3.8h1.9v-11.3h-1.9v-3.8h11.6c1.5,0,2.6,0.5,3.6,1.4c0.9,0.9,1.4,2.1,1.4,3.5c0,1-0.3,1.9-0.8,2.6
			s-1.3,1.2-2.4,1.6c0.9,0.3,1.5,0.6,1.9,1c0.3,0.4,0.5,1,0.5,1.7v3.3h1.7v3.8h-6.6v-4.4c0-1.6-0.2-2.6-0.5-3c-0.3-0.4-1-0.6-2-0.6
			h-1.5v4.2h1.5v3.8L143.7,146.3L143.7,146.3z M150.6,131.3v4h1.9c0.9,0,1.5-0.2,2-0.5c0.4-0.3,0.6-0.8,0.6-1.5s-0.2-1.2-0.6-1.5
			s-1.1-0.5-2-0.5H150.6z"/>
		<path d="M162.2,136.9c0-1.5,0.3-2.8,0.9-4.1c0.6-1.2,1.4-2.4,2.5-3.3c0.9-0.8,1.9-1.4,3-1.8c1.1-0.4,2.3-0.6,3.6-0.6
			c1.3,0,2.5,0.2,3.6,0.6c1.1,0.4,2.1,1,3,1.8c1.1,1,1.9,2.1,2.5,3.3c0.6,1.3,0.9,2.6,0.9,4.1c0,1.4-0.3,2.8-0.9,4
			c-0.6,1.3-1.4,2.4-2.5,3.3c-0.9,0.8-1.9,1.4-3,1.8c-1.1,0.4-2.3,0.6-3.6,0.6c-1.3,0-2.5-0.2-3.6-0.6c-1.1-0.4-2.1-1-3-1.8
			c-1.1-1-1.9-2.1-2.5-3.3C162.3,139.7,162.2,138.4,162.2,136.9z M167.2,136.9c0,1.5,0.5,2.7,1.4,3.7s2.1,1.5,3.5,1.5
			s2.6-0.5,3.5-1.5s1.4-2.2,1.4-3.7s-0.5-2.8-1.4-3.8s-2.1-1.5-3.5-1.5s-2.6,0.5-3.5,1.5C167.7,134.2,167.2,135.4,167.2,136.9z"/>
		<path d="M189.1,146.3l-5-15h-1.5v-3.8h7.9v3.8h-1.7l2.7,9.2l2.7-9.2h-1.7v-3.8h7.8v3.8h-1.5l-5,15H189.1z"/>
		<path d="M201.1,146.3v-3.8h1.9v-11.3h-1.9v-3.8h16.8v6.8h-3.3l-1.1-3h-5.6v3.1h3.7v4.2h-3.7v4h5.6l1.1-3.7h3.3v7.4h-16.8V146.3z"
			/>
		<path d="M219.7,146.3v-3.8h1.9v-11.3h-1.9v-3.8h6.7l6.3,10.4l-0.2-6.6h-2v-3.8h8.6v3.8h-1.9v15h-4.1l-6.9-11.3l0.1,7.6h2v3.8
			L219.7,146.3L219.7,146.3z"/>
		<path d="M242.9,146.6c-0.7,0-1.4-0.3-1.9-0.8s-0.8-1.1-0.8-1.9c0-0.7,0.3-1.4,0.8-1.9s1.1-0.8,1.9-0.8c0.7,0,1.4,0.2,1.9,0.7
			s0.8,1.1,0.8,1.9s-0.3,1.4-0.8,1.9C244.3,146.4,243.7,146.6,242.9,146.6z"/>
		<path d="M257.8,146.3v-3.8h1.9v-11.3h-1.5l-1,3h-3v-6.7H270v6.7h-3l-1-3h-1.5v11.3h1.9v3.8H257.8z"/>
		<path d="M271.2,146.3v-3.8h1.9v-11.3h-1.9v-3.8h11.6c1.5,0,2.6,0.5,3.6,1.4c0.9,0.9,1.4,2.1,1.4,3.5c0,1-0.3,1.9-0.8,2.6
			s-1.3,1.2-2.4,1.6c0.9,0.3,1.5,0.6,1.9,1c0.3,0.4,0.5,1,0.5,1.7v3.3h1.7v3.8h-6.6v-4.4c0-1.6-0.2-2.6-0.5-3c-0.3-0.4-1-0.6-2-0.6
			h-1.5v4.2h1.5v3.8L271.2,146.3L271.2,146.3z M278,131.3v4h1.9c0.9,0,1.5-0.2,2-0.5c0.4-0.3,0.6-0.8,0.6-1.5s-0.2-1.2-0.6-1.5
			c-0.4-0.3-1.1-0.5-2-0.5H278z"/>
		<path d="M291,139.8v-8.5H289v-3.8h8.8v3.8h-2v7.9c0,1,0.3,1.7,0.8,2.2s1.2,0.8,2.2,0.8s1.7-0.3,2.2-0.8s0.8-1.3,0.8-2.2v-7.9h-2
			v-3.8h8.7v3.8h-1.9v8.5c0,2.1-0.7,3.8-2.1,5c-1.4,1.2-3.3,1.8-5.7,1.8c-2.4,0-4.3-0.6-5.7-1.8C291.7,143.6,291,141.9,291,139.8z"
			/>
		<path d="M313.8,144.4l0.1,2h-4.1V140h4.4c0.7,1,1.4,1.7,2.1,2.2c0.6,0.4,1.3,0.6,2.1,0.6c0.6,0,1.1-0.2,1.5-0.5
			c0.4-0.3,0.6-0.7,0.6-1.2s-0.2-0.8-0.6-1.1c-0.4-0.3-0.9-0.5-1.7-0.6l-2-0.3c-2.2-0.4-3.8-1-4.9-2c-1.1-1-1.6-2.3-1.6-3.9
			c0-1.7,0.6-3.1,1.8-4.2c1.2-1.1,2.7-1.7,4.5-1.7c1,0,1.8,0.2,2.5,0.5s1.4,0.9,1.9,1.6l-0.1-1.7h4.1v5.9h-4.1
			c-0.5-0.9-1.1-1.6-1.6-2c-0.6-0.4-1.2-0.7-1.8-0.7s-1.1,0.2-1.4,0.5c-0.4,0.3-0.6,0.7-0.6,1.2s0.2,0.8,0.6,1.1
			c0.4,0.3,1.1,0.5,2,0.7l1.7,0.3c2.2,0.4,3.8,1.1,4.8,2.1s1.6,2.2,1.6,3.8c0,1.9-0.6,3.4-1.8,4.5s-2.7,1.7-4.7,1.7
			c-1.1,0-2.1-0.2-3-0.6C315.3,145.7,314.7,145.1,313.8,144.4z"/>
		<path d="M330.5,146.3v-3.8h1.9v-11.3H331l-1,3h-3v-6.7h15.8v6.7h-3l-1-3h-1.5v11.3h1.9v3.8H330.5z"/>
		<path d="M343.8,146.3v-3.8h1.9v-11.3h-1.9v-3.8h16.8v6.8h-3.3l-1.1-3h-5.6v3.1h3.7v4.2h-3.7v4h5.6l1.1-3.7h3.3v7.4h-16.8V146.3z"
			/>
		<path d="M362.5,146.3v-3.8h1.9v-11.3h-1.9v-3.8h8.9c1.3,0,2.4,0.1,3.4,0.2c0.9,0.2,1.7,0.4,2.3,0.7c1.7,0.9,2.9,2,3.7,3.4
			c0.8,1.4,1.2,3.1,1.2,5.1s-0.4,3.7-1.2,5.1c-0.8,1.4-2,2.5-3.7,3.4c-0.6,0.3-1.3,0.5-2.3,0.7c-0.9,0.2-2.1,0.2-3.4,0.2h-8.9V146.3
			z M369.3,131.3v11.3h1.5c1.9,0,3.4-0.5,4.4-1.4c1-1,1.5-2.4,1.5-4.2c0-1.9-0.5-3.3-1.5-4.2c-1-1-2.5-1.4-4.4-1.4h-1.5V131.3z"/>
		<path d="M386.1,146.6c-0.7,0-1.4-0.3-1.9-0.8s-0.8-1.1-0.8-1.9c0-0.7,0.3-1.4,0.8-1.9s1.1-0.8,1.9-0.8c0.7,0,1.4,0.2,1.9,0.7
			s0.8,1.1,0.8,1.9s-0.3,1.4-0.8,1.9C387.5,146.4,386.8,146.6,386.1,146.6z"/>
	</g>
	<g>
		<defs>
			<rect id="SVGID_67_" x="2.7" y="92.5" width="386.3" height="22.1"/>
		</defs>
		<clipPath id="SVGID_68_">
			<use xlink:href="#SVGID_67_"  style="overflow:visible;"/>
		</clipPath>
		<g class="st39">
			
				<rect x="-71.1" y="-114.1" transform="matrix(0.9189 0.3945 -0.3945 0.9189 -6.2858 24.6662)" class="st40" width="16" height="222.3"/>
			
				<rect x="-55.9" y="-110.2" transform="matrix(0.9189 0.3945 -0.3945 0.9189 -3.9846 21.3613)" class="st41" width="4" height="222.3"/>
			
				<rect x="-74.3" y="-118" transform="matrix(0.9189 0.3945 -0.3945 0.9189 -8.587 27.9711)" class="st41" width="4" height="222.3"/>
			
				<rect x="-52.8" y="-106.2" transform="matrix(0.9189 0.3945 -0.3945 0.9189 -1.6835 18.0564)" class="st3" width="16" height="222.3"/>
			
				<rect x="-34.4" y="-98.3" transform="matrix(0.9189 0.3945 -0.3945 0.9189 2.9189 11.4465)" class="st40" width="16" height="222.3"/>
			
				<rect x="-19.2" y="-94.4" transform="matrix(0.9189 0.3945 -0.3945 0.9189 5.2201 8.1416)" class="st41" width="4" height="222.3"/>
			
				<rect x="-37.6" y="-102.3" transform="matrix(0.9189 0.3945 -0.3945 0.9189 0.6177 14.7515)" class="st41" width="4" height="222.3"/>
			
				<rect x="-16" y="-90.4" transform="matrix(0.9189 0.3945 -0.3945 0.9189 7.5212 4.8367)" class="st3" width="16" height="222.3"/>
			
				<rect x="2.4" y="-82.5" transform="matrix(0.9189 0.3945 -0.3945 0.9189 12.1236 -1.7731)" class="st40" width="16" height="222.3"/>
			
				<rect x="17.6" y="-78.6" transform="matrix(0.9189 0.3945 -0.3945 0.9189 14.4247 -5.078)" class="st41" width="4" height="222.3"/>
			
				<rect x="-0.8" y="-86.5" transform="matrix(0.9189 0.3945 -0.3945 0.9189 9.8224 1.5318)" class="st41" width="4" height="222.3"/>
			
				<rect x="20.8" y="-74.7" transform="matrix(0.9189 0.3945 -0.3945 0.9189 16.7259 -8.383)" class="st3" width="16" height="222.3"/>
			
				<rect x="39.1" y="-66.8" transform="matrix(0.9189 0.3945 -0.3945 0.9189 21.3283 -14.9928)" class="st40" width="16" height="222.3"/>
			
				<rect x="54.3" y="-62.8" transform="matrix(0.9189 0.3945 -0.3945 0.9189 23.6294 -18.2977)" class="st41" width="4" height="222.3"/>
			
				<rect x="35.9" y="-70.7" transform="matrix(0.9189 0.3945 -0.3945 0.9189 19.0271 -11.6879)" class="st41" width="4" height="222.3"/>
			
				<rect x="57.5" y="-58.9" transform="matrix(0.9189 0.3945 -0.3945 0.9189 25.9306 -21.6026)" class="st3" width="16" height="222.3"/>
			
				<rect x="75.9" y="-51" transform="matrix(0.9189 0.3945 -0.3945 0.9189 30.533 -28.2125)" class="st40" width="16" height="222.3"/>
			
				<rect x="91.1" y="-47" transform="matrix(0.9189 0.3945 -0.3945 0.9189 32.8341 -31.5174)" class="st41" width="4" height="222.3"/>
			
				<rect x="72.7" y="-54.9" transform="matrix(0.9189 0.3945 -0.3945 0.9189 28.2318 -24.9076)" class="st41" width="4" height="222.3"/>
			
				<rect x="94.3" y="-43.1" transform="matrix(0.9189 0.3945 -0.3945 0.9189 35.1353 -34.8223)" class="st3" width="16" height="222.3"/>
			
				<rect x="112.6" y="-35.2" transform="matrix(0.9189 0.3945 -0.3945 0.9189 39.7376 -41.4322)" class="st40" width="16" height="222.3"/>
			
				<rect x="127.8" y="-31.3" transform="matrix(0.9189 0.3945 -0.3945 0.9189 42.0388 -44.7371)" class="st41" width="4" height="222.3"/>
			
				<rect x="109.5" y="-39.2" transform="matrix(0.9189 0.3945 -0.3945 0.9189 37.4365 -38.1272)" class="st41" width="4" height="222.3"/>
			
				<rect x="131" y="-27.3" transform="matrix(0.9189 0.3945 -0.3945 0.9189 44.34 -48.042)" class="st3" width="16" height="222.3"/>
			
				<rect x="149.4" y="-19.4" transform="matrix(0.9189 0.3945 -0.3945 0.9189 48.9423 -54.6518)" class="st40" width="16" height="222.3"/>
			
				<rect x="164.6" y="-15.5" transform="matrix(0.9189 0.3945 -0.3945 0.9189 51.2435 -57.9567)" class="st41" width="4" height="222.3"/>
			
				<rect x="146.2" y="-23.4" transform="matrix(0.9189 0.3945 -0.3945 0.9189 46.6412 -51.3469)" class="st41" width="4" height="222.3"/>
			
				<rect x="167.8" y="-11.5" transform="matrix(0.9189 0.3945 -0.3945 0.9189 53.5447 -61.2617)" class="st3" width="16" height="222.3"/>
			
				<rect x="186.2" y="-3.7" transform="matrix(0.9189 0.3945 -0.3945 0.9189 58.147 -67.8715)" class="st40" width="16" height="222.3"/>
			
				<rect x="201.3" y="0.3" transform="matrix(0.9189 0.3945 -0.3945 0.9189 60.4482 -71.1764)" class="st41" width="4" height="222.3"/>
			
				<rect x="183" y="-7.6" transform="matrix(0.9189 0.3945 -0.3945 0.9189 55.8459 -64.5666)" class="st41" width="4" height="222.3"/>
			
				<rect x="204.5" y="4.2" transform="matrix(0.9189 0.3945 -0.3945 0.9189 62.7494 -74.4813)" class="st3" width="16" height="222.3"/>
			
				<rect x="223.8" y="12.5" transform="matrix(0.9189 0.3945 -0.3945 0.9189 67.5818 -81.4217)" class="st40" width="16" height="222.3"/>
			
				<rect x="239" y="16.5" transform="matrix(0.9189 0.3945 -0.3945 0.9189 69.883 -84.7266)" class="st41" width="4" height="222.3"/>
			
				<rect x="220.6" y="8.6" transform="matrix(0.9189 0.3945 -0.3945 0.9189 65.2807 -78.1168)" class="st41" width="4" height="222.3"/>
			
				<rect x="242.2" y="20.4" transform="matrix(0.9189 0.3945 -0.3945 0.9189 72.1842 -88.0315)" class="st3" width="16" height="222.3"/>
			
				<rect x="260.6" y="28.3" transform="matrix(0.9189 0.3945 -0.3945 0.9189 76.7865 -94.6413)" class="st40" width="16" height="222.3"/>
			
				<rect x="275.8" y="32.2" transform="matrix(0.9189 0.3945 -0.3945 0.9189 79.0877 -97.9463)" class="st41" width="4" height="222.3"/>
			
				<rect x="257.4" y="24.4" transform="matrix(0.9189 0.3945 -0.3945 0.9189 74.4854 -91.3364)" class="st41" width="4" height="222.3"/>
			
				<rect x="279" y="36.2" transform="matrix(0.9189 0.3945 -0.3945 0.9189 81.3889 -101.2512)" class="st3" width="16" height="222.3"/>
			
				<rect x="297.3" y="44.1" transform="matrix(0.9189 0.3945 -0.3945 0.9189 85.9912 -107.861)" class="st40" width="16" height="222.3"/>
			
				<rect x="312.5" y="48" transform="matrix(0.9189 0.3945 -0.3945 0.9189 88.2924 -111.1659)" class="st41" width="4" height="222.3"/>
			
				<rect x="294.2" y="40.1" transform="matrix(0.9189 0.3945 -0.3945 0.9189 83.69 -104.5561)" class="st41" width="4" height="222.3"/>
			
				<rect x="315.7" y="52" transform="matrix(0.9189 0.3945 -0.3945 0.9189 90.5936 -114.4709)" class="st3" width="16" height="222.3"/>
			
				<rect x="334.1" y="59.9" transform="matrix(0.9189 0.3945 -0.3945 0.9189 95.1959 -121.0807)" class="st40" width="16" height="222.3"/>
			
				<rect x="349.3" y="63.8" transform="matrix(0.9189 0.3945 -0.3945 0.9189 97.4971 -124.3856)" class="st41" width="4" height="222.3"/>
			
				<rect x="330.9" y="55.9" transform="matrix(0.9189 0.3945 -0.3945 0.9189 92.8947 -117.7758)" class="st41" width="4" height="222.3"/>
			
				<rect x="352.5" y="67.7" transform="matrix(0.9189 0.3945 -0.3945 0.9189 99.7982 -127.6905)" class="st3" width="16" height="222.3"/>
			
				<rect x="370.9" y="75.6" transform="matrix(0.9189 0.3945 -0.3945 0.9189 104.4006 -134.3004)" class="st40" width="16" height="222.3"/>
			
				<rect x="386" y="79.6" transform="matrix(0.9189 0.3945 -0.3945 0.9189 106.7018 -137.6053)" class="st41" width="4" height="222.3"/>
			
				<rect x="367.7" y="71.7" transform="matrix(0.9189 0.3945 -0.3945 0.9189 102.0994 -130.9955)" class="st41" width="4" height="222.3"/>
			
				<rect x="389.2" y="83.5" transform="matrix(0.9189 0.3945 -0.3945 0.9189 109.0029 -140.9102)" class="st3" width="16" height="222.3"/>
			
				<rect x="407.6" y="91.4" transform="matrix(0.9189 0.3945 -0.3945 0.9189 113.6053 -147.5201)" class="st40" width="16" height="222.3"/>
			
				<rect x="422.8" y="95.4" transform="matrix(0.9189 0.3945 -0.3945 0.9189 115.9065 -150.825)" class="st41" width="4" height="222.3"/>
			
				<rect x="404.4" y="87.5" transform="matrix(0.9189 0.3945 -0.3945 0.9189 111.3041 -144.2151)" class="st41" width="4" height="222.3"/>
			
				<rect x="426" y="99.3" transform="matrix(0.9189 0.3945 -0.3945 0.9189 118.2076 -154.1299)" class="st3" width="16" height="222.3"/>
			
				<rect x="444.4" y="107.2" transform="matrix(0.9189 0.3945 -0.3945 0.9189 122.81 -160.7397)" class="st40" width="16" height="222.3"/>
			
				<rect x="459.6" y="111.1" transform="matrix(0.9189 0.3945 -0.3945 0.9189 125.1112 -164.0446)" class="st41" width="4" height="222.3"/>
			
				<rect x="441.2" y="103.2" transform="matrix(0.9189 0.3945 -0.3945 0.9189 120.5088 -157.4348)" class="st41" width="4" height="222.3"/>
			
				<rect x="462.7" y="115.1" transform="matrix(0.9189 0.3945 -0.3945 0.9189 127.4123 -167.3495)" class="st3" width="16" height="222.3"/>
			
				<rect x="481.1" y="123" transform="matrix(0.9189 0.3945 -0.3945 0.9189 132.0147 -173.9594)" class="st40" width="16" height="222.3"/>
			
				<rect x="496.3" y="126.9" transform="matrix(0.9189 0.3945 -0.3945 0.9189 134.3158 -177.2643)" class="st41" width="4" height="222.3"/>
			
				<rect x="477.9" y="119" transform="matrix(0.9189 0.3945 -0.3945 0.9189 129.7135 -170.6545)" class="st41" width="4" height="222.3"/>
			
				<rect x="499.5" y="130.9" transform="matrix(0.9189 0.3945 -0.3945 0.9189 136.617 -180.5692)" class="st3" width="16" height="222.3"/>
		</g>
	</g>
</g>
</svg>
